<svg width="15" height="14" viewBox="0 0 15 14" fill="none" xmlns="http://www.w3.org/2000/svg">
<path id="Vector" d="M7.27171 1.55528C7.43643 1.18573 7.51882 1.00096 7.63352 0.944059C7.73313 0.894623 7.8501 0.894623 7.94971 0.944059C8.06441 1.00096 8.1468 1.18573 8.31152 1.55528L9.62355 4.49876C9.67229 4.60801 9.69662 4.66263 9.73433 4.70446C9.76763 4.74147 9.8084 4.77108 9.85387 4.79134C9.90531 4.81425 9.96479 4.82053 10.0838 4.83308L13.2886 5.17134C13.691 5.2138 13.8921 5.23504 13.9817 5.32653C14.0595 5.406 14.0956 5.51728 14.0794 5.62731C14.0608 5.75396 13.9105 5.88936 13.61 6.16023L11.2159 8.31768C11.1271 8.39773 11.0827 8.43779 11.0545 8.48653C11.0296 8.52972 11.0141 8.5776 11.0089 8.62712C11.003 8.68312 11.0153 8.74161 11.0402 8.85865L11.7089 12.0112C11.7928 12.407 11.8348 12.6048 11.7755 12.7183C11.7239 12.8169 11.6292 12.8856 11.5196 12.9042C11.3934 12.9255 11.2181 12.8245 10.8676 12.6223L8.07601 11.0122C7.97241 10.9524 7.92061 10.9226 7.86554 10.9109C7.8168 10.9006 7.76643 10.9006 7.71769 10.9109C7.66262 10.9226 7.61082 10.9524 7.50722 11.0122L4.71561 12.6223C4.36513 12.8245 4.1899 12.9255 4.06367 12.9042C3.95402 12.8856 3.85936 12.8169 3.80781 12.7183C3.74848 12.6048 3.79045 12.407 3.8744 12.0112L4.54306 8.85865C4.56787 8.74161 4.58028 8.68312 4.57439 8.62712C4.56918 8.5776 4.55361 8.52972 4.52871 8.48653C4.50057 8.43779 4.45614 8.39773 4.3673 8.31768L1.97332 6.16023C1.67277 5.88936 1.52249 5.75396 1.50381 5.62731C1.48759 5.51728 1.52374 5.406 1.60154 5.32653C1.6911 5.23504 1.89228 5.2138 2.29464 5.17134L5.49951 4.83308C5.61846 4.82053 5.67793 4.81425 5.72936 4.79134C5.77486 4.77108 5.8156 4.74147 5.84894 4.70446C5.88661 4.66263 5.91096 4.60801 5.95967 4.49876L7.27171 1.55528Z" fill="#008AEE" stroke="#008AEE" stroke-width="1.5" stroke-linecap="round" stroke-linejoin="round"/>
</svg>
