<svg width="30" height="27" viewBox="0 0 30 27" fill="none" xmlns="http://www.w3.org/2000/svg">
<path id="&#226;&#128;&#156;" d="M5.13124 26.9055C3.42321 26.9055 2.2529 26.5892 1.62029 25.9566C0.987688 25.324 0.671387 24.1537 0.671387 22.4457V16.8471C0.671387 14.5698 0.829538 12.5138 1.14584 10.6792C1.5254 8.78143 2.03148 7.0734 2.66409 5.55515C3.35995 3.97364 4.15071 2.42377 5.03635 0.905518L10.2553 2.51866C9.74925 4.41647 9.40131 6.25102 9.21153 8.0223C9.08501 9.79359 8.99012 11.6914 8.92686 13.7157C11.3308 13.7157 12.5643 15.0442 12.6276 17.7011L12.5327 22.4457C12.4694 24.1537 12.0899 25.324 11.394 25.9566C10.7614 26.5892 9.62272 26.9055 7.97796 26.9055H5.13124ZM21.832 26.9055C20.1872 26.9055 19.0485 26.5892 18.4159 25.9566C17.7833 25.324 17.4354 24.1537 17.3721 22.4457V16.8471C17.4354 14.5698 17.6252 12.5138 17.9415 10.6792C18.321 8.78143 18.8271 7.0734 19.4597 5.55515C20.0923 3.97364 20.8831 2.42377 21.832 0.905518L26.9561 2.51866C26.45 4.41647 26.102 6.25102 25.9123 8.0223C25.7857 9.79359 25.6909 11.6914 25.6276 13.7157C28.0315 13.7157 29.2651 15.0442 29.3283 17.7011L29.2334 22.4457C29.1702 24.1537 28.7906 25.324 28.0947 25.9566C27.4621 26.5892 26.3235 26.9055 24.6787 26.9055H21.832Z" fill="#008AEE"/>
</svg>
