<svg width="14" height="15" viewBox="0 0 14 15" fill="none" xmlns="http://www.w3.org/2000/svg">
<path id="Vector" d="M1.41992 2.50035H5.75325M5.75325 2.50035C5.75325 3.2981 6.39993 3.9448 7.1977 3.9448C7.99547 3.9448 8.64214 3.2981 8.64214 2.50035M5.75325 2.50035C5.75325 1.70261 6.39993 1.05591 7.1977 1.05591C7.99547 1.05591 8.64214 1.70261 8.64214 2.50035M8.64214 2.50035H12.9755M1.41992 7.55591H10.0866M10.0866 7.55591C10.0866 8.35368 10.7333 9.00035 11.531 9.00035C12.3288 9.00035 12.9755 8.35368 12.9755 7.55591C12.9755 6.75814 12.3288 6.11146 11.531 6.11146C10.7333 6.11146 10.0866 6.75814 10.0866 7.55591ZM4.30881 12.6115H12.9755M4.30881 12.6115C4.30881 11.8137 3.66211 11.167 2.86437 11.167C2.06662 11.167 1.41992 11.8137 1.41992 12.6115C1.41992 13.4092 2.06662 14.0559 2.86437 14.0559C3.66211 14.0559 4.30881 13.4092 4.30881 12.6115Z" stroke="#008AEE" stroke-width="1.5" stroke-linecap="round"/>
</svg>
