<svg width="18" height="16" viewBox="0 0 18 16" fill="none" xmlns="http://www.w3.org/2000/svg">
<path id="Vector" fill-rule="evenodd" clip-rule="evenodd" d="M1.01132 9.5025V14.875C1.01132 15.22 1.29132 15.5 1.63632 15.5H2.98132C3.12934 15.5 3.27256 15.4475 3.38548 15.3518C3.49841 15.2562 3.57372 15.1235 3.59799 14.9775L3.92799 13H14.7613L15.0905 14.9775C15.1148 15.1235 15.1901 15.2562 15.303 15.3518C15.4159 15.4475 15.5591 15.5 15.7072 15.5H17.053C17.2188 15.5 17.3777 15.4342 17.4949 15.3169C17.6121 15.1997 17.678 15.0408 17.678 14.875V9.5025C17.678 8.52285 17.3881 7.56511 16.8447 6.75L16.1947 5.775C16.1367 5.6882 16.087 5.59612 16.0463 5.5H16.8747C16.9908 5.5 17.1046 5.46764 17.2034 5.40655C17.3022 5.34547 17.382 5.25807 17.4338 5.15417L17.6422 4.7375C17.6897 4.64228 17.7121 4.53649 17.7073 4.43017C17.7025 4.32384 17.6707 4.22051 17.6148 4.12995C17.5588 4.03939 17.4807 3.96462 17.3878 3.91271C17.2949 3.8608 17.1903 3.83348 17.0838 3.83333H15.678L15.4197 2.545C15.3411 2.15263 15.1511 1.7912 14.8726 1.50391C14.594 1.21663 14.2386 1.01565 13.8488 0.925C12.6305 0.641667 11.1288 0.5 9.34466 0.5C7.55966 0.5 6.05882 0.641667 4.84049 0.925C4.45057 1.01551 4.09499 1.21642 3.81626 1.50372C3.53754 1.79101 3.34748 2.15252 3.26882 2.545L3.01049 3.83333H1.60632C1.49989 3.83348 1.39526 3.8608 1.30235 3.91271C1.20944 3.96462 1.13132 4.03939 1.0754 4.12995C1.01948 4.22051 0.987609 4.32384 0.982813 4.43017C0.978017 4.53649 1.00045 4.64228 1.04799 4.7375L1.25632 5.15417C1.30813 5.25794 1.3878 5.34525 1.4864 5.40633C1.58501 5.46741 1.69867 5.49984 1.81466 5.5H2.64382C2.6031 5.59611 2.55344 5.68818 2.49549 5.775L1.84466 6.75C1.30132 7.565 1.01132 8.5225 1.01132 9.5025ZM14.3122 5.50333C14.3696 5.79156 14.4648 6.07092 14.5955 6.33417H4.09382C4.22466 6.07167 4.31966 5.7925 4.37716 5.50333L4.90382 2.8725C4.91937 2.79384 4.95728 2.72134 5.01301 2.66369C5.06873 2.60605 5.13991 2.5657 5.21799 2.5475C6.29966 2.2975 7.67799 2.16667 9.34466 2.16667C11.0113 2.16667 12.3897 2.29667 13.4713 2.54833C13.5495 2.56633 13.6207 2.60649 13.6766 2.66399C13.7325 2.72149 13.7706 2.79389 13.7863 2.8725L14.3122 5.50333ZM3.92799 10.5C4.25951 10.5 4.57745 10.3683 4.81187 10.1339C5.04629 9.89946 5.17799 9.58152 5.17799 9.25C5.17799 8.91848 5.04629 8.60054 4.81187 8.36612C4.57745 8.1317 4.25951 8 3.92799 8C3.59647 8 3.27853 8.1317 3.04411 8.36612C2.80969 8.60054 2.67799 8.91848 2.67799 9.25C2.67799 9.58152 2.80969 9.89946 3.04411 10.1339C3.27853 10.3683 3.59647 10.5 3.92799 10.5ZM16.0113 9.25C16.0113 9.58152 15.8796 9.89946 15.6452 10.1339C15.4108 10.3683 15.0928 10.5 14.7613 10.5C14.4298 10.5 14.1119 10.3683 13.8774 10.1339C13.643 9.89946 13.5113 9.58152 13.5113 9.25C13.5113 8.91848 13.643 8.60054 13.8774 8.36612C14.1119 8.1317 14.4298 8 14.7613 8C15.0928 8 15.4108 8.1317 15.6452 8.36612C15.8796 8.60054 16.0113 8.91848 16.0113 9.25Z" fill="white"/>
</svg>
