<svg width="23" height="22" viewBox="0 0 23 22" fill="none" xmlns="http://www.w3.org/2000/svg">
<g id="Vector">
<path fill-rule="evenodd" clip-rule="evenodd" d="M8.91016 18.9308C9.28163 19.1469 9.51289 19.5375 9.97541 20.319L10.5717 21.3265C11.1032 22.2244 12.4309 22.2244 12.9625 21.3265L13.5588 20.319C14.0212 19.5375 14.2525 19.1468 14.624 18.9308C14.9955 18.7147 15.4631 18.7067 16.3985 18.6907C17.7795 18.6668 18.6455 18.5822 19.3718 18.2813C20.7195 17.7231 21.7902 16.6525 22.3484 15.3047C22.7671 14.2941 22.7671 13.0127 22.7671 10.45V9.35C22.7671 5.74923 22.7671 3.94883 21.9566 2.62626C21.5031 1.8862 20.8809 1.26399 20.1408 0.81048C18.8182 0 17.0178 0 13.4171 0H10.1171C6.51632 0 4.71592 0 3.39335 0.81048C2.65329 1.26399 2.03108 1.8862 1.57757 2.62626C0.76709 3.94883 0.76709 5.74923 0.76709 9.35V10.45C0.76709 13.0127 0.76709 14.2941 1.18575 15.3047C1.74397 16.6525 2.81467 17.7231 4.16233 18.2813C4.88867 18.5822 5.75473 18.6668 7.13563 18.6907C8.071 18.7067 8.53869 18.7147 8.91016 18.9308ZM21.0187 3.20103C20.6559 2.60894 20.1581 2.11118 19.5661 1.7484C19.1067 1.46686 18.5141 1.29003 17.5291 1.19637C16.5278 1.10116 15.2388 1.1 13.4171 1.1H10.1171C8.2954 1.1 7.00638 1.10116 6.00501 1.19637C5.02002 1.29003 4.4275 1.46686 3.9681 1.74838C3.37606 2.11119 2.87828 2.60896 2.51547 3.20101C2.23395 3.66041 2.05712 4.25293 1.96346 5.23793C1.86825 6.23929 1.86709 7.52831 1.86709 9.35V10.45C1.86709 11.7464 1.86769 12.6636 1.91687 13.3845C1.96538 14.0955 2.05746 14.5348 2.20201 14.8838C2.64857 15.9619 3.50512 16.8184 4.58327 17.2651C5.09744 17.478 5.77357 17.5669 7.15464 17.5908L7.19789 17.5916C7.62832 17.5989 8.02345 17.6057 8.35536 17.6424C8.7188 17.6826 9.09569 17.7662 9.46317 17.9799C9.82687 18.1915 10.0839 18.4718 10.2976 18.765C10.4911 19.0305 10.6878 19.363 10.9002 19.7218L11.5183 20.7661C11.5672 20.8487 11.6525 20.8999 11.7671 20.8999C11.8816 20.8999 11.9669 20.8488 12.0158 20.7662M12.0158 20.7662L12.6338 19.7221C12.8462 19.3632 13.0429 19.0306 13.2366 18.7649C13.4503 18.4717 13.7072 18.1915 14.071 17.9799C14.4385 17.7662 14.8153 17.6826 15.1788 17.6424C15.5107 17.6057 15.9058 17.5989 16.3363 17.5916L16.3795 17.5908C17.7606 17.5669 18.4367 17.478 18.9509 17.2651C20.0291 16.8185 20.8856 15.962 21.3322 14.8838C21.4767 14.5348 21.5688 14.0955 21.6173 13.3845C21.6665 12.6636 21.6671 11.7464 21.6671 10.45V9.35C21.6671 7.52831 21.6659 6.23929 21.5707 5.23792C21.4771 4.25294 21.3002 3.66043 21.0187 3.20103M3.39449 0.812346L3.39335 0.81048L3.39449 0.812346Z" fill="white"/>
<path d="M6.54209 7.7C6.54209 7.24437 6.91146 6.875 7.36709 6.875H16.1671C16.6227 6.875 16.9921 7.24437 16.9921 7.7C16.9921 8.15563 16.6227 8.525 16.1671 8.525H7.36709C6.91146 8.525 6.54209 8.15563 6.54209 7.7Z" fill="white"/>
<path d="M6.54209 11.55C6.54209 11.0944 6.91146 10.725 7.36709 10.725H13.4171C13.8727 10.725 14.2421 11.0944 14.2421 11.55C14.2421 12.0056 13.8727 12.375 13.4171 12.375H7.36709C6.91146 12.375 6.54209 12.0056 6.54209 11.55Z" fill="white"/>
</g>
</svg>
