<svg width="16" height="16" viewBox="0 0 16 16" fill="none" xmlns="http://www.w3.org/2000/svg">
<path id="game_controller-[#794]" fill-rule="evenodd" clip-rule="evenodd" d="M3.83476 8.75H2.20801V7.25H3.83476L4.58476 8L3.83476 8.75ZM5.64901 6.93579L5.64525 6.93945L4.45575 5.75H0.708008V10.25H4.45575L6.71026 7.99634L5.64901 6.93579ZM14.208 8.75H12.5813L11.8313 8L12.5813 7.25H14.208V8.75ZM11.9603 5.75L9.70575 8.00366L10.767 9.06421L10.7708 9.06055L11.9603 10.25H15.708V5.75H11.9603ZM8.95801 12.3755V14H7.45801V12.3755L8.20801 11.6255L8.95801 12.3755ZM7.14525 10.5605L7.14826 10.5642L5.95801 11.7537V15.5H10.458V11.7537L8.20501 9.5L7.14525 10.5605ZM7.45801 3.62891V2H8.95801V3.62891L8.20801 4.37891L7.45801 3.62891ZM9.27451 5.44312L9.27001 5.43945L10.458 4.25V0.5H5.95801V4.25L8.21251 6.50366L9.27451 5.44312Z" fill="white"/>
</svg>
