<svg width="16" height="16" viewBox="0 0 16 16" fill="none" xmlns="http://www.w3.org/2000/svg">
<path id="Vector" d="M15.6081 6.60495L14.2705 6.44487C14.133 5.93417 13.9324 5.45237 13.6747 5.00492L14.5047 3.9476C14.6328 3.7844 14.618 3.53295 14.4712 3.38693L13.0921 2.00711C12.9461 1.86108 12.6947 1.84624 12.5322 1.97275L11.4734 2.80595C11.0275 2.54826 10.5457 2.34757 10.0357 2.2117L9.87645 0.872482C9.85224 0.66789 9.66326 0.5 9.45711 0.5H7.50568C7.29953 0.5 7.11056 0.66789 7.08635 0.872482L6.92549 2.21092C6.41557 2.34679 5.93298 2.54826 5.4871 2.80595L4.42744 1.97431C4.2658 1.84702 4.01357 1.86108 3.86833 2.00711L2.4885 3.38849C2.34248 3.53452 2.32764 3.78596 2.45492 3.94838L3.28657 5.0057C3.02809 5.45237 2.82897 5.93495 2.69231 6.44565L1.35466 6.60573C1.15007 6.62994 0.982178 6.81813 0.982178 7.02585V8.97649C0.982178 9.18343 1.15007 9.37162 1.35466 9.39505L2.69309 9.55669C2.82975 10.065 3.02966 10.5476 3.28735 10.9943L2.45649 12.0516C2.3292 12.2156 2.34404 12.467 2.49006 12.6131L3.86833 13.9929C4.01357 14.1397 4.2658 14.1545 4.42744 14.028L5.4871 13.1941C5.93298 13.4517 6.41557 13.6532 6.92549 13.7891L7.08635 15.1275C7.11056 15.3321 7.29953 15.5 7.50568 15.5H9.45711C9.66326 15.5 9.85224 15.3321 9.87645 15.1275L10.0373 13.7883C10.5472 13.6524 11.0298 13.451 11.4765 13.1933L12.5354 14.0241C12.6978 14.1506 12.9492 14.1374 13.0945 13.9921L14.4743 12.6099C14.6203 12.4631 14.6359 12.2117 14.5079 12.0501L13.6762 10.9927C13.9347 10.5461 14.1338 10.0635 14.2705 9.55279L15.6097 9.39271C15.8151 9.3685 15.9822 9.18109 15.9822 8.97337V7.02272C15.9822 6.81657 15.8143 6.62994 15.6081 6.60495ZM8.48257 11.7471C6.41244 11.7471 4.73354 10.0697 4.73354 7.99805C4.73354 5.92714 6.41244 4.24824 8.48257 4.24824C10.5535 4.24824 12.2316 5.92636 12.2316 7.99805C12.2324 10.0697 10.5535 11.7471 8.48257 11.7471Z" fill="white"/>
</svg>
