<svg width="18" height="16" viewBox="0 0 18 16" fill="none" xmlns="http://www.w3.org/2000/svg">
<g id="Vector">
<path d="M0.708008 5.76458C0.708008 8.87233 4.05753 12.1592 6.50945 14.1488C7.61942 15.0496 8.17442 15.5 9.04134 15.5C9.90826 15.5 10.4633 15.0497 11.5733 14.1489C14.0252 12.1592 17.3747 8.87233 17.3747 5.76456C17.3747 0.5729 12.7912 -1.36542 9.04134 2.6451C5.29147 -1.36542 0.708008 0.572901 0.708008 5.76458Z" fill="white"/>
<path fill-rule="evenodd" clip-rule="evenodd" d="M12.7913 3.20833C13.1365 3.20833 13.4163 3.48816 13.4163 3.83333V4.87502H14.458C14.8032 4.87502 15.083 5.15483 15.083 5.50002C15.083 5.84519 14.8032 6.12502 14.458 6.12502H13.4163V7.16667C13.4163 7.51183 13.1365 7.79167 12.7913 7.79167C12.4462 7.79167 12.1663 7.51183 12.1663 7.16667V6.12502H11.1247C10.7795 6.12502 10.4997 5.84519 10.4997 5.50002C10.4997 5.15483 10.7795 4.87502 11.1247 4.87502H12.1663V3.83333C12.1663 3.48816 12.4462 3.20833 12.7913 3.20833Z" fill="#202D39"/>
</g>
</svg>
