<svg width="15" height="15" viewBox="0 0 15 15" fill="none" xmlns="http://www.w3.org/2000/svg">
<path id="Vector" d="M14.7162 6.83719L8.15373 0.274687C7.97068 0.0916406 7.73068 0 7.49091 0C7.25115 0 7.01115 0.0916406 6.8281 0.274687L0.265601 6.83719C-0.100493 7.20422 -0.0822117 7.77844 0.283882 8.14453C0.650913 8.5125 1.1874 8.56664 1.55466 8.19938L1.87482 7.87898V14.0625C1.87482 14.5807 2.29412 15 2.81232 15H6.56232V11.25H8.43732V15H12.1873C12.7055 15 13.1248 14.5807 13.1248 14.0625V7.89727L13.4049 8.17734C13.771 8.54344 14.3304 8.51062 14.6977 8.1443C15.064 7.77844 15.0833 7.20328 14.7162 6.83719Z" fill="white"/>
</svg>
