<svg width="16" height="16" viewBox="0 0 16 16" fill="none" xmlns="http://www.w3.org/2000/svg">
<g id="Vector">
<path d="M1.8718 1.74167C1.72625 2.01246 1.65466 2.3465 1.51149 3.01459L1.03077 5.25777C0.726397 6.67811 1.89044 8.00326 3.44248 8.00326C4.70603 8.00326 5.76401 7.1097 5.88973 5.93632L5.94522 5.4185C5.8141 6.80559 6.98556 8.00326 8.482 8.00326C9.98858 8.00326 11.1658 6.78924 11.0159 5.39016L11.0746 5.93632C11.2003 7.1097 12.2583 8.00326 13.5219 8.00326C15.0739 8.00326 16.238 6.67811 15.9336 5.25777L15.4529 3.01459C15.3097 2.34652 15.2381 2.01246 15.0925 1.74167C14.7858 1.17108 14.234 0.748868 13.5743 0.580097C13.2612 0.5 12.8962 0.5 12.1662 0.5H4.79811C4.06808 0.5 3.70306 0.5 3.39 0.580097C2.73035 0.748868 2.17849 1.17108 1.8718 1.74167Z" fill="white"/>
<path d="M13.5219 9.12875C14.1788 9.12875 14.7892 8.96938 15.316 8.69274V9.50392C15.316 12.3335 15.316 13.7484 14.374 14.6274C13.6158 15.3351 12.4856 15.4731 10.4921 15.5V12.8804C10.4921 12.1791 10.4921 11.8285 10.3305 11.5673C10.2247 11.3962 10.0724 11.2541 9.88912 11.1554C9.60926 11.0046 9.23356 11.0046 8.48216 11.0046C7.73077 11.0046 7.35507 11.0046 7.07521 11.1554C6.8919 11.2541 6.73963 11.3962 6.63379 11.5673C6.47222 11.8285 6.47222 12.1791 6.47222 12.8804V15.5C4.47871 15.4731 3.3485 15.3351 2.59028 14.6274C1.64836 13.7484 1.64836 12.3335 1.64836 9.50392V8.69274C2.17516 8.96938 2.7855 9.12875 3.44249 9.12875C4.40491 9.12875 5.2873 8.7809 5.9451 8.20728C6.61025 8.77768 7.4985 9.12875 8.482 9.12875C9.46559 9.12875 10.3539 8.7776 11.0191 8.20713C11.6769 8.78083 12.5594 9.12875 13.5219 9.12875Z" fill="white"/>
</g>
</svg>
