<svg width="116" height="19" viewBox="0 0 116 19" fill="none" xmlns="http://www.w3.org/2000/svg">
<g opacity="0.6">
<path d="M5.30273 0.726562H8.48877L9.03809 13.0557L13.8843 0.726562H17.29L9.5752 18.5H6.87744L5.30273 0.726562ZM3.21533 0.726562H6.6333L4.8877 14.5327L4.2041 18.5H0.13916L3.21533 0.726562ZM15.8252 0.726562H19.2676L16.1914 18.5H12.0898L12.8589 14.1787L15.8252 0.726562ZM29.314 15.2041L28.7402 18.5H21.1719L21.7578 15.2041H29.314ZM25.6885 0.726562L22.6001 18.5H18.5474L21.6113 0.726562H25.6885ZM29.6191 7.78223L29.0698 10.9683H22.4902L23.0518 7.78223H29.6191ZM31.8652 0.726562L31.2915 4.03467H23.6743L24.2603 0.726562H31.8652ZM44.1943 9.00293L43.0713 16.4248C42.5749 16.9782 41.9767 17.4258 41.2769 17.7676C40.577 18.1094 39.8446 18.3576 39.0796 18.5122C38.3146 18.675 37.57 18.7482 36.8457 18.7319C35.7471 18.7157 34.8234 18.5 34.0747 18.085C33.3341 17.6618 32.7563 17.0921 32.3413 16.376C31.9263 15.6517 31.6536 14.8338 31.5234 13.9224C31.4014 13.0109 31.4014 12.0669 31.5234 11.0903L31.9751 8.16064C32.1053 7.13525 32.3535 6.15869 32.7197 5.23096C33.0859 4.30322 33.562 3.47721 34.1479 2.75293C34.742 2.02865 35.4663 1.46305 36.3208 1.05615C37.1753 0.641113 38.1681 0.445801 39.2993 0.470215C40.5688 0.486491 41.6024 0.750977 42.3999 1.26367C43.2056 1.76823 43.7915 2.47217 44.1577 3.37549C44.5321 4.27881 44.7111 5.33675 44.6948 6.54932L40.7886 6.5249C40.813 6.07731 40.8049 5.646 40.7642 5.23096C40.7235 4.81592 40.5851 4.47412 40.3491 4.20557C40.1213 3.92887 39.7306 3.77832 39.1772 3.75391C38.5913 3.72135 38.1112 3.84342 37.7368 4.12012C37.3625 4.38867 37.0614 4.75081 36.8335 5.20654C36.6138 5.66227 36.4469 6.15055 36.333 6.67139C36.2272 7.19222 36.1458 7.67643 36.0889 8.12402L35.6494 11.1025C35.6006 11.5094 35.5518 11.9611 35.5029 12.4575C35.4541 12.9458 35.4622 13.4178 35.5273 13.8735C35.5924 14.3211 35.7593 14.6914 36.0278 14.9844C36.3045 15.2773 36.7358 15.4279 37.3218 15.436C37.5741 15.4442 37.7856 15.4157 37.9565 15.3506C38.1356 15.2855 38.3105 15.2041 38.4814 15.1064C38.6523 15.0088 38.8436 14.9193 39.0552 14.8379L39.6289 11.9448H37.5659L38.0786 9.00293H44.1943ZM53.667 4.65723L48.1128 18.5H43.6206L52.019 0.726562H54.8511L53.667 4.65723ZM53.8135 18.5L53.0322 4.24219L53.1299 0.726562H55.8276L58.0737 18.5H53.8135ZM55.0708 11.8716L54.4849 15.1797H46.9897L47.5757 11.8716H55.0708Z" fill="#DC5426"/>
<path d="M68.4253 12.4941L72.3926 12.4453C72.36 13.723 72.0386 14.842 71.4282 15.8022C70.826 16.7544 70.0203 17.4909 69.0112 18.0117C68.0103 18.5244 66.875 18.7686 65.6055 18.7441C64.4987 18.7197 63.5872 18.4797 62.8711 18.0239C62.1549 17.5601 61.6016 16.9497 61.2109 16.1929C60.8203 15.4279 60.5721 14.5815 60.4663 13.6538C60.3687 12.7261 60.3768 11.7902 60.4907 10.8462L60.8813 8.36816C61.0278 7.38346 61.276 6.41911 61.626 5.4751C61.984 4.52295 62.4601 3.66439 63.0542 2.89941C63.6483 2.13444 64.3685 1.53223 65.2148 1.09277C66.0693 0.65332 67.054 0.445801 68.1689 0.470215C69.4629 0.494629 70.5127 0.791667 71.3184 1.36133C72.124 1.93099 72.714 2.69596 73.0884 3.65625C73.4627 4.61654 73.6458 5.69482 73.6377 6.89111L69.5483 6.8667C69.6216 6.34587 69.6419 5.86165 69.6094 5.41406C69.585 4.95833 69.4466 4.58398 69.1943 4.29102C68.9502 3.99805 68.5148 3.83936 67.8882 3.81494C67.2941 3.79053 66.818 3.9248 66.46 4.21777C66.1019 4.51074 65.8293 4.8973 65.6421 5.37744C65.4549 5.84945 65.3166 6.34993 65.2271 6.87891C65.1457 7.40788 65.0765 7.89616 65.0195 8.34375L64.6533 10.8584C64.6126 11.2083 64.5475 11.6356 64.458 12.1401C64.3766 12.6447 64.34 13.1411 64.3481 13.6294C64.3644 14.1177 64.4784 14.5327 64.6899 14.8745C64.9097 15.2082 65.3003 15.3913 65.8618 15.4238C66.4803 15.4401 66.9727 15.3221 67.3389 15.0698C67.7051 14.8094 67.9696 14.4554 68.1323 14.0078C68.3032 13.5521 68.4009 13.0475 68.4253 12.4941ZM82.2559 4.65723L76.7017 18.5H72.2095L80.6079 0.726562H83.4399L82.2559 4.65723ZM82.4023 18.5L81.6211 4.24219L81.7188 0.726562H84.4165L86.6626 18.5H82.4023ZM83.6597 11.8716L83.0737 15.1797H75.5786L76.1646 11.8716H83.6597ZM91.106 0.726562L96.7944 0.73877C97.8442 0.763184 98.7476 0.991048 99.5044 1.42236C100.269 1.84554 100.843 2.44775 101.226 3.229C101.608 4.00212 101.763 4.92171 101.689 5.98779C101.624 6.89111 101.453 7.6805 101.177 8.35596C100.9 9.03141 100.497 9.62142 99.9683 10.126C99.4474 10.6224 98.7882 11.0618 97.9907 11.4443L96.5259 12.2256H91.6919L92.2412 8.91748L95.3174 8.9541C95.8219 8.93783 96.2288 8.81169 96.5381 8.57568C96.8473 8.33154 97.0833 8.01823 97.2461 7.63574C97.4089 7.24512 97.5146 6.82601 97.5635 6.37842C97.6123 6.07731 97.6489 5.75179 97.6733 5.40186C97.6978 5.04378 97.6408 4.73861 97.5024 4.48633C97.3641 4.22591 97.0833 4.07943 96.6602 4.04688L94.6216 4.03467L92.0947 18.5H88.042L91.106 0.726562ZM95.7568 18.5L94.0723 10.6387L98.1982 10.6143L100.115 18.2925V18.5H95.7568ZM109.844 13.6782C109.901 13.3608 109.905 13.076 109.856 12.8237C109.807 12.5715 109.709 12.3517 109.563 12.1646C109.425 11.9692 109.242 11.7902 109.014 11.6274C108.794 11.4647 108.55 11.3141 108.281 11.1758C107.687 10.891 107.13 10.5736 106.609 10.2236C106.088 9.86556 105.628 9.46273 105.229 9.01514C104.839 8.56755 104.542 8.06299 104.338 7.50146C104.143 6.93994 104.066 6.29704 104.106 5.57275C104.155 4.75895 104.363 4.03467 104.729 3.3999C105.095 2.757 105.575 2.21989 106.169 1.78857C106.764 1.34912 107.427 1.01953 108.159 0.799805C108.892 0.57194 109.636 0.466146 110.393 0.482422C111.484 0.498698 112.399 0.750977 113.14 1.23926C113.88 1.72754 114.438 2.38672 114.812 3.2168C115.186 4.04688 115.361 4.97461 115.337 6L111.296 6.01221C111.305 5.67855 111.296 5.33675 111.272 4.98682C111.248 4.63688 111.146 4.34391 110.967 4.10791C110.796 3.86377 110.491 3.73763 110.051 3.72949C109.701 3.72135 109.392 3.8068 109.124 3.98584C108.855 4.16488 108.635 4.40088 108.464 4.69385C108.302 4.97868 108.192 5.28385 108.135 5.60938C108.086 5.88607 108.106 6.13835 108.196 6.36621C108.285 6.59408 108.42 6.8016 108.599 6.98877C108.778 7.17594 108.977 7.34277 109.197 7.48926C109.425 7.63574 109.64 7.76595 109.844 7.87988C110.487 8.17285 111.064 8.50244 111.577 8.86865C112.09 9.23486 112.525 9.6499 112.883 10.1138C113.25 10.5695 113.518 11.0903 113.689 11.6763C113.868 12.2541 113.933 12.9132 113.884 13.6538C113.827 14.4839 113.632 15.2204 113.298 15.8633C112.965 16.498 112.525 17.0352 111.98 17.4746C111.435 17.9059 110.812 18.2314 110.112 18.4512C109.412 18.6628 108.66 18.7645 107.854 18.7563C106.967 18.7319 106.174 18.5732 105.474 18.2803C104.782 17.9792 104.2 17.5601 103.728 17.0229C103.256 16.4858 102.902 15.8551 102.666 15.1309C102.43 14.3984 102.32 13.5968 102.336 12.7261L106.438 12.7383C106.414 13.0964 106.405 13.4422 106.414 13.7759C106.422 14.1095 106.475 14.4066 106.572 14.667C106.67 14.9274 106.837 15.1349 107.073 15.2896C107.317 15.436 107.663 15.5093 108.11 15.5093C108.477 15.5093 108.778 15.4279 109.014 15.2651C109.25 15.0942 109.433 14.8704 109.563 14.5938C109.701 14.3089 109.795 14.0037 109.844 13.6782Z" fill="white"/>
</g>
</svg>
