<svg width="129" height="19" viewBox="0 0 129 19" fill="none" xmlns="http://www.w3.org/2000/svg">
<g opacity="0.6">
<path d="M5.30273 0.726562H8.48877L9.03809 13.0557L13.8843 0.726562H17.29L9.5752 18.5H6.87744L5.30273 0.726562ZM3.21533 0.726562H6.6333L4.8877 14.5327L4.2041 18.5H0.13916L3.21533 0.726562ZM15.8252 0.726562H19.2676L16.1914 18.5H12.0898L12.8589 14.1787L15.8252 0.726562ZM29.314 15.2041L28.7402 18.5H21.1719L21.7578 15.2041H29.314ZM25.6885 0.726562L22.6001 18.5H18.5474L21.6113 0.726562H25.6885ZM29.6191 7.78223L29.0698 10.9683H22.4902L23.0518 7.78223H29.6191ZM31.8652 0.726562L31.2915 4.03467H23.6743L24.2603 0.726562H31.8652ZM44.1943 9.00293L43.0713 16.4248C42.5749 16.9782 41.9767 17.4258 41.2769 17.7676C40.577 18.1094 39.8446 18.3576 39.0796 18.5122C38.3146 18.675 37.57 18.7482 36.8457 18.7319C35.7471 18.7157 34.8234 18.5 34.0747 18.085C33.3341 17.6618 32.7563 17.0921 32.3413 16.376C31.9263 15.6517 31.6536 14.8338 31.5234 13.9224C31.4014 13.0109 31.4014 12.0669 31.5234 11.0903L31.9751 8.16064C32.1053 7.13525 32.3535 6.15869 32.7197 5.23096C33.0859 4.30322 33.562 3.47721 34.1479 2.75293C34.742 2.02865 35.4663 1.46305 36.3208 1.05615C37.1753 0.641113 38.1681 0.445801 39.2993 0.470215C40.5688 0.486491 41.6024 0.750977 42.3999 1.26367C43.2056 1.76823 43.7915 2.47217 44.1577 3.37549C44.5321 4.27881 44.7111 5.33675 44.6948 6.54932L40.7886 6.5249C40.813 6.07731 40.8049 5.646 40.7642 5.23096C40.7235 4.81592 40.5851 4.47412 40.3491 4.20557C40.1213 3.92887 39.7306 3.77832 39.1772 3.75391C38.5913 3.72135 38.1112 3.84342 37.7368 4.12012C37.3625 4.38867 37.0614 4.75081 36.8335 5.20654C36.6138 5.66227 36.4469 6.15055 36.333 6.67139C36.2272 7.19222 36.1458 7.67643 36.0889 8.12402L35.6494 11.1025C35.6006 11.5094 35.5518 11.9611 35.5029 12.4575C35.4541 12.9458 35.4622 13.4178 35.5273 13.8735C35.5924 14.3211 35.7593 14.6914 36.0278 14.9844C36.3045 15.2773 36.7358 15.4279 37.3218 15.436C37.5741 15.4442 37.7856 15.4157 37.9565 15.3506C38.1356 15.2855 38.3105 15.2041 38.4814 15.1064C38.6523 15.0088 38.8436 14.9193 39.0552 14.8379L39.6289 11.9448H37.5659L38.0786 9.00293H44.1943ZM53.667 4.65723L48.1128 18.5H43.6206L52.019 0.726562H54.8511L53.667 4.65723ZM53.8135 18.5L53.0322 4.24219L53.1299 0.726562H55.8276L58.0737 18.5H53.8135ZM55.0708 11.8716L54.4849 15.1797H46.9897L47.5757 11.8716H55.0708Z" fill="#E59D48"/>
<path d="M73.7231 8.20947L73.3081 10.895C73.1616 11.9285 72.9012 12.9214 72.5269 13.8735C72.1606 14.8175 71.6724 15.6598 71.062 16.4004C70.4517 17.141 69.707 17.7269 68.8281 18.1582C67.9574 18.5814 66.9523 18.7767 65.813 18.7441C64.7225 18.7197 63.811 18.4837 63.0786 18.0361C62.3462 17.5885 61.7725 16.9985 61.3574 16.2661C60.9424 15.5256 60.6698 14.6995 60.5396 13.7881C60.4093 12.8685 60.4012 11.9285 60.5151 10.9683L60.918 8.27051C61.0645 7.26139 61.3208 6.28483 61.687 5.34082C62.0614 4.39681 62.5578 3.55452 63.1763 2.81396C63.7948 2.06527 64.5394 1.4834 65.4102 1.06836C66.2891 0.645182 67.2982 0.44987 68.4375 0.482422C69.5117 0.498698 70.411 0.730632 71.1353 1.17822C71.8677 1.62581 72.4414 2.21582 72.8564 2.94824C73.2796 3.68066 73.5563 4.50667 73.6865 5.42627C73.8249 6.33773 73.8371 7.26546 73.7231 8.20947ZM69.1821 10.9683L69.5972 8.23389C69.6379 7.88395 69.6826 7.46891 69.7314 6.98877C69.7803 6.50049 69.7803 6.02035 69.7314 5.54834C69.6826 5.07633 69.5402 4.67757 69.3042 4.35205C69.0682 4.02653 68.6898 3.85156 68.1689 3.82715C67.5505 3.78646 67.054 3.90853 66.6797 4.19336C66.3053 4.47005 66.0083 4.84033 65.7886 5.3042C65.577 5.75993 65.4183 6.25228 65.3125 6.78125C65.2067 7.30208 65.1213 7.79443 65.0562 8.2583L64.6533 10.9805C64.6126 11.3304 64.5638 11.7495 64.5068 12.2378C64.458 12.7179 64.4539 13.1981 64.4946 13.6782C64.5353 14.1584 64.6737 14.5612 64.9097 14.8867C65.1538 15.2122 65.5404 15.3872 66.0693 15.4116C66.6634 15.4442 67.1476 15.318 67.522 15.0332C67.9045 14.7484 68.2056 14.374 68.4253 13.9102C68.6532 13.4463 68.82 12.9539 68.9258 12.4331C69.0397 11.9041 69.1252 11.4159 69.1821 10.9683ZM87.1997 0.726562L86.626 4.03467H80.6812L78.1665 18.5H74.0894L77.1777 0.726562H87.1997ZM78.7036 6.84229L81.4014 6.8667C82.4837 6.89925 83.4318 7.15153 84.2456 7.62354C85.0675 8.09554 85.6901 8.75065 86.1133 9.58887C86.5446 10.4271 86.7236 11.3996 86.6504 12.5063C86.5771 13.4097 86.3493 14.2316 85.9668 14.9722C85.5924 15.7127 85.096 16.3475 84.4775 16.8765C83.859 17.4054 83.151 17.8123 82.3535 18.0972C81.5641 18.3739 80.7218 18.5081 79.8267 18.5H74.1016L77.1899 0.726562H81.2671L78.7646 15.2041L79.9731 15.2285C80.5021 15.2204 80.9416 15.082 81.2915 14.8135C81.6496 14.5449 81.9344 14.2072 82.146 13.8003C82.3657 13.3853 82.5041 12.9417 82.561 12.4697C82.618 12.1198 82.6221 11.7739 82.5732 11.4321C82.5326 11.0822 82.4064 10.7892 82.1948 10.5532C81.9914 10.3091 81.6862 10.1748 81.2793 10.1504L78.1299 10.1382L78.7036 6.84229ZM95.9033 12.2622L92.6074 12.25L91.4966 11.7251C90.3654 11.2043 89.5597 10.4881 89.0796 9.57666C88.5994 8.65706 88.4001 7.57878 88.4814 6.3418C88.571 5.14551 88.8924 4.12826 89.4458 3.29004C90.0073 2.45182 90.7438 1.81299 91.6553 1.37354C92.5749 0.934082 93.6287 0.714355 94.8169 0.714355L100.481 0.726562L97.4048 18.5H93.3276L95.8301 4.03467L94.6582 4.01025C93.8525 4.01839 93.3073 4.30322 93.0225 4.86475C92.7458 5.42627 92.5627 6.04883 92.4731 6.73242C92.4243 7.09049 92.3836 7.45671 92.3511 7.83105C92.3267 8.2054 92.3877 8.51872 92.5342 8.771C92.6888 9.02327 92.998 9.16569 93.4619 9.19824L96.416 9.21045L95.9033 12.2622ZM94.0601 10.6631L89.7266 18.5H85.1123L89.4092 10.6631H94.0601ZM107.097 10.9438H103.325L103.813 8.13623L106.499 8.16064C106.947 8.15251 107.341 8.06706 107.683 7.9043C108.033 7.74154 108.314 7.50553 108.525 7.19629C108.745 6.88704 108.892 6.50863 108.965 6.06104C109.022 5.68669 109.03 5.35303 108.989 5.06006C108.949 4.75895 108.826 4.51888 108.623 4.33984C108.428 4.15267 108.118 4.05501 107.695 4.04688L106.084 4.03467L103.557 18.5H99.5044L102.568 0.726562L107.83 0.73877C108.578 0.746908 109.282 0.852702 109.941 1.05615C110.601 1.25146 111.174 1.54443 111.663 1.93506C112.159 2.32568 112.537 2.8221 112.798 3.42432C113.058 4.01839 113.164 4.7264 113.115 5.54834C113.058 6.48421 112.818 7.26546 112.395 7.89209C111.972 8.51058 111.406 8.98258 110.698 9.30811C109.998 9.63363 109.201 9.81266 108.306 9.84521L107.097 10.9438ZM105.693 18.5H100.92L102.91 15.2041L105.84 15.2285C106.263 15.2122 106.621 15.1105 106.914 14.9233C107.207 14.728 107.439 14.4717 107.61 14.1543C107.789 13.8288 107.911 13.4707 107.976 13.0801C108.033 12.7952 108.066 12.4941 108.074 12.1768C108.09 11.8594 108.029 11.5868 107.891 11.3589C107.76 11.1229 107.508 10.9886 107.134 10.9561L103.862 10.9438L104.387 8.13623L107.769 8.14844L108.501 9.25928C109.282 9.28369 109.937 9.45459 110.466 9.77197C111.003 10.0894 111.402 10.5369 111.663 11.1147C111.931 11.6925 112.033 12.368 111.968 13.1411C111.895 14.3537 111.577 15.3587 111.016 16.1562C110.462 16.9538 109.726 17.5479 108.806 17.9385C107.887 18.3291 106.849 18.5163 105.693 18.5ZM118.279 11.6885L124.48 0.726562H128.655L125.579 18.5H121.489L123.406 7.55029L117.192 18.5H113.018L116.106 0.726562H120.195L118.279 11.6885Z" fill="white"/>
</g>
</svg>
