<svg width="18" height="19" viewBox="0 0 18 19" fill="none" xmlns="http://www.w3.org/2000/svg">
<g id="Vector">
<path d="M11.4436 12.6185L11.0285 13.0555C11.0285 13.0555 10.0418 14.0943 7.34865 11.2588C4.6555 8.42344 5.64216 7.38466 5.64216 7.38466L5.90356 7.10946C6.54753 6.4315 6.60823 5.34305 6.0464 4.54843L4.89715 2.92297C4.20177 1.93948 2.85809 1.80956 2.06107 2.64867L0.630545 4.15475C0.235347 4.57082 -0.0294852 5.11017 0.00263228 5.70849C0.0847943 7.23919 0.738873 10.5325 4.38868 14.3752C8.25913 18.45 11.8908 18.612 13.3759 18.4654C13.8456 18.419 14.2541 18.1657 14.5833 17.8191L15.878 16.4561C16.7519 15.536 16.5055 13.9587 15.3873 13.315L13.6461 12.3128C12.9119 11.8902 12.0174 12.0143 11.4436 12.6185Z" fill="#5FB865"/>
<path d="M9.35043 1.07305C9.41076 0.700389 9.76302 0.447596 10.1357 0.507921C10.1587 0.512341 10.233 0.526213 10.2718 0.534871C10.3497 0.552196 10.4581 0.578855 10.5934 0.618254C10.8639 0.697035 11.2418 0.826826 11.6953 1.03474C12.6033 1.45103 13.8116 2.17923 15.0655 3.43313C16.3194 4.68702 17.0476 5.89535 17.4638 6.80336C17.6718 7.25688 17.8016 7.63475 17.8803 7.90523C17.9197 8.04049 17.9464 8.14897 17.9637 8.22673C17.9724 8.26562 17.9788 8.29685 17.9831 8.31991L17.9884 8.34835C18.0487 8.72097 17.7982 9.0879 17.4256 9.14823C17.054 9.20838 16.7039 8.95675 16.6421 8.5859C16.6402 8.57588 16.6349 8.54918 16.6294 8.52393C16.6181 8.47344 16.5986 8.3934 16.5678 8.28753C16.5061 8.07579 16.3991 7.76106 16.2211 7.3731C15.8659 6.59813 15.227 5.52799 14.0988 4.3998C12.9707 3.27163 11.9005 2.63275 11.1256 2.27746C10.7376 2.0996 10.4229 1.99248 10.2111 1.9308C10.1052 1.89996 9.97218 1.86942 9.92169 1.85819C9.55076 1.79637 9.29028 1.44464 9.35043 1.07305Z" fill="#5FB865"/>
<path fill-rule="evenodd" clip-rule="evenodd" d="M9.55659 4.21687C9.6603 3.85388 10.0386 3.64369 10.4016 3.7474L10.2139 4.40465C10.4016 3.7474 10.4016 3.7474 10.4016 3.7474L10.403 3.74779L10.4074 3.74907L10.4145 3.75118L10.4325 3.7568C10.4462 3.76119 10.4634 3.76692 10.4838 3.77418C10.5248 3.78871 10.5789 3.80936 10.6452 3.83779C10.778 3.8947 10.9594 3.98258 11.1823 4.11447C11.6284 4.37848 12.2374 4.81702 12.9528 5.53244C13.6682 6.24786 14.1067 6.85684 14.3707 7.30294C14.5026 7.52578 14.5905 7.7072 14.6474 7.83998C14.6759 7.90633 14.6966 7.96043 14.7111 8.00136C14.7184 8.02182 14.724 8.03899 14.7285 8.05273L14.734 8.07077L14.7361 8.07783L14.737 8.08086L14.7374 8.08227C14.7374 8.08227 14.7379 8.08358 14.0806 8.27136L14.7379 8.08358C14.8416 8.44656 14.6313 8.82487 14.2684 8.92859C13.9085 9.03139 13.5334 8.82569 13.426 8.46836L13.4226 8.45854C13.4178 8.44484 13.4078 8.41788 13.3909 8.37851C13.3572 8.29982 13.296 8.1711 13.1943 7.99922C12.9911 7.65586 12.6241 7.13705 11.9861 6.49912C11.3482 5.86119 10.8293 5.49417 10.486 5.29096C10.3141 5.18923 10.1854 5.12807 10.1067 5.09435C10.0673 5.07748 10.0404 5.06742 10.0267 5.06256L10.0168 5.0592C9.65957 4.95176 9.45378 4.57677 9.55659 4.21687Z" fill="#5FB865"/>
</g>
</svg>
