<svg width="16" height="16" viewBox="0 0 16 16" fill="none" xmlns="http://www.w3.org/2000/svg">
<g id="Vector">
<path fill-rule="evenodd" clip-rule="evenodd" d="M8.20706 15.5C4.07184 15.5 0.708008 12.1351 0.708008 8C0.708008 3.86485 4.07184 0.5 8.20706 0.5C12.3432 0.5 15.708 3.86485 15.708 8C15.708 12.1351 12.3432 15.5 8.20706 15.5ZM8.20801 2.375C5.10566 2.375 2.58301 4.8983 2.58301 8C2.58301 11.1017 5.10658 13.625 8.20801 13.625C11.3094 13.625 13.833 11.1017 13.833 8C13.833 4.8983 11.3104 2.375 8.20801 2.375Z" fill="white"/>
<path fill-rule="evenodd" clip-rule="evenodd" d="M8.20051 6.125C6.02926 6.125 4.35863 6.87219 3.54957 8.32437C3.58426 8.76781 3.69395 9.19438 3.86457 9.59188C5.00926 8.98063 7.19363 11.3075 6.50644 12.3434C7.05019 12.5347 7.57613 12.6762 8.19113 12.6762C8.79582 12.6762 9.42582 12.5656 9.9602 12.3809C9.27207 11.345 11.3899 9.06687 12.5421 9.69125C12.7183 9.28062 12.8318 8.84188 12.8646 8.3825C12.0471 6.94531 10.3577 6.125 8.20051 6.125ZM8.20988 9.08375C7.62394 9.08375 7.15332 8.60563 7.15332 8.01406C7.15332 7.4225 7.62394 6.94438 8.20988 6.94438C8.79019 6.94438 9.26269 7.4225 9.26269 8.01406C9.26269 8.60563 8.79019 9.08375 8.20988 9.08375Z" fill="white"/>
</g>
</svg>
