<svg width="64" height="20" viewBox="0 0 64 20" fill="none" xmlns="http://www.w3.org/2000/svg">
<g id="Group 15">
<g id="yt">
<path d="M9.76373 5.58688H19.665V15.7183H9.76373V5.58688Z" fill="white"/>
<path fill-rule="evenodd" clip-rule="evenodd" d="M11.8408 13.6944V5.67757C14.6868 7.01675 16.891 8.31043 19.4979 9.70519C17.3478 10.8976 14.6868 12.2356 11.8408 13.6944ZM27.7016 1.6904C27.2106 1.0436 26.3739 0.540127 25.4831 0.373441C22.8648 -0.123773 6.53012 -0.125187 3.91321 0.373441C3.19886 0.507355 2.56276 0.831046 2.01633 1.33396C-0.286092 3.47096 0.435377 14.931 0.990349 16.7874C1.22372 17.5909 1.52541 18.1704 1.90535 18.5507C2.39487 19.0536 3.06509 19.3999 3.83494 19.5552C5.99079 20.0011 17.0973 20.2505 25.4376 19.6222C26.206 19.4883 26.8862 19.1308 27.4226 18.6066C29.5514 16.4781 29.4063 4.37447 27.7016 1.6904Z" fill="#B62920"/>
</g>
<g id="fb">
<path d="M51.5092 1.75595H61.4105V20H51.5092V1.75595Z" fill="white"/>
<path d="M46.2222 0H61.7778C62.3671 0 62.9324 0.234126 63.3491 0.650874C63.7659 1.06762 64 1.63285 64 2.22222V17.7778C64 18.3671 63.7659 18.9324 63.3491 19.3491C62.9324 19.7659 62.3671 20 61.7778 20H46.2222C45.6329 20 45.0676 19.7659 44.6509 19.3491C44.2341 18.9324 44 18.3671 44 17.7778V2.22222C44 1.63285 44.2341 1.06762 44.6509 0.650874C45.0676 0.234126 45.6329 0 46.2222 0ZM60.6667 2.22222H57.8889C56.8575 2.22222 55.8683 2.63194 55.139 3.36125C54.4097 4.09056 54 5.07971 54 6.11111V8.88889H51.7778V12.2222H54V20H57.3333V12.2222H60.6667V8.88889H57.3333V6.66667C57.3333 6.37198 57.4504 6.08937 57.6588 5.88099C57.8671 5.67262 58.1498 5.55556 58.4444 5.55556H60.6667V2.22222Z" fill="#3C88E7"/>
</g>
</g>
</svg>
