<svg width="1179" height="687" viewBox="0 0 1179 687" fill="none" xmlns="http://www.w3.org/2000/svg">
    <defs>


        <filter id="filter0_d_240_2037" x="0.849609" y="0.811432" width="97.8516" height="105.087" filterUnits="userSpaceOnUse" color-interpolation-filters="sRGB">
            <feFlood flood-opacity="0" result="BackgroundImageFix"></feFlood>
            <feColorMatrix in="SourceAlpha" type="matrix" values="0 0 0 0 0 0 0 0 0 0 0 0 0 0 0 0 0 0 127 0" result="hardAlpha"></feColorMatrix>
            <feOffset></feOffset>
            <feGaussianBlur stdDeviation="10"></feGaussianBlur>
            <feColorMatrix type="matrix" values="0 0 0 0 0 0 0 0 0 0 0 0 0 0 0 0 0 0 0.3 0"></feColorMatrix>
            <feBlend mode="normal" in2="BackgroundImageFix" result="effect1_dropShadow_240_2037"></feBlend>
            <feBlend mode="normal" in="SourceGraphic" in2="effect1_dropShadow_240_2037" result="shape"></feBlend>
        </filter>
    </defs>
    <g filter="url(#filter0_d_240_2037)" transform="matrix(1, 0, 0, 1, 140.675478, 221.024036)">
        <path d="M78.7012 49.7372C78.7012 65.7125 65.7507 78.663 49.7754 78.663C33.8001 78.663 20.8496 65.7125 20.8496 49.7372C20.8496 33.762 33.8001 20.8114 49.7754 20.8114C65.7507 20.8114 78.7012 33.762 78.7012 49.7372Z" fill="#008AEE"></path>
        <path d="M50.5845 85.5273C50.1588 86.0227 49.3919 86.0227 48.9663 85.5273L42.0894 77.5218C41.4953 76.8301 41.9867 75.7602 42.8985 75.7602H56.6523C57.5641 75.7602 58.0555 76.8301 57.4613 77.5218L50.5845 85.5273Z" fill="#008AEE"></path>
    </g>
    <path fill-rule="evenodd" clip-rule="evenodd" d="M 186.71 253.5 C 187.917 253.239 189.167 253.101 190.451 253.101 C 191.879 253.101 193.268 253.272 194.598 253.592 L 194.598 255.996 C 195.877 256.355 197.089 256.875 198.208 257.536 L 199.898 255.845 C 202.142 257.272 204.042 259.195 205.445 261.458 L 203.752 263.153 C 204.389 264.267 204.891 265.467 205.233 266.734 L 207.629 266.734 C 207.93 268.027 208.091 269.376 208.091 270.761 C 208.091 272.091 207.943 273.385 207.665 274.63 L 205.279 274.63 C 204.945 275.917 204.445 277.137 203.809 278.269 L 205.505 279.968 C 204.117 282.241 202.229 284.174 199.993 285.616 L 198.308 283.929 C 197.159 284.616 195.915 285.156 194.598 285.526 L 194.598 287.93 C 193.268 288.251 191.879 288.422 190.451 288.422 C 189.167 288.422 187.917 288.283 186.71 288.022 L 186.71 285.638 C 186.058 285.473 185.424 285.266 184.807 285.021 L 187.551 282.274 C 188.48 282.507 189.451 282.633 190.451 282.633 C 196.999 282.633 202.309 277.318 202.309 270.761 C 202.309 264.204 196.999 258.89 190.451 258.89 C 183.901 258.89 178.592 264.204 178.592 270.761 C 178.592 271.827 178.736 272.859 178.997 273.842 L 176.271 276.572 C 176.014 275.945 175.795 275.297 175.623 274.63 L 173.237 274.63 C 172.959 273.385 172.811 272.091 172.811 270.761 C 172.811 269.376 172.971 268.027 173.272 266.734 L 175.667 266.734 C 176.038 265.369 176.589 264.08 177.3 262.895 L 175.612 261.207 C 177.053 258.97 178.983 257.079 181.254 255.688 L 182.95 257.387 C 184.118 256.73 185.38 256.219 186.71 255.885 L 186.71 253.5 Z" fill="white"></path>
    <path fill-rule="evenodd" clip-rule="evenodd" d="M 190.822 263.314 C 191.536 263.314 192.251 263.42 192.94 263.632 L 188.407 268.17 L 189.412 271.923 L 193.161 272.929 L 197.694 268.391 C 197.87 268.966 197.973 269.559 198.003 270.155 L 198.012 270.513 C 198.012 272.252 197.386 273.991 196.134 275.362 L 195.907 275.6 C 194.022 277.487 191.351 278.107 188.95 277.46 L 188.684 277.383 L 179.551 286.516 C 177.767 285.406 176.233 283.929 175.055 282.191 L 174.808 281.815 L 183.959 272.652 C 183.22 270.269 183.745 267.577 185.536 265.633 L 185.74 265.42 C 187.065 264.094 188.779 263.394 190.515 263.32 L 190.822 263.314 Z" fill="white"></path>
    <g filter="url(#filter0_d_240_2037)" transform="matrix(1, 0, 0, 1, 1001.358719, 121.284555)">
        <path d="M78.7012 49.7372C78.7012 65.7125 65.7507 78.663 49.7754 78.663C33.8001 78.663 20.8496 65.7125 20.8496 49.7372C20.8496 33.762 33.8001 20.8114 49.7754 20.8114C65.7507 20.8114 78.7012 33.762 78.7012 49.7372Z" fill="#008AEE"></path>
        <path d="M50.5845 85.5273C50.1588 86.0227 49.3919 86.0227 48.9663 85.5273L42.0894 77.5218C41.4953 76.8301 41.9867 75.7602 42.8985 75.7602H56.6523C57.5641 75.7602 58.0555 76.8301 57.4613 77.5218L50.5845 85.5273Z" fill="#008AEE"></path>
    </g>
    <path fill-rule="evenodd" clip-rule="evenodd" d="M 1047.394 153.76 C 1048.601 153.499 1049.851 153.361 1051.135 153.361 C 1052.563 153.361 1053.952 153.532 1055.282 153.852 L 1055.282 156.256 C 1056.561 156.615 1057.773 157.135 1058.892 157.796 L 1060.582 156.105 C 1062.826 157.532 1064.726 159.455 1066.129 161.718 L 1064.436 163.413 C 1065.073 164.527 1065.575 165.727 1065.917 166.994 L 1068.313 166.994 C 1068.614 168.287 1068.775 169.636 1068.775 171.021 C 1068.775 172.351 1068.627 173.645 1068.349 174.89 L 1065.963 174.89 C 1065.629 176.177 1065.129 177.397 1064.493 178.529 L 1066.189 180.228 C 1064.801 182.501 1062.913 184.434 1060.677 185.876 L 1058.992 184.189 C 1057.843 184.876 1056.599 185.416 1055.282 185.786 L 1055.282 188.19 C 1053.952 188.511 1052.563 188.682 1051.135 188.682 C 1049.851 188.682 1048.601 188.543 1047.394 188.282 L 1047.394 185.898 C 1046.742 185.733 1046.108 185.526 1045.491 185.281 L 1048.235 182.534 C 1049.164 182.767 1050.135 182.893 1051.135 182.893 C 1057.683 182.893 1062.993 177.578 1062.993 171.021 C 1062.993 164.464 1057.683 159.15 1051.135 159.15 C 1044.585 159.15 1039.276 164.464 1039.276 171.021 C 1039.276 172.087 1039.42 173.119 1039.681 174.102 L 1036.955 176.832 C 1036.698 176.205 1036.479 175.557 1036.307 174.89 L 1033.921 174.89 C 1033.643 173.645 1033.495 172.351 1033.495 171.021 C 1033.495 169.636 1033.655 168.287 1033.956 166.994 L 1036.351 166.994 C 1036.722 165.629 1037.273 164.34 1037.984 163.155 L 1036.296 161.467 C 1037.737 159.23 1039.667 157.339 1041.938 155.948 L 1043.634 157.647 C 1044.802 156.99 1046.064 156.479 1047.394 156.145 L 1047.394 153.76 Z" fill="white"></path>
    <path fill-rule="evenodd" clip-rule="evenodd" d="M 1051.506 163.574 C 1052.22 163.574 1052.935 163.68 1053.624 163.892 L 1049.091 168.43 L 1050.096 172.183 L 1053.845 173.189 L 1058.378 168.651 C 1058.554 169.226 1058.657 169.819 1058.687 170.415 L 1058.696 170.773 C 1058.696 172.512 1058.07 174.251 1056.818 175.622 L 1056.591 175.86 C 1054.706 177.747 1052.035 178.367 1049.634 177.72 L 1049.368 177.643 L 1040.235 186.776 C 1038.451 185.666 1036.917 184.189 1035.739 182.451 L 1035.492 182.075 L 1044.643 172.912 C 1043.904 170.529 1044.429 167.837 1046.22 165.893 L 1046.424 165.68 C 1047.749 164.354 1049.463 163.654 1051.199 163.58 L 1051.506 163.574 Z" fill="white"></path>
</svg>