<?xml version="1.0" encoding="utf-8"?>
<svg viewBox="0 0 1179 687" fill="none" xmlns="http://www.w3.org/2000/svg">
  <defs>
    <filter id="filter0_d_240_2037" x="0.849609" y="0.811432" width="97.8516" height="105.087" filterUnits="userSpaceOnUse" color-interpolation-filters="sRGB">
      <feFlood flood-opacity="0" result="BackgroundImageFix"/>
      <feColorMatrix in="SourceAlpha" type="matrix" values="0 0 0 0 0 0 0 0 0 0 0 0 0 0 0 0 0 0 127 0" result="hardAlpha"/>
      <feOffset/>
      <feGaussianBlur stdDeviation="10"/>
      <feColorMatrix type="matrix" values="0 0 0 0 0 0 0 0 0 0 0 0 0 0 0 0 0 0 0.3 0"/>
      <feBlend mode="normal" in2="BackgroundImageFix" result="effect1_dropShadow_240_2037"/>
      <feBlend mode="normal" in="SourceGraphic" in2="effect1_dropShadow_240_2037" result="shape"/>
    </filter>
    <linearGradient id="paint0_linear_240_1967" x1="345.754" y1="49.506" x2="49.2439" y2="49.5059" gradientUnits="userSpaceOnUse" gradientTransform="matrix(1, 0, 0, 1, 73.657426, 180.406497)">
      <stop stop-color="#008AEE"/>
      <stop offset="1" stop-color="#006DBB"/>
    </linearGradient>
    <filter id="filter0_d_240_1967" x="0.24646" y="0.922073" width="97.8516" height="105.087" filterUnits="userSpaceOnUse" color-interpolation-filters="sRGB">
      <feFlood flood-opacity="0" result="BackgroundImageFix"/>
      <feColorMatrix in="SourceAlpha" type="matrix" values="0 0 0 0 0 0 0 0 0 0 0 0 0 0 0 0 0 0 127 0" result="hardAlpha"/>
      <feOffset/>
      <feGaussianBlur stdDeviation="10"/>
      <feColorMatrix type="matrix" values="0 0 0 0 0 0 0 0 0 0 0 0 0 0 0 0 0 0 0.3 0"/>
      <feBlend mode="normal" in2="BackgroundImageFix" result="effect1_dropShadow_240_1967"/>
      <feBlend mode="normal" in="SourceGraphic" in2="effect1_dropShadow_240_1967" result="shape"/>
    </filter>
    <linearGradient id="paint0_linear_240_2024" x1="0.847047" y1="49.3174" x2="297.357" y2="49.3174" gradientUnits="userSpaceOnUse" gradientTransform="matrix(1, 0, 0, 1, 527.304085, 92.893022)">
      <stop stop-color="#008AEE"/>
      <stop offset="1" stop-color="#006DBB"/>
    </linearGradient>
    <filter id="filter0_d_240_2024" x="248.431" y="0.73349" width="97.8516" height="105.087" filterUnits="userSpaceOnUse" color-interpolation-filters="sRGB">
      <feFlood flood-opacity="0" result="BackgroundImageFix"/>
      <feColorMatrix in="SourceAlpha" type="matrix" values="0 0 0 0 0 0 0 0 0 0 0 0 0 0 0 0 0 0 127 0" result="hardAlpha"/>
      <feOffset/>
      <feGaussianBlur stdDeviation="10"/>
      <feColorMatrix type="matrix" values="0 0 0 0 0 0 0 0 0 0 0 0 0 0 0 0 0 0 0.3 0"/>
      <feBlend mode="normal" in2="BackgroundImageFix" result="effect1_dropShadow_240_2024"/>
      <feBlend mode="normal" in="SourceGraphic" in2="effect1_dropShadow_240_2024" result="shape"/>
    </filter>
  </defs>
  <g filter="url(#filter0_d_240_2037)" transform="matrix(1, 0, 0, 1, 145.40457369990008, 218.4447359210958)">
    <path d="M78.7012 49.7372C78.7012 65.7125 65.7507 78.663 49.7754 78.663C33.8001 78.663 20.8496 65.7125 20.8496 49.7372C20.8496 33.762 33.8001 20.8114 49.7754 20.8114C65.7507 20.8114 78.7012 33.762 78.7012 49.7372Z" fill="#008AEE"/>
    <path d="M50.5845 85.5273C50.1588 86.0227 49.3919 86.0227 48.9663 85.5273L42.0894 77.5218C41.4953 76.8301 41.9867 75.7602 42.8985 75.7602H56.6523C57.5641 75.7602 58.0555 76.8301 57.4613 77.5218L50.5845 85.5273Z" fill="#008AEE"/>
  </g>
  <path fill-rule="evenodd" clip-rule="evenodd" d="M 191.44 250.921 C 192.646 250.66 193.896 250.522 195.18 250.522 C 196.609 250.522 197.998 250.693 199.327 251.013 L 199.327 253.417 C 200.606 253.776 201.818 254.296 202.937 254.957 L 204.627 253.265 C 206.871 254.693 208.772 256.615 210.175 258.878 L 208.481 260.574 C 209.118 261.688 209.62 262.888 209.962 264.155 L 212.358 264.155 C 212.66 265.448 212.82 266.797 212.82 268.182 C 212.82 269.511 212.672 270.806 212.395 272.051 L 210.009 272.051 C 209.674 273.338 209.175 274.558 208.538 275.69 L 210.235 277.389 C 208.847 279.662 206.959 281.595 204.723 283.037 L 203.037 281.35 C 201.889 282.037 200.644 282.577 199.327 282.947 L 199.327 285.351 C 197.998 285.672 196.609 285.843 195.18 285.843 C 193.896 285.843 192.646 285.704 191.44 285.443 L 191.44 283.058 C 190.787 282.894 190.153 282.687 189.537 282.441 L 192.28 279.695 C 193.209 279.928 194.18 280.054 195.18 280.054 C 201.729 280.054 207.038 274.739 207.038 268.182 C 207.038 261.625 201.729 256.31 195.18 256.31 C 188.63 256.31 183.322 261.625 183.322 268.182 C 183.322 269.248 183.465 270.28 183.727 271.262 L 181 273.993 C 180.743 273.366 180.525 272.718 180.352 272.051 L 177.966 272.051 C 177.688 270.806 177.54 269.511 177.54 268.182 C 177.54 266.797 177.7 265.448 178.001 264.155 L 180.396 264.155 C 180.767 262.79 181.319 261.501 182.029 260.315 L 180.342 258.628 C 181.782 256.391 183.712 254.5 185.984 253.109 L 187.68 254.808 C 188.848 254.151 190.109 253.64 191.44 253.306 L 191.44 250.921 Z" fill="white" transform="matrix(1, 0, 0, 1, 0, 2.1316282072803006e-14)"/>
  <path fill-rule="evenodd" clip-rule="evenodd" d="M 195.551 260.735 C 196.266 260.735 196.981 260.841 197.67 261.053 L 193.137 265.59 L 194.141 269.344 L 197.891 270.349 L 202.423 265.812 C 202.6 266.387 202.703 266.98 202.732 267.576 L 202.741 267.934 C 202.741 269.673 202.116 271.412 200.864 272.783 L 200.636 273.021 C 198.751 274.908 196.08 275.527 193.679 274.88 L 193.413 274.803 L 184.28 283.937 C 182.496 282.827 180.963 281.35 179.785 279.612 L 179.538 279.235 L 188.689 270.073 C 187.949 267.69 188.474 264.998 190.265 263.054 L 190.469 262.841 C 191.794 261.515 193.509 260.815 195.245 260.741 L 195.551 260.735 Z" fill="white" transform="matrix(1, 0, 0, 1, 0, 2.1316282072803006e-14)"/>
  <g filter="url(#filter0_d_240_2037)" transform="matrix(1, 0, 0, 1, 1001.3590847456318, 115.26590137579889)">
    <path d="M78.7012 49.7372C78.7012 65.7125 65.7507 78.663 49.7754 78.663C33.8001 78.663 20.8496 65.7125 20.8496 49.7372C20.8496 33.762 33.8001 20.8114 49.7754 20.8114C65.7507 20.8114 78.7012 33.762 78.7012 49.7372Z" fill="#008AEE"/>
    <path d="M50.5845 85.5273C50.1588 86.0227 49.3919 86.0227 48.9663 85.5273L42.0894 77.5218C41.4953 76.8301 41.9867 75.7602 42.8985 75.7602H56.6523C57.5641 75.7602 58.0555 76.8301 57.4613 77.5218L50.5845 85.5273Z" fill="#008AEE"/>
  </g>
  <path fill-rule="evenodd" clip-rule="evenodd" d="M 1047.394 147.742 C 1048.6 147.481 1049.85 147.343 1051.134 147.343 C 1052.563 147.343 1053.952 147.514 1055.281 147.834 L 1055.281 150.238 C 1056.56 150.597 1057.772 151.117 1058.891 151.778 L 1060.581 150.086 C 1062.825 151.514 1064.726 153.436 1066.129 155.699 L 1064.435 157.395 C 1065.072 158.509 1065.574 159.709 1065.916 160.976 L 1068.312 160.976 C 1068.614 162.269 1068.774 163.618 1068.774 165.003 C 1068.774 166.332 1068.626 167.627 1068.349 168.872 L 1065.963 168.872 C 1065.628 170.159 1065.129 171.379 1064.492 172.511 L 1066.189 174.21 C 1064.801 176.483 1062.913 178.416 1060.677 179.858 L 1058.991 178.171 C 1057.843 178.858 1056.598 179.398 1055.281 179.768 L 1055.281 182.172 C 1053.952 182.493 1052.563 182.664 1051.134 182.664 C 1049.85 182.664 1048.6 182.525 1047.394 182.264 L 1047.394 179.879 C 1046.741 179.715 1046.107 179.508 1045.491 179.262 L 1048.234 176.516 C 1049.163 176.749 1050.134 176.875 1051.134 176.875 C 1057.683 176.875 1062.992 171.56 1062.992 165.003 C 1062.992 158.446 1057.683 153.131 1051.134 153.131 C 1044.584 153.131 1039.276 158.446 1039.276 165.003 C 1039.276 166.069 1039.419 167.101 1039.681 168.083 L 1036.954 170.814 C 1036.697 170.187 1036.479 169.539 1036.306 168.872 L 1033.92 168.872 C 1033.642 167.627 1033.494 166.332 1033.494 165.003 C 1033.494 163.618 1033.654 162.269 1033.955 160.976 L 1036.35 160.976 C 1036.721 159.611 1037.273 158.322 1037.983 157.136 L 1036.296 155.449 C 1037.736 153.212 1039.666 151.321 1041.938 149.93 L 1043.634 151.629 C 1044.802 150.972 1046.063 150.461 1047.394 150.127 L 1047.394 147.742 Z" fill="white" transform="matrix(1, 0, 0, 1, 0, 2.1316282072803006e-14)"/>
  <path fill-rule="evenodd" clip-rule="evenodd" d="M 1051.505 157.556 C 1052.22 157.556 1052.935 157.662 1053.624 157.874 L 1049.091 162.411 L 1050.095 166.165 L 1053.845 167.17 L 1058.377 162.633 C 1058.554 163.208 1058.657 163.801 1058.686 164.397 L 1058.695 164.755 C 1058.695 166.494 1058.07 168.233 1056.818 169.604 L 1056.59 169.842 C 1054.705 171.729 1052.034 172.348 1049.633 171.701 L 1049.367 171.624 L 1040.234 180.758 C 1038.45 179.648 1036.917 178.171 1035.739 176.433 L 1035.492 176.056 L 1044.643 166.894 C 1043.903 164.511 1044.428 161.819 1046.219 159.875 L 1046.423 159.662 C 1047.748 158.336 1049.463 157.636 1051.199 157.562 L 1051.505 157.556 Z" fill="white" transform="matrix(1, 0, 0, 1, 0, 2.1316282072803006e-14)"/>
  <g transform="matrix(1, 0, 0, 1, 72.22525132038074, 38.69212780434084)">
    <path d="M 122.901 201.339 L 390.838 201.339 C 406.618 201.339 419.411 214.132 419.411 229.912 C 419.411 245.693 406.618 258.485 390.838 258.485 L 122.901 258.485 L 122.901 201.339 Z" fill="url(#paint0_linear_240_1967)"/>
    <path d="M 167.119 214.286 L 169.351 214.286 L 172.638 223.682 L 175.925 214.286 L 178.157 214.286 L 173.535 227.083 L 171.742 227.083 L 167.119 214.286 Z M 165.914 214.286 L 168.138 214.286 L 168.542 223.445 L 168.542 227.083 L 165.914 227.083 L 165.914 214.286 Z M 177.138 214.286 L 179.37 214.286 L 179.37 227.083 L 176.733 227.083 L 176.733 223.445 L 177.138 214.286 Z M 190.268 225.027 L 190.268 227.083 L 183.457 227.083 L 183.457 225.027 L 190.268 225.027 Z M 184.318 214.286 L 184.318 227.083 L 181.682 227.083 L 181.682 214.286 L 184.318 214.286 Z M 189.381 219.498 L 189.381 221.502 L 183.457 221.502 L 183.457 219.498 L 189.381 219.498 Z M 190.26 214.286 L 190.26 216.352 L 183.457 216.352 L 183.457 214.286 L 190.26 214.286 Z M 201.949 220.395 L 201.949 225.466 C 201.75 225.706 201.442 225.967 201.026 226.248 C 200.61 226.524 200.074 226.761 199.418 226.96 C 198.762 227.16 197.968 227.259 197.036 227.259 C 196.21 227.259 195.457 227.124 194.777 226.855 C 194.098 226.579 193.512 226.178 193.019 225.651 C 192.533 225.123 192.158 224.479 191.894 223.717 C 191.631 222.95 191.499 222.074 191.499 221.089 L 191.499 220.289 C 191.499 219.305 191.625 218.429 191.877 217.661 C 192.135 216.894 192.501 216.246 192.975 215.719 C 193.45 215.192 194.016 214.79 194.672 214.515 C 195.328 214.24 196.058 214.102 196.86 214.102 C 197.974 214.102 198.888 214.284 199.602 214.647 C 200.317 215.004 200.862 215.502 201.237 216.141 C 201.618 216.774 201.852 217.5 201.94 218.321 L 199.383 218.321 C 199.318 217.887 199.195 217.509 199.014 217.187 C 198.832 216.865 198.571 216.613 198.231 216.431 C 197.897 216.249 197.464 216.159 196.931 216.159 C 196.491 216.159 196.099 216.249 195.753 216.431 C 195.413 216.607 195.126 216.868 194.891 217.213 C 194.657 217.559 194.478 217.987 194.355 218.496 C 194.232 219.006 194.171 219.598 194.171 220.272 L 194.171 221.089 C 194.171 221.757 194.235 222.349 194.364 222.865 C 194.493 223.374 194.683 223.805 194.935 224.157 C 195.193 224.502 195.51 224.763 195.885 224.939 C 196.26 225.115 196.696 225.202 197.194 225.202 C 197.61 225.202 197.956 225.167 198.231 225.097 C 198.513 225.027 198.738 224.942 198.908 224.842 C 199.084 224.737 199.219 224.637 199.312 224.543 L 199.312 222.276 L 196.904 222.276 L 196.904 220.395 L 201.949 220.395 Z M 209.279 216.475 L 205.799 227.083 L 202.995 227.083 L 207.75 214.286 L 209.534 214.286 L 209.279 216.475 Z M 212.171 227.083 L 208.682 216.475 L 208.4 214.286 L 210.202 214.286 L 214.983 227.083 L 212.171 227.083 Z M 212.013 222.32 L 212.013 224.385 L 205.254 224.385 L 205.254 222.32 L 212.013 222.32 Z M 221.153 222.522 L 217.892 222.522 L 217.892 220.465 L 221.153 220.465 C 221.657 220.465 222.067 220.383 222.384 220.219 C 222.7 220.049 222.932 219.815 223.078 219.516 C 223.225 219.217 223.298 218.88 223.298 218.505 C 223.298 218.124 223.225 217.77 223.078 217.442 C 222.932 217.114 222.7 216.85 222.384 216.651 C 222.067 216.452 221.657 216.352 221.153 216.352 L 218.807 216.352 L 218.807 227.083 L 216.17 227.083 L 216.17 214.286 L 221.153 214.286 C 222.155 214.286 223.014 214.468 223.728 214.831 C 224.449 215.189 225 215.684 225.381 216.317 C 225.762 216.95 225.952 217.673 225.952 218.488 C 225.952 219.314 225.762 220.029 225.381 220.632 C 225 221.236 224.449 221.702 223.728 222.03 C 223.014 222.358 222.155 222.522 221.153 222.522 Z M 231.516 216.475 L 228.035 227.083 L 225.231 227.083 L 229.986 214.286 L 231.77 214.286 L 231.516 216.475 Z M 234.407 227.083 L 230.918 216.475 L 230.637 214.286 L 232.438 214.286 L 237.22 227.083 L 234.407 227.083 Z M 234.249 222.32 L 234.249 224.385 L 227.49 224.385 L 227.49 222.32 L 234.249 222.32 Z M 238.406 214.286 L 243.179 214.286 C 244.157 214.286 244.998 214.433 245.701 214.726 C 246.41 215.019 246.955 215.452 247.336 216.027 C 247.717 216.601 247.907 217.307 247.907 218.145 C 247.907 218.83 247.79 219.419 247.556 219.911 C 247.327 220.398 247.002 220.805 246.58 221.133 C 246.164 221.455 245.675 221.713 245.112 221.907 L 244.277 222.346 L 240.129 222.346 L 240.111 220.289 L 243.196 220.289 C 243.659 220.289 244.043 220.207 244.348 220.043 C 244.652 219.879 244.881 219.651 245.033 219.358 C 245.191 219.065 245.27 218.725 245.27 218.338 C 245.27 217.928 245.194 217.574 245.042 217.275 C 244.89 216.976 244.658 216.747 244.348 216.589 C 244.037 216.431 243.647 216.352 243.179 216.352 L 241.043 216.352 L 241.043 227.083 L 238.406 227.083 L 238.406 214.286 Z M 245.56 227.083 L 242.642 221.379 L 245.429 221.362 L 248.382 226.96 L 248.382 227.083 L 245.56 227.083 Z M 255.132 214.286 L 255.132 227.083 L 252.504 227.083 L 252.504 214.286 L 255.132 214.286 Z M 259.069 214.286 L 259.069 216.352 L 248.628 216.352 L 248.628 214.286 L 259.069 214.286 Z M 267.094 223.735 C 267.094 223.506 267.058 223.301 266.988 223.119 C 266.924 222.932 266.801 222.762 266.619 222.61 C 266.437 222.452 266.183 222.296 265.854 222.144 C 265.526 221.992 265.101 221.833 264.58 221.669 C 264 221.482 263.449 221.271 262.928 221.036 C 262.412 220.802 261.955 220.53 261.557 220.219 C 261.164 219.903 260.853 219.536 260.625 219.12 C 260.402 218.704 260.291 218.221 260.291 217.67 C 260.291 217.137 260.408 216.654 260.642 216.22 C 260.877 215.781 261.205 215.406 261.627 215.095 C 262.049 214.779 262.547 214.535 263.121 214.366 C 263.701 214.196 264.337 214.111 265.028 214.111 C 265.972 214.111 266.795 214.281 267.498 214.62 C 268.201 214.96 268.746 215.426 269.133 216.018 C 269.525 216.61 269.722 217.286 269.722 218.048 L 267.102 218.048 C 267.102 217.673 267.023 217.345 266.865 217.064 C 266.713 216.777 266.478 216.551 266.162 216.387 C 265.851 216.223 265.459 216.141 264.984 216.141 C 264.527 216.141 264.146 216.211 263.842 216.352 C 263.537 216.487 263.308 216.671 263.156 216.906 C 263.004 217.134 262.928 217.392 262.928 217.679 C 262.928 217.896 262.98 218.092 263.086 218.268 C 263.197 218.444 263.361 218.608 263.578 218.76 C 263.795 218.912 264.061 219.056 264.378 219.191 C 264.694 219.326 265.06 219.457 265.476 219.586 C 266.174 219.797 266.786 220.035 267.313 220.298 C 267.847 220.562 268.292 220.858 268.649 221.186 C 269.007 221.514 269.276 221.886 269.458 222.302 C 269.64 222.718 269.73 223.19 269.73 223.717 C 269.73 224.274 269.622 224.772 269.405 225.211 C 269.188 225.651 268.875 226.023 268.465 226.327 C 268.055 226.632 267.565 226.864 266.997 227.022 C 266.429 227.18 265.793 227.259 265.09 227.259 C 264.457 227.259 263.833 227.177 263.218 227.013 C 262.602 226.843 262.043 226.588 261.539 226.248 C 261.041 225.909 260.642 225.475 260.344 224.948 C 260.045 224.42 259.895 223.796 259.895 223.076 L 262.541 223.076 C 262.541 223.474 262.602 223.811 262.725 224.086 C 262.849 224.362 263.021 224.584 263.244 224.754 C 263.473 224.924 263.742 225.047 264.053 225.123 C 264.369 225.2 264.715 225.238 265.09 225.238 C 265.547 225.238 265.922 225.173 266.215 225.044 C 266.514 224.915 266.733 224.737 266.874 224.508 C 267.02 224.28 267.094 224.022 267.094 223.735 Z M 282.668 223.735 C 282.668 223.506 282.633 223.301 282.562 223.119 C 282.498 222.932 282.375 222.762 282.193 222.61 C 282.012 222.452 281.757 222.296 281.429 222.144 C 281.1 221.992 280.676 221.833 280.154 221.669 C 279.574 221.482 279.023 221.271 278.502 221.036 C 277.986 220.802 277.529 220.53 277.131 220.219 C 276.738 219.903 276.428 219.536 276.199 219.12 C 275.976 218.704 275.865 218.221 275.865 217.67 C 275.865 217.137 275.982 216.654 276.217 216.22 C 276.451 215.781 276.779 215.406 277.201 215.095 C 277.623 214.779 278.121 214.535 278.695 214.366 C 279.275 214.196 279.911 214.111 280.602 214.111 C 281.546 214.111 282.369 214.281 283.072 214.62 C 283.775 214.96 284.32 215.426 284.707 216.018 C 285.1 216.61 285.296 217.286 285.296 218.048 L 282.677 218.048 C 282.677 217.673 282.598 217.345 282.439 217.064 C 282.287 216.777 282.053 216.551 281.736 216.387 C 281.426 216.223 281.033 216.141 280.558 216.141 C 280.101 216.141 279.721 216.211 279.416 216.352 C 279.111 216.487 278.883 216.671 278.73 216.906 C 278.578 217.134 278.502 217.392 278.502 217.679 C 278.502 217.896 278.555 218.092 278.66 218.268 C 278.771 218.444 278.935 218.608 279.152 218.76 C 279.369 218.912 279.636 219.056 279.952 219.191 C 280.268 219.326 280.635 219.457 281.051 219.586 C 281.748 219.797 282.36 220.035 282.888 220.298 C 283.421 220.562 283.866 220.858 284.224 221.186 C 284.581 221.514 284.85 221.886 285.032 222.302 C 285.214 222.718 285.305 223.19 285.305 223.717 C 285.305 224.274 285.196 224.772 284.979 225.211 C 284.763 225.651 284.449 226.023 284.039 226.327 C 283.629 226.632 283.14 226.864 282.571 227.022 C 282.003 227.18 281.367 227.259 280.664 227.259 C 280.031 227.259 279.407 227.177 278.792 227.013 C 278.177 226.843 277.617 226.588 277.113 226.248 C 276.615 225.909 276.217 225.475 275.918 224.948 C 275.619 224.42 275.47 223.796 275.47 223.076 L 278.115 223.076 C 278.115 223.474 278.177 223.811 278.3 224.086 C 278.423 224.362 278.596 224.584 278.818 224.754 C 279.047 224.924 279.316 225.047 279.627 225.123 C 279.943 225.2 280.289 225.238 280.664 225.238 C 281.121 225.238 281.496 225.173 281.789 225.044 C 282.088 224.915 282.308 224.737 282.448 224.508 C 282.595 224.28 282.668 224.022 282.668 223.735 Z M 286.535 222.425 L 286.535 222.241 C 286.535 221.543 286.635 220.902 286.834 220.316 C 287.033 219.724 287.323 219.211 287.704 218.778 C 288.085 218.344 288.554 218.007 289.11 217.767 C 289.667 217.521 290.306 217.398 291.026 217.398 C 291.747 217.398 292.389 217.521 292.951 217.767 C 293.514 218.007 293.985 218.344 294.366 218.778 C 294.753 219.211 295.046 219.724 295.245 220.316 C 295.444 220.902 295.544 221.543 295.544 222.241 L 295.544 222.425 C 295.544 223.117 295.444 223.758 295.245 224.35 C 295.046 224.936 294.753 225.449 294.366 225.888 C 293.985 226.322 293.516 226.659 292.96 226.899 C 292.403 227.139 291.765 227.259 291.044 227.259 C 290.323 227.259 289.682 227.139 289.119 226.899 C 288.562 226.659 288.091 226.322 287.704 225.888 C 287.323 225.449 287.033 224.936 286.834 224.35 C 286.635 223.758 286.535 223.117 286.535 222.425 Z M 289.066 222.241 L 289.066 222.425 C 289.066 222.824 289.101 223.196 289.172 223.541 C 289.242 223.887 289.353 224.192 289.506 224.455 C 289.664 224.713 289.869 224.915 290.121 225.062 C 290.373 225.208 290.681 225.282 291.044 225.282 C 291.395 225.282 291.697 225.208 291.949 225.062 C 292.201 224.915 292.403 224.713 292.556 224.455 C 292.708 224.192 292.819 223.887 292.89 223.541 C 292.966 223.196 293.004 222.824 293.004 222.425 L 293.004 222.241 C 293.004 221.854 292.966 221.491 292.89 221.151 C 292.819 220.805 292.705 220.5 292.547 220.237 C 292.394 219.967 292.192 219.756 291.94 219.604 C 291.688 219.452 291.384 219.375 291.026 219.375 C 290.669 219.375 290.364 219.452 290.112 219.604 C 289.866 219.756 289.664 219.967 289.506 220.237 C 289.353 220.5 289.242 220.805 289.172 221.151 C 289.101 221.491 289.066 221.854 289.066 222.241 Z M 300.264 227.083 L 297.724 227.083 L 297.724 217.143 C 297.724 216.334 297.888 215.652 298.216 215.095 C 298.55 214.538 299.024 214.117 299.64 213.829 C 300.261 213.542 301.011 213.399 301.89 213.399 C 302.388 213.399 302.871 213.449 303.34 213.548 C 303.808 213.642 304.292 213.765 304.79 213.917 L 304.421 215.948 C 304.099 215.848 303.753 215.754 303.384 215.666 C 303.015 215.578 302.569 215.535 302.048 215.535 C 301.462 215.535 301.016 215.672 300.712 215.948 C 300.413 216.217 300.264 216.616 300.264 217.143 L 300.264 227.083 Z M 302.153 217.574 L 302.153 219.367 L 296.308 219.367 L 296.308 217.574 L 302.153 217.574 Z M 305.968 217.574 L 305.968 227.083 L 303.428 227.083 L 303.428 217.574 L 305.968 217.574 Z M 313.219 224.939 L 313.219 220.702 C 313.219 220.398 313.169 220.137 313.069 219.92 C 312.97 219.698 312.814 219.525 312.603 219.402 C 312.398 219.279 312.132 219.217 311.804 219.217 C 311.522 219.217 311.279 219.267 311.074 219.367 C 310.869 219.46 310.711 219.598 310.6 219.78 C 310.488 219.955 310.433 220.163 310.433 220.404 L 307.901 220.404 C 307.901 219.999 307.995 219.616 308.183 219.252 C 308.37 218.889 308.642 218.57 309 218.294 C 309.357 218.013 309.782 217.793 310.274 217.635 C 310.772 217.477 311.329 217.398 311.944 217.398 C 312.683 217.398 313.339 217.521 313.913 217.767 C 314.487 218.013 314.938 218.382 315.266 218.874 C 315.6 219.367 315.767 219.982 315.767 220.72 L 315.767 224.789 C 315.767 225.311 315.8 225.739 315.864 226.073 C 315.929 226.401 316.022 226.688 316.145 226.934 L 316.145 227.083 L 313.588 227.083 C 313.465 226.826 313.371 226.503 313.307 226.117 C 313.248 225.724 313.219 225.331 313.219 224.939 Z M 313.553 221.291 L 313.57 222.724 L 312.155 222.724 C 311.821 222.724 311.531 222.762 311.285 222.838 C 311.039 222.914 310.837 223.023 310.679 223.163 C 310.52 223.298 310.403 223.456 310.327 223.638 C 310.257 223.82 310.222 224.019 310.222 224.236 C 310.222 224.452 310.271 224.649 310.371 224.825 C 310.471 224.994 310.614 225.129 310.802 225.229 C 310.989 225.323 311.209 225.369 311.461 225.369 C 311.842 225.369 312.173 225.293 312.454 225.141 C 312.735 224.989 312.952 224.801 313.104 224.578 C 313.263 224.356 313.345 224.145 313.35 223.946 L 314.018 225.018 C 313.925 225.258 313.796 225.507 313.632 225.765 C 313.474 226.023 313.271 226.266 313.025 226.494 C 312.779 226.717 312.483 226.902 312.138 227.048 C 311.792 227.189 311.382 227.259 310.907 227.259 C 310.304 227.259 309.756 227.139 309.264 226.899 C 308.777 226.653 308.391 226.316 308.103 225.888 C 307.822 225.454 307.682 224.962 307.682 224.411 C 307.682 223.913 307.775 223.471 307.963 223.084 C 308.15 222.698 308.426 222.372 308.789 222.109 C 309.158 221.839 309.618 221.637 310.169 221.502 C 310.72 221.362 311.358 221.291 312.085 221.291 L 313.553 221.291 Z" fill="white"/>
    <path d="M 168.194 245.503 L 170.491 237.972 L 172.506 237.972 L 169.116 247.714 C 169.037 247.923 168.936 248.149 168.811 248.394 C 168.686 248.639 168.522 248.871 168.319 249.089 C 168.121 249.313 167.873 249.493 167.577 249.628 C 167.28 249.769 166.92 249.839 166.498 249.839 C 166.332 249.839 166.17 249.824 166.014 249.792 C 165.863 249.766 165.72 249.738 165.584 249.707 L 165.577 248.269 C 165.629 248.274 165.691 248.279 165.764 248.285 C 165.842 248.29 165.905 248.292 165.952 248.292 C 166.264 248.292 166.524 248.253 166.733 248.175 C 166.941 248.102 167.11 247.983 167.241 247.816 C 167.376 247.649 167.491 247.425 167.584 247.144 L 168.194 245.503 Z M 166.897 237.972 L 168.905 244.3 L 169.241 246.285 L 167.936 246.621 L 164.866 237.972 L 166.897 237.972 Z M 178.935 237.972 L 178.935 239.472 L 174.81 239.472 L 174.81 237.972 L 178.935 237.972 Z M 180.412 237.972 L 180.412 246.425 L 178.529 246.425 L 178.529 237.972 L 180.412 237.972 Z M 174.35 237.972 L 176.209 237.972 L 175.982 242.152 C 175.951 242.772 175.889 243.319 175.795 243.792 C 175.706 244.261 175.586 244.665 175.435 245.003 C 175.284 245.337 175.1 245.608 174.881 245.816 C 174.662 246.024 174.407 246.178 174.115 246.277 C 173.823 246.376 173.496 246.425 173.131 246.425 L 172.545 246.425 L 172.537 244.878 L 172.834 244.855 C 173.027 244.839 173.194 244.79 173.334 244.707 C 173.475 244.618 173.595 244.493 173.693 244.332 C 173.797 244.17 173.881 243.962 173.943 243.707 C 174.011 243.451 174.063 243.149 174.1 242.8 C 174.141 242.451 174.172 242.045 174.193 241.582 L 174.35 237.972 Z M 182.49 245.488 C 182.49 245.196 182.589 244.951 182.787 244.753 C 182.985 244.55 183.253 244.449 183.592 244.449 C 183.935 244.449 184.204 244.55 184.396 244.753 C 184.594 244.951 184.693 245.196 184.693 245.488 C 184.693 245.779 184.594 246.024 184.396 246.222 C 184.204 246.42 183.935 246.519 183.592 246.519 C 183.253 246.519 182.985 246.42 182.787 246.222 C 182.589 246.024 182.49 245.779 182.49 245.488 Z M 195.303 241.285 L 192.404 241.285 L 192.389 239.855 L 194.92 239.855 C 195.347 239.855 195.709 239.792 196.006 239.667 C 196.308 239.537 196.537 239.352 196.693 239.113 C 196.85 238.868 196.928 238.574 196.928 238.23 C 196.928 237.85 196.855 237.54 196.709 237.3 C 196.563 237.061 196.339 236.886 196.037 236.777 C 195.74 236.667 195.36 236.613 194.896 236.613 L 192.998 236.613 L 192.998 246.425 L 191.037 246.425 L 191.037 235.05 L 194.896 235.05 C 195.521 235.05 196.079 235.11 196.568 235.23 C 197.063 235.35 197.482 235.537 197.826 235.792 C 198.175 236.042 198.438 236.36 198.615 236.746 C 198.797 237.131 198.889 237.589 198.889 238.121 C 198.889 238.589 198.777 239.019 198.553 239.41 C 198.329 239.795 197.998 240.11 197.56 240.355 C 197.123 240.6 196.579 240.746 195.928 240.792 L 195.303 241.285 Z M 195.217 246.425 L 191.787 246.425 L 192.67 244.871 L 195.217 244.871 C 195.659 244.871 196.029 244.798 196.326 244.652 C 196.623 244.501 196.844 244.295 196.99 244.035 C 197.141 243.769 197.217 243.459 197.217 243.105 C 197.217 242.735 197.152 242.415 197.021 242.144 C 196.891 241.868 196.685 241.657 196.404 241.511 C 196.123 241.36 195.756 241.285 195.303 241.285 L 193.1 241.285 L 193.115 239.855 L 195.982 239.855 L 196.428 240.394 C 197.053 240.415 197.566 240.553 197.967 240.808 C 198.373 241.063 198.675 241.394 198.873 241.8 C 199.071 242.207 199.17 242.644 199.17 243.113 C 199.17 243.837 199.011 244.444 198.693 244.933 C 198.381 245.423 197.93 245.795 197.342 246.05 C 196.753 246.3 196.045 246.425 195.217 246.425 Z M 205.725 244.73 L 205.725 240.699 C 205.725 240.397 205.67 240.136 205.56 239.917 C 205.451 239.699 205.284 239.529 205.06 239.41 C 204.842 239.29 204.566 239.23 204.232 239.23 C 203.925 239.23 203.659 239.282 203.435 239.386 C 203.211 239.49 203.037 239.631 202.912 239.808 C 202.787 239.985 202.725 240.186 202.725 240.41 L 200.85 240.41 C 200.85 240.076 200.93 239.753 201.092 239.441 C 201.253 239.128 201.488 238.85 201.795 238.605 C 202.102 238.36 202.469 238.167 202.896 238.027 C 203.323 237.886 203.803 237.816 204.334 237.816 C 204.969 237.816 205.532 237.923 206.021 238.136 C 206.516 238.35 206.904 238.673 207.185 239.105 C 207.472 239.532 207.615 240.069 207.615 240.714 L 207.615 244.472 C 207.615 244.858 207.641 245.204 207.693 245.511 C 207.751 245.813 207.831 246.076 207.935 246.3 L 207.935 246.425 L 206.006 246.425 C 205.917 246.222 205.847 245.964 205.795 245.652 C 205.748 245.334 205.725 245.027 205.725 244.73 Z M 205.998 241.285 L 206.014 242.449 L 204.662 242.449 C 204.313 242.449 204.006 242.483 203.74 242.55 C 203.475 242.613 203.253 242.707 203.076 242.832 C 202.899 242.957 202.766 243.108 202.678 243.285 C 202.589 243.462 202.545 243.662 202.545 243.886 C 202.545 244.11 202.597 244.316 202.701 244.503 C 202.805 244.686 202.956 244.829 203.154 244.933 C 203.357 245.037 203.602 245.089 203.889 245.089 C 204.274 245.089 204.61 245.011 204.896 244.855 C 205.188 244.694 205.417 244.498 205.584 244.269 C 205.751 244.035 205.839 243.813 205.85 243.605 L 206.459 244.441 C 206.396 244.654 206.29 244.884 206.139 245.128 C 205.988 245.373 205.79 245.608 205.545 245.832 C 205.305 246.05 205.016 246.23 204.678 246.371 C 204.344 246.511 203.959 246.582 203.521 246.582 C 202.969 246.582 202.477 246.472 202.045 246.253 C 201.613 246.029 201.274 245.73 201.029 245.355 C 200.784 244.975 200.662 244.545 200.662 244.066 C 200.662 243.618 200.745 243.222 200.912 242.878 C 201.084 242.529 201.334 242.238 201.662 242.003 C 201.995 241.769 202.402 241.592 202.881 241.472 C 203.36 241.347 203.907 241.285 204.521 241.285 L 205.998 241.285 Z M 213.037 245.082 C 213.344 245.082 213.62 245.022 213.865 244.902 C 214.115 244.777 214.316 244.605 214.467 244.386 C 214.623 244.167 214.709 243.915 214.725 243.628 L 216.498 243.628 C 216.488 244.175 216.326 244.673 216.014 245.121 C 215.701 245.569 215.287 245.925 214.771 246.191 C 214.256 246.451 213.685 246.582 213.06 246.582 C 212.415 246.582 211.852 246.472 211.373 246.253 C 210.894 246.029 210.495 245.722 210.178 245.332 C 209.86 244.941 209.62 244.49 209.459 243.98 C 209.303 243.47 209.225 242.923 209.225 242.339 L 209.225 242.066 C 209.225 241.483 209.303 240.936 209.459 240.425 C 209.62 239.91 209.86 239.457 210.178 239.066 C 210.495 238.675 210.894 238.371 211.373 238.152 C 211.852 237.928 212.412 237.816 213.053 237.816 C 213.73 237.816 214.323 237.951 214.834 238.222 C 215.344 238.488 215.745 238.86 216.037 239.339 C 216.334 239.813 216.488 240.365 216.498 240.996 L 214.725 240.996 C 214.709 240.683 214.631 240.402 214.49 240.152 C 214.355 239.897 214.162 239.694 213.912 239.542 C 213.667 239.391 213.373 239.316 213.029 239.316 C 212.649 239.316 212.334 239.394 212.084 239.55 C 211.834 239.701 211.639 239.91 211.498 240.175 C 211.357 240.436 211.256 240.73 211.193 241.058 C 211.136 241.381 211.107 241.717 211.107 242.066 L 211.107 242.339 C 211.107 242.688 211.136 243.027 211.193 243.355 C 211.251 243.683 211.35 243.977 211.49 244.238 C 211.636 244.493 211.834 244.699 212.084 244.855 C 212.334 245.006 212.652 245.082 213.037 245.082 Z M 219.889 243.675 L 223.209 237.972 L 225.092 237.972 L 225.092 246.425 L 223.209 246.425 L 223.209 240.714 L 219.889 246.425 L 218.006 246.425 L 218.006 237.972 L 219.889 237.972 L 219.889 243.675 Z M 232.764 237.972 L 232.764 239.472 L 228.639 239.472 L 228.639 237.972 L 232.764 237.972 Z M 234.24 237.972 L 234.24 246.425 L 232.357 246.425 L 232.357 237.972 L 234.24 237.972 Z M 228.178 237.972 L 230.037 237.972 L 229.81 242.152 C 229.779 242.772 229.717 243.319 229.623 243.792 C 229.534 244.261 229.415 244.665 229.264 245.003 C 229.113 245.337 228.928 245.608 228.709 245.816 C 228.49 246.024 228.235 246.178 227.943 246.277 C 227.652 246.376 227.323 246.425 226.959 246.425 L 226.373 246.425 L 226.365 244.878 L 226.662 244.855 C 226.855 244.839 227.021 244.79 227.162 244.707 C 227.303 244.618 227.422 244.493 227.521 244.332 C 227.626 244.17 227.709 243.962 227.771 243.707 C 227.839 243.451 227.891 243.149 227.928 242.8 C 227.969 242.451 228.001 242.045 228.021 241.582 L 228.178 237.972 Z M 247.873 235.05 L 247.873 236.613 L 242.42 236.613 L 242.42 235.05 L 247.873 235.05 Z M 249.373 235.05 L 249.373 246.425 L 247.412 246.425 L 247.412 235.05 L 249.373 235.05 Z M 242.029 235.05 L 243.975 235.05 L 243.701 240.699 C 243.665 241.527 243.594 242.256 243.49 242.886 C 243.386 243.516 243.245 244.056 243.068 244.503 C 242.891 244.951 242.667 245.319 242.396 245.605 C 242.126 245.886 241.8 246.095 241.42 246.23 C 241.045 246.36 240.605 246.425 240.1 246.425 L 239.6 246.425 L 239.6 244.871 L 239.904 244.847 C 240.18 244.826 240.417 244.761 240.615 244.652 C 240.818 244.537 240.99 244.371 241.131 244.152 C 241.271 243.928 241.389 243.639 241.482 243.285 C 241.576 242.931 241.649 242.498 241.701 241.988 C 241.758 241.477 241.8 240.881 241.826 240.199 L 242.029 235.05 Z M 255.264 246.582 C 254.639 246.582 254.073 246.48 253.568 246.277 C 253.068 246.069 252.641 245.779 252.287 245.41 C 251.938 245.04 251.67 244.605 251.482 244.105 C 251.295 243.605 251.201 243.066 251.201 242.488 L 251.201 242.175 C 251.201 241.514 251.297 240.915 251.49 240.378 C 251.683 239.842 251.951 239.384 252.295 239.003 C 252.639 238.618 253.045 238.324 253.514 238.121 C 253.982 237.917 254.49 237.816 255.037 237.816 C 255.641 237.816 256.17 237.917 256.623 238.121 C 257.076 238.324 257.451 238.61 257.748 238.98 C 258.05 239.345 258.274 239.779 258.42 240.285 C 258.571 240.79 258.646 241.347 258.646 241.957 L 258.646 242.761 L 252.115 242.761 L 252.115 241.41 L 256.787 241.41 L 256.787 241.261 C 256.777 240.923 256.709 240.605 256.584 240.308 C 256.464 240.011 256.279 239.772 256.029 239.589 C 255.779 239.407 255.446 239.316 255.029 239.316 C 254.717 239.316 254.438 239.384 254.193 239.519 C 253.954 239.649 253.753 239.839 253.592 240.089 C 253.43 240.339 253.305 240.641 253.217 240.996 C 253.133 241.345 253.092 241.738 253.092 242.175 L 253.092 242.488 C 253.092 242.858 253.141 243.201 253.24 243.519 C 253.344 243.832 253.495 244.105 253.693 244.339 C 253.891 244.574 254.131 244.759 254.412 244.894 C 254.693 245.024 255.014 245.089 255.373 245.089 C 255.826 245.089 256.23 244.998 256.584 244.816 C 256.938 244.634 257.245 244.376 257.506 244.042 L 258.498 245.003 C 258.316 245.269 258.079 245.524 257.787 245.769 C 257.495 246.009 257.139 246.204 256.717 246.355 C 256.3 246.506 255.816 246.582 255.264 246.582 Z M 264.225 242.808 L 261.521 242.808 L 261.506 241.48 L 263.725 241.48 C 264.089 241.48 264.389 241.444 264.623 241.371 C 264.863 241.298 265.04 241.188 265.154 241.042 C 265.269 240.891 265.326 240.709 265.326 240.496 C 265.326 240.319 265.292 240.165 265.225 240.035 C 265.157 239.899 265.053 239.79 264.912 239.707 C 264.777 239.618 264.605 239.556 264.396 239.519 C 264.193 239.477 263.956 239.457 263.685 239.457 L 262.146 239.457 L 262.146 246.425 L 260.264 246.425 L 260.264 237.972 L 263.685 237.972 C 264.227 237.972 264.714 238.019 265.146 238.113 C 265.584 238.207 265.956 238.35 266.264 238.542 C 266.571 238.735 266.805 238.98 266.967 239.277 C 267.133 239.569 267.217 239.912 267.217 240.308 C 267.217 240.569 267.159 240.813 267.045 241.042 C 266.935 241.272 266.771 241.475 266.553 241.652 C 266.334 241.829 266.066 241.975 265.748 242.089 C 265.43 242.199 265.066 242.266 264.654 242.292 L 264.225 242.808 Z M 264.225 246.425 L 260.975 246.425 L 261.725 244.941 L 264.225 244.941 C 264.558 244.941 264.834 244.899 265.053 244.816 C 265.271 244.733 265.433 244.613 265.537 244.457 C 265.646 244.295 265.701 244.105 265.701 243.886 C 265.701 243.662 265.649 243.47 265.545 243.308 C 265.441 243.147 265.279 243.024 265.06 242.941 C 264.847 242.852 264.568 242.808 264.225 242.808 L 262.076 242.808 L 262.092 241.48 L 264.646 241.48 L 265.185 241.996 C 265.722 242.032 266.167 242.147 266.521 242.339 C 266.876 242.532 267.141 242.774 267.318 243.066 C 267.495 243.358 267.584 243.675 267.584 244.019 C 267.584 244.415 267.508 244.764 267.357 245.066 C 267.211 245.368 266.993 245.621 266.701 245.824 C 266.415 246.022 266.063 246.173 265.646 246.277 C 265.23 246.376 264.756 246.425 264.225 246.425 Z M 272.662 245.082 C 272.969 245.082 273.245 245.022 273.49 244.902 C 273.74 244.777 273.941 244.605 274.092 244.386 C 274.248 244.167 274.334 243.915 274.35 243.628 L 276.123 243.628 C 276.113 244.175 275.951 244.673 275.639 245.121 C 275.326 245.569 274.912 245.925 274.396 246.191 C 273.881 246.451 273.31 246.582 272.685 246.582 C 272.04 246.582 271.477 246.472 270.998 246.253 C 270.519 246.029 270.12 245.722 269.803 245.332 C 269.485 244.941 269.245 244.49 269.084 243.98 C 268.928 243.47 268.85 242.923 268.85 242.339 L 268.85 242.066 C 268.85 241.483 268.928 240.936 269.084 240.425 C 269.245 239.91 269.485 239.457 269.803 239.066 C 270.12 238.675 270.519 238.371 270.998 238.152 C 271.477 237.928 272.037 237.816 272.678 237.816 C 273.355 237.816 273.948 237.951 274.459 238.222 C 274.969 238.488 275.37 238.86 275.662 239.339 C 275.959 239.813 276.113 240.365 276.123 240.996 L 274.35 240.996 C 274.334 240.683 274.256 240.402 274.115 240.152 C 273.98 239.897 273.787 239.694 273.537 239.542 C 273.292 239.391 272.998 239.316 272.654 239.316 C 272.274 239.316 271.959 239.394 271.709 239.55 C 271.459 239.701 271.264 239.91 271.123 240.175 C 270.982 240.436 270.881 240.73 270.818 241.058 C 270.761 241.381 270.732 241.717 270.732 242.066 L 270.732 242.339 C 270.732 242.688 270.761 243.027 270.818 243.355 C 270.876 243.683 270.975 243.977 271.115 244.238 C 271.261 244.493 271.459 244.699 271.709 244.855 C 271.959 245.006 272.277 245.082 272.662 245.082 Z M 279.6 237.972 L 279.6 246.425 L 277.717 246.425 L 277.717 237.972 L 279.6 237.972 Z M 285.115 237.972 L 281.31 243.058 L 279.162 243.058 L 278.912 241.355 L 280.482 241.355 L 282.764 237.972 L 285.115 237.972 Z M 282.912 246.425 L 280.365 242.738 L 281.85 241.667 L 285.389 246.425 L 282.912 246.425 Z M 288.357 243.675 L 291.678 237.972 L 293.56 237.972 L 293.56 246.425 L 291.678 246.425 L 291.678 240.714 L 288.357 246.425 L 286.475 246.425 L 286.475 237.972 L 288.357 237.972 L 288.357 243.675 Z M 313.709 242.058 L 313.709 243.175 L 308.982 243.175 L 308.982 242.058 L 313.709 242.058 Z M 308.662 238.324 L 308.662 237.675 C 308.662 237.139 308.771 236.665 308.99 236.253 C 309.214 235.837 309.527 235.511 309.928 235.277 C 310.329 235.042 310.803 234.925 311.35 234.925 C 311.907 234.925 312.383 235.042 312.779 235.277 C 313.18 235.511 313.49 235.837 313.709 236.253 C 313.928 236.665 314.037 237.139 314.037 237.675 L 314.037 238.324 C 314.037 238.86 313.928 239.334 313.709 239.746 C 313.495 240.157 313.188 240.48 312.787 240.714 C 312.391 240.949 311.917 241.066 311.365 241.066 C 310.813 241.066 310.334 240.949 309.928 240.714 C 309.527 240.48 309.214 240.157 308.99 239.746 C 308.771 239.334 308.662 238.86 308.662 238.324 Z M 309.975 237.675 L 309.975 238.324 C 309.975 238.641 310.024 238.923 310.123 239.167 C 310.222 239.412 310.376 239.605 310.584 239.746 C 310.792 239.886 311.053 239.957 311.365 239.957 C 311.672 239.957 311.928 239.886 312.131 239.746 C 312.334 239.605 312.485 239.412 312.584 239.167 C 312.683 238.923 312.732 238.641 312.732 238.324 L 312.732 237.675 C 312.732 237.363 312.68 237.084 312.576 236.839 C 312.477 236.595 312.326 236.402 312.123 236.261 C 311.92 236.115 311.662 236.042 311.35 236.042 C 311.042 236.042 310.784 236.115 310.576 236.261 C 310.373 236.402 310.222 236.595 310.123 236.839 C 310.024 237.084 309.975 237.363 309.975 237.675 Z M 307.568 235.05 L 307.568 246.425 L 305.498 246.425 L 301.584 238.277 L 301.584 246.425 L 299.693 246.425 L 299.693 235.05 L 301.764 235.05 L 305.685 243.214 L 305.685 235.05 L 307.568 235.05 Z M 320.896 235.011 L 320.896 246.425 L 319.014 246.425 L 319.014 237.246 L 316.225 238.191 L 316.225 236.636 L 320.67 235.011 L 320.896 235.011 Z M 332.475 244.925 L 332.475 246.425 L 324.85 246.425 L 324.85 245.136 L 328.553 241.097 C 328.959 240.639 329.279 240.243 329.514 239.91 C 329.748 239.576 329.912 239.277 330.006 239.011 C 330.105 238.74 330.154 238.477 330.154 238.222 C 330.154 237.863 330.086 237.548 329.951 237.277 C 329.821 237.001 329.628 236.785 329.373 236.628 C 329.118 236.467 328.808 236.386 328.443 236.386 C 328.021 236.386 327.667 236.477 327.381 236.66 C 327.094 236.842 326.878 237.095 326.732 237.417 C 326.586 237.735 326.514 238.1 326.514 238.511 L 324.631 238.511 C 324.631 237.85 324.782 237.246 325.084 236.699 C 325.386 236.147 325.823 235.709 326.396 235.386 C 326.969 235.058 327.659 234.894 328.467 234.894 C 329.227 234.894 329.873 235.022 330.404 235.277 C 330.935 235.532 331.339 235.894 331.615 236.363 C 331.896 236.832 332.037 237.386 332.037 238.027 C 332.037 238.381 331.98 238.733 331.865 239.082 C 331.751 239.431 331.586 239.779 331.373 240.128 C 331.165 240.472 330.917 240.819 330.631 241.167 C 330.344 241.511 330.029 241.86 329.685 242.214 L 327.225 244.925 L 332.475 244.925 Z M 336.154 239.886 L 337.279 239.886 C 337.717 239.886 338.079 239.811 338.365 239.66 C 338.657 239.509 338.873 239.3 339.014 239.035 C 339.154 238.769 339.225 238.464 339.225 238.121 C 339.225 237.761 339.159 237.454 339.029 237.199 C 338.904 236.938 338.711 236.738 338.451 236.597 C 338.196 236.457 337.87 236.386 337.475 236.386 C 337.141 236.386 336.839 236.454 336.568 236.589 C 336.303 236.72 336.092 236.907 335.935 237.152 C 335.779 237.391 335.701 237.678 335.701 238.011 L 333.81 238.011 C 333.81 237.407 333.969 236.871 334.287 236.402 C 334.605 235.933 335.037 235.566 335.584 235.3 C 336.136 235.029 336.756 234.894 337.443 234.894 C 338.178 234.894 338.818 235.016 339.365 235.261 C 339.917 235.501 340.347 235.86 340.654 236.339 C 340.961 236.819 341.115 237.412 341.115 238.121 C 341.115 238.444 341.04 238.772 340.889 239.105 C 340.738 239.438 340.514 239.743 340.217 240.019 C 339.92 240.29 339.55 240.511 339.107 240.683 C 338.665 240.85 338.152 240.933 337.568 240.933 L 336.154 240.933 L 336.154 239.886 Z M 336.154 241.355 L 336.154 240.324 L 337.568 240.324 C 338.235 240.324 338.803 240.402 339.271 240.558 C 339.745 240.714 340.131 240.931 340.428 241.207 C 340.725 241.477 340.941 241.787 341.076 242.136 C 341.217 242.485 341.287 242.855 341.287 243.246 C 341.287 243.777 341.191 244.251 340.998 244.667 C 340.81 245.079 340.542 245.428 340.193 245.714 C 339.844 246.001 339.435 246.217 338.967 246.363 C 338.503 246.509 337.998 246.582 337.451 246.582 C 336.961 246.582 336.493 246.514 336.045 246.378 C 335.597 246.243 335.196 246.042 334.842 245.777 C 334.488 245.506 334.206 245.17 333.998 244.769 C 333.795 244.363 333.693 243.894 333.693 243.363 L 335.576 243.363 C 335.576 243.701 335.654 244.001 335.81 244.261 C 335.972 244.516 336.196 244.717 336.482 244.863 C 336.774 245.009 337.107 245.082 337.482 245.082 C 337.878 245.082 338.219 245.011 338.506 244.871 C 338.792 244.73 339.011 244.522 339.162 244.246 C 339.318 243.97 339.396 243.636 339.396 243.246 C 339.396 242.803 339.31 242.444 339.139 242.167 C 338.967 241.891 338.722 241.688 338.404 241.558 C 338.086 241.423 337.711 241.355 337.279 241.355 L 336.154 241.355 Z" fill="#EDEDED"/>
    <path fill-rule="evenodd" clip-rule="evenodd" d="M 392.508 228.984 C 391.921 228.984 391.443 228.506 391.443 227.919 C 391.443 227.332 391.921 226.854 392.508 226.854 C 393.095 226.854 393.573 227.332 393.573 227.919 C 393.573 228.506 393.095 228.984 392.508 228.984 Z M 392.508 224.724 C 390.743 224.724 389.312 226.154 389.312 227.919 C 389.312 229.684 390.743 231.115 392.508 231.115 C 394.273 231.115 395.703 229.684 395.703 227.919 C 395.703 226.154 394.273 224.724 392.508 224.724 Z M 392.508 237.895 C 392.508 237.895 387.182 230.438 387.182 227.243 C 387.182 224.306 389.571 221.917 392.508 221.917 C 395.444 221.917 397.834 224.306 397.834 227.243 C 397.834 230.438 392.508 237.895 392.508 237.895 Z M 392.508 219.787 C 388.39 219.787 385.052 223.125 385.052 227.243 C 385.052 231.361 392.508 241.09 392.508 241.09 C 392.508 241.09 399.964 231.361 399.964 227.243 C 399.964 223.125 396.626 219.787 392.508 219.787 Z" fill="white"/>
    <g filter="url(#filter0_d_240_1967)" transform="matrix(1, 0, 0, 1, 73.657426, 180.406497)">
      <path d="M78.0981 49.8479C78.0981 65.8232 65.1476 78.7737 49.1723 78.7737C33.197 78.7737 20.2465 65.8232 20.2465 49.8479C20.2465 33.8726 33.197 20.9221 49.1723 20.9221C65.1476 20.9221 78.0981 33.8726 78.0981 49.8479Z" fill="#008AEE"/>
      <path d="M49.9813 85.6379C49.5557 86.1334 48.7888 86.1334 48.3632 85.6379L41.4863 77.6324C40.8921 76.9408 41.3835 75.8708 42.2953 75.8708H56.0491C56.9609 75.8708 57.4523 76.9408 56.8582 77.6324L49.9813 85.6379Z" fill="#008AEE"/>
    </g>
    <path fill-rule="evenodd" clip-rule="evenodd" d="M 119.089 212.993 C 120.296 212.732 121.546 212.594 122.83 212.594 C 124.258 212.594 125.647 212.765 126.977 213.085 L 126.977 215.489 C 128.256 215.848 129.468 216.368 130.587 217.029 L 132.277 215.337 C 134.521 216.765 136.421 218.687 137.824 220.95 L 136.131 222.646 C 136.768 223.76 137.27 224.96 137.612 226.227 L 140.008 226.227 C 140.309 227.52 140.47 228.869 140.47 230.254 C 140.47 231.584 140.322 232.878 140.044 234.123 L 137.658 234.123 C 137.324 235.41 136.824 236.63 136.188 237.762 L 137.884 239.461 C 136.496 241.734 134.608 243.667 132.373 245.109 L 130.687 243.422 C 129.538 244.109 128.294 244.649 126.977 245.019 L 126.977 247.423 C 125.647 247.744 124.258 247.915 122.83 247.915 C 121.546 247.915 120.296 247.776 119.089 247.515 L 119.089 245.13 C 118.437 244.966 117.803 244.759 117.186 244.513 L 119.93 241.767 C 120.859 242 121.83 242.126 122.83 242.126 C 129.378 242.126 134.688 236.811 134.688 230.254 C 134.688 223.697 129.378 218.382 122.83 218.382 C 116.28 218.382 110.971 223.697 110.971 230.254 C 110.971 231.32 111.115 232.352 111.376 233.334 L 108.65 236.065 C 108.393 235.438 108.174 234.79 108.002 234.123 L 105.616 234.123 C 105.338 232.878 105.19 231.584 105.19 230.254 C 105.19 228.869 105.35 227.52 105.651 226.227 L 108.046 226.227 C 108.417 224.862 108.968 223.573 109.679 222.388 L 107.991 220.7 C 109.432 218.463 111.362 216.572 113.633 215.181 L 115.329 216.88 C 116.497 216.223 117.759 215.712 119.089 215.378 L 119.089 212.993 Z" fill="white"/>
    <path fill-rule="evenodd" clip-rule="evenodd" d="M 123.201 222.807 C 123.915 222.807 124.63 222.913 125.319 223.125 L 120.786 227.662 L 121.791 231.416 L 125.54 232.421 L 130.073 227.884 C 130.249 228.459 130.352 229.052 130.382 229.648 L 130.391 230.006 C 130.391 231.745 129.765 233.484 128.513 234.855 L 128.286 235.093 C 126.401 236.98 123.73 237.599 121.329 236.952 L 121.063 236.875 L 111.93 246.009 C 110.146 244.899 108.612 243.422 107.434 241.684 L 107.187 241.307 L 116.338 232.145 C 115.599 229.762 116.124 227.07 117.915 225.126 L 118.119 224.913 C 119.444 223.587 121.158 222.887 122.894 222.813 L 123.201 222.807 Z" fill="white"/>
  </g>
  <g transform="matrix(1, 0, 0, 1, 226.13385346731326, 23.21525608323897)">
    <path d="M 824.661 113.637 L 556.724 113.637 C 540.944 113.637 528.151 126.43 528.151 142.21 C 528.151 157.991 540.944 170.783 556.724 170.783 L 824.661 170.783 L 824.661 113.637 Z" fill="url(#paint0_linear_240_2024)"/>
    <path d="M 572.368 126.584 L 574.601 126.584 L 577.888 135.98 L 581.175 126.584 L 583.407 126.584 L 578.784 139.381 L 576.991 139.381 L 572.368 126.584 Z M 571.164 126.584 L 573.388 126.584 L 573.792 135.743 L 573.792 139.381 L 571.164 139.381 L 571.164 126.584 Z M 582.388 126.584 L 584.62 126.584 L 584.62 139.381 L 581.983 139.381 L 581.983 135.743 L 582.388 126.584 Z M 595.519 137.325 L 595.519 139.381 L 588.707 139.381 L 588.707 137.325 L 595.519 137.325 Z M 589.568 126.584 L 589.568 139.381 L 586.932 139.381 L 586.932 126.584 L 589.568 126.584 Z M 594.631 131.796 L 594.631 133.8 L 588.707 133.8 L 588.707 131.796 L 594.631 131.796 Z M 595.51 126.584 L 595.51 128.65 L 588.707 128.65 L 588.707 126.584 L 595.51 126.584 Z M 607.199 132.693 L 607.199 137.764 C 607 138.004 606.692 138.265 606.276 138.546 C 605.86 138.822 605.324 139.059 604.668 139.258 C 604.012 139.458 603.218 139.557 602.286 139.557 C 601.46 139.557 600.707 139.422 600.027 139.153 C 599.348 138.877 598.762 138.476 598.27 137.949 C 597.783 137.421 597.408 136.777 597.145 136.015 C 596.881 135.248 596.749 134.372 596.749 133.387 L 596.749 132.587 C 596.749 131.603 596.875 130.727 597.127 129.959 C 597.385 129.192 597.751 128.544 598.226 128.017 C 598.7 127.49 599.266 127.088 599.922 126.813 C 600.578 126.538 601.308 126.4 602.11 126.4 C 603.224 126.4 604.138 126.582 604.853 126.945 C 605.567 127.302 606.112 127.8 606.487 128.439 C 606.868 129.072 607.103 129.798 607.191 130.619 L 604.633 130.619 C 604.568 130.185 604.445 129.807 604.264 129.485 C 604.082 129.163 603.821 128.911 603.482 128.729 C 603.148 128.547 602.714 128.457 602.181 128.457 C 601.741 128.457 601.349 128.547 601.003 128.729 C 600.663 128.905 600.376 129.166 600.142 129.511 C 599.907 129.857 599.729 130.285 599.606 130.794 C 599.483 131.304 599.421 131.896 599.421 132.57 L 599.421 133.387 C 599.421 134.055 599.485 134.647 599.614 135.163 C 599.743 135.672 599.934 136.103 600.186 136.455 C 600.443 136.8 600.76 137.061 601.135 137.237 C 601.51 137.413 601.946 137.501 602.444 137.501 C 602.86 137.501 603.206 137.465 603.482 137.395 C 603.763 137.325 603.988 137.24 604.158 137.14 C 604.334 137.035 604.469 136.935 604.563 136.841 L 604.563 134.574 L 602.154 134.574 L 602.154 132.693 L 607.199 132.693 Z M 614.529 128.773 L 611.049 139.381 L 608.245 139.381 L 613 126.584 L 614.784 126.584 L 614.529 128.773 Z M 617.421 139.381 L 613.932 128.773 L 613.65 126.584 L 615.452 126.584 L 620.233 139.381 L 617.421 139.381 Z M 617.263 134.618 L 617.263 136.683 L 610.504 136.683 L 610.504 134.618 L 617.263 134.618 Z M 626.403 134.82 L 623.143 134.82 L 623.143 132.763 L 626.403 132.763 C 626.907 132.763 627.317 132.681 627.634 132.517 C 627.95 132.347 628.182 132.113 628.328 131.814 C 628.475 131.515 628.548 131.178 628.548 130.803 C 628.548 130.422 628.475 130.068 628.328 129.74 C 628.182 129.412 627.95 129.148 627.634 128.949 C 627.317 128.75 626.907 128.65 626.403 128.65 L 624.057 128.65 L 624.057 139.381 L 621.42 139.381 L 621.42 126.584 L 626.403 126.584 C 627.405 126.584 628.264 126.766 628.979 127.129 C 629.699 127.487 630.25 127.982 630.631 128.615 C 631.012 129.248 631.202 129.971 631.202 130.786 C 631.202 131.612 631.012 132.327 630.631 132.93 C 630.25 133.534 629.699 134 628.979 134.328 C 628.264 134.656 627.405 134.82 626.403 134.82 Z M 636.766 128.773 L 633.285 139.381 L 630.481 139.381 L 635.236 126.584 L 637.021 126.584 L 636.766 128.773 Z M 639.657 139.381 L 636.168 128.773 L 635.887 126.584 L 637.689 126.584 L 642.47 139.381 L 639.657 139.381 Z M 639.499 134.618 L 639.499 136.683 L 632.74 136.683 L 632.74 134.618 L 639.499 134.618 Z M 643.656 126.584 L 648.429 126.584 C 649.407 126.584 650.248 126.731 650.951 127.024 C 651.66 127.317 652.205 127.751 652.586 128.325 C 652.967 128.899 653.157 129.605 653.157 130.443 C 653.157 131.128 653.04 131.717 652.806 132.209 C 652.577 132.696 652.252 133.103 651.83 133.431 C 651.414 133.753 650.925 134.011 650.362 134.205 L 649.527 134.644 L 645.379 134.644 L 645.361 132.587 L 648.446 132.587 C 648.909 132.587 649.293 132.505 649.598 132.341 C 649.902 132.177 650.131 131.949 650.283 131.656 C 650.441 131.363 650.521 131.023 650.521 130.636 C 650.521 130.226 650.444 129.872 650.292 129.573 C 650.14 129.274 649.908 129.045 649.598 128.887 C 649.287 128.729 648.898 128.65 648.429 128.65 L 646.293 128.65 L 646.293 139.381 L 643.656 139.381 L 643.656 126.584 Z M 650.811 139.381 L 647.893 133.677 L 650.679 133.66 L 653.632 139.258 L 653.632 139.381 L 650.811 139.381 Z M 660.382 126.584 L 660.382 139.381 L 657.754 139.381 L 657.754 126.584 L 660.382 126.584 Z M 664.319 126.584 L 664.319 128.65 L 653.878 128.65 L 653.878 126.584 L 664.319 126.584 Z M 672.344 136.033 C 672.344 135.804 672.309 135.599 672.238 135.417 C 672.174 135.23 672.051 135.06 671.869 134.908 C 671.688 134.75 671.433 134.594 671.105 134.442 C 670.776 134.29 670.352 134.131 669.83 133.967 C 669.25 133.78 668.699 133.569 668.178 133.334 C 667.662 133.1 667.205 132.828 666.807 132.517 C 666.414 132.201 666.104 131.834 665.875 131.418 C 665.652 131.002 665.541 130.519 665.541 129.968 C 665.541 129.435 665.658 128.952 665.893 128.518 C 666.127 128.079 666.455 127.704 666.877 127.393 C 667.299 127.077 667.797 126.834 668.371 126.664 C 668.951 126.494 669.587 126.409 670.278 126.409 C 671.222 126.409 672.045 126.579 672.748 126.918 C 673.451 127.258 673.996 127.724 674.383 128.316 C 674.775 128.908 674.972 129.584 674.972 130.346 L 672.353 130.346 C 672.353 129.971 672.273 129.643 672.115 129.362 C 671.963 129.075 671.729 128.849 671.412 128.685 C 671.102 128.521 670.709 128.439 670.234 128.439 C 669.777 128.439 669.397 128.509 669.092 128.65 C 668.787 128.785 668.559 128.969 668.406 129.204 C 668.254 129.432 668.178 129.69 668.178 129.977 C 668.178 130.194 668.231 130.39 668.336 130.566 C 668.447 130.742 668.611 130.906 668.828 131.058 C 669.045 131.21 669.312 131.354 669.628 131.489 C 669.944 131.624 670.311 131.755 670.727 131.884 C 671.424 132.095 672.036 132.333 672.564 132.596 C 673.097 132.86 673.542 133.156 673.899 133.484 C 674.257 133.812 674.526 134.184 674.708 134.6 C 674.89 135.016 674.981 135.488 674.981 136.015 C 674.981 136.572 674.872 137.07 674.655 137.509 C 674.439 137.949 674.125 138.321 673.715 138.626 C 673.305 138.93 672.815 139.162 672.247 139.32 C 671.679 139.478 671.043 139.557 670.34 139.557 C 669.707 139.557 669.083 139.475 668.468 139.311 C 667.853 139.141 667.293 138.886 666.789 138.546 C 666.291 138.207 665.893 137.773 665.594 137.246 C 665.295 136.718 665.146 136.094 665.146 135.374 L 667.791 135.374 C 667.791 135.772 667.853 136.109 667.976 136.384 C 668.099 136.66 668.272 136.882 668.494 137.052 C 668.723 137.222 668.992 137.345 669.303 137.421 C 669.619 137.498 669.965 137.536 670.34 137.536 C 670.797 137.536 671.172 137.471 671.465 137.342 C 671.764 137.213 671.983 137.035 672.124 136.806 C 672.271 136.578 672.344 136.32 672.344 136.033 Z M 685.87 136.709 L 688.885 126.584 L 691.82 126.584 L 687.364 139.381 L 685.431 139.381 L 685.87 136.709 Z M 683.093 126.584 L 686.099 136.709 L 686.556 139.381 L 684.605 139.381 L 680.175 126.584 L 683.093 126.584 Z M 697.586 137.237 L 697.586 133.001 C 697.586 132.696 697.536 132.435 697.437 132.218 C 697.337 131.996 697.182 131.823 696.971 131.7 C 696.766 131.577 696.499 131.515 696.171 131.515 C 695.89 131.515 695.647 131.565 695.441 131.665 C 695.236 131.758 695.078 131.896 694.967 132.078 C 694.856 132.253 694.8 132.461 694.8 132.702 L 692.269 132.702 C 692.269 132.297 692.362 131.914 692.55 131.55 C 692.737 131.187 693.01 130.868 693.367 130.592 C 693.725 130.311 694.149 130.091 694.642 129.933 C 695.14 129.775 695.696 129.696 696.312 129.696 C 697.05 129.696 697.706 129.819 698.28 130.065 C 698.855 130.311 699.306 130.68 699.634 131.172 C 699.968 131.665 700.135 132.28 700.135 133.018 L 700.135 137.087 C 700.135 137.609 700.167 138.037 700.231 138.371 C 700.296 138.699 700.39 138.986 700.513 139.232 L 700.513 139.381 L 697.955 139.381 C 697.832 139.124 697.738 138.801 697.674 138.415 C 697.615 138.022 697.586 137.629 697.586 137.237 Z M 697.92 133.589 L 697.938 135.022 L 696.523 135.022 C 696.189 135.022 695.898 135.06 695.652 135.136 C 695.406 135.212 695.204 135.321 695.046 135.461 C 694.888 135.596 694.771 135.754 694.694 135.936 C 694.624 136.118 694.589 136.317 694.589 136.534 C 694.589 136.751 694.639 136.947 694.738 137.123 C 694.838 137.292 694.981 137.427 695.169 137.527 C 695.356 137.621 695.576 137.667 695.828 137.667 C 696.209 137.667 696.54 137.591 696.821 137.439 C 697.103 137.287 697.319 137.099 697.472 136.876 C 697.63 136.654 697.712 136.443 697.718 136.244 L 698.386 137.316 C 698.292 137.556 698.163 137.805 697.999 138.063 C 697.841 138.321 697.639 138.564 697.393 138.792 C 697.147 139.015 696.851 139.2 696.505 139.346 C 696.159 139.487 695.749 139.557 695.274 139.557 C 694.671 139.557 694.123 139.437 693.631 139.197 C 693.145 138.951 692.758 138.614 692.471 138.186 C 692.189 137.752 692.049 137.26 692.049 136.709 C 692.049 136.211 692.143 135.769 692.33 135.382 C 692.518 134.996 692.793 134.67 693.156 134.407 C 693.525 134.137 693.985 133.935 694.536 133.8 C 695.087 133.66 695.726 133.589 696.452 133.589 L 697.92 133.589 Z M 704.617 131.946 L 704.617 139.381 L 702.086 139.381 L 702.086 129.872 L 704.468 129.872 L 704.617 131.946 Z M 707.482 129.81 L 707.439 132.157 C 707.315 132.139 707.166 132.125 706.99 132.113 C 706.82 132.095 706.665 132.086 706.524 132.086 C 706.167 132.086 705.856 132.133 705.593 132.227 C 705.335 132.315 705.118 132.447 704.942 132.623 C 704.773 132.798 704.644 133.012 704.556 133.264 C 704.474 133.516 704.427 133.803 704.415 134.126 L 703.905 133.967 C 703.905 133.352 703.967 132.787 704.09 132.271 C 704.213 131.75 704.392 131.295 704.626 130.909 C 704.866 130.522 705.159 130.223 705.505 130.012 C 705.851 129.801 706.246 129.696 706.691 129.696 C 706.832 129.696 706.976 129.708 707.122 129.731 C 707.269 129.749 707.389 129.775 707.482 129.81 Z M 711.156 131.902 L 711.156 139.381 L 708.625 139.381 L 708.625 129.872 L 710.998 129.872 L 711.156 131.902 Z M 710.787 134.292 L 710.102 134.292 C 710.102 133.589 710.192 132.957 710.374 132.394 C 710.556 131.826 710.811 131.342 711.139 130.944 C 711.467 130.54 711.856 130.232 712.308 130.021 C 712.765 129.804 713.274 129.696 713.837 129.696 C 714.282 129.696 714.689 129.76 715.059 129.889 C 715.428 130.018 715.744 130.223 716.008 130.504 C 716.277 130.786 716.482 131.158 716.623 131.621 C 716.77 132.084 716.843 132.649 716.843 133.317 L 716.843 139.381 L 714.294 139.381 L 714.294 133.308 C 714.294 132.886 714.235 132.558 714.118 132.324 C 714.001 132.089 713.828 131.925 713.6 131.832 C 713.377 131.732 713.102 131.682 712.773 131.682 C 712.434 131.682 712.138 131.75 711.886 131.884 C 711.64 132.019 711.435 132.207 711.271 132.447 C 711.112 132.681 710.992 132.957 710.91 133.273 C 710.828 133.589 710.787 133.929 710.787 134.292 Z M 723.9 137.237 L 723.9 133.001 C 723.9 132.696 723.851 132.435 723.751 132.218 C 723.651 131.996 723.496 131.823 723.285 131.7 C 723.08 131.577 722.814 131.515 722.485 131.515 C 722.204 131.515 721.961 131.565 721.756 131.665 C 721.551 131.758 721.393 131.896 721.281 132.078 C 721.17 132.253 721.114 132.461 721.114 132.702 L 718.583 132.702 C 718.583 132.297 718.677 131.914 718.864 131.55 C 719.052 131.187 719.324 130.868 719.682 130.592 C 720.039 130.311 720.464 130.091 720.956 129.933 C 721.454 129.775 722.011 129.696 722.626 129.696 C 723.364 129.696 724.021 129.819 724.595 130.065 C 725.169 130.311 725.62 130.68 725.948 131.172 C 726.282 131.665 726.449 132.28 726.449 133.018 L 726.449 137.087 C 726.449 137.609 726.481 138.037 726.546 138.371 C 726.61 138.699 726.704 138.986 726.827 139.232 L 726.827 139.381 L 724.27 139.381 C 724.147 139.124 724.053 138.801 723.988 138.415 C 723.93 138.022 723.9 137.629 723.9 137.237 Z M 724.234 133.589 L 724.252 135.022 L 722.837 135.022 C 722.503 135.022 722.213 135.06 721.967 135.136 C 721.721 135.212 721.519 135.321 721.36 135.461 C 721.202 135.596 721.085 135.754 721.009 135.936 C 720.939 136.118 720.903 136.317 720.903 136.534 C 720.903 136.751 720.953 136.947 721.053 137.123 C 721.152 137.292 721.296 137.427 721.483 137.527 C 721.671 137.621 721.891 137.667 722.143 137.667 C 722.523 137.667 722.855 137.591 723.136 137.439 C 723.417 137.287 723.634 137.099 723.786 136.876 C 723.944 136.654 724.026 136.443 724.032 136.244 L 724.7 137.316 C 724.606 137.556 724.478 137.805 724.314 138.063 C 724.155 138.321 723.953 138.564 723.707 138.792 C 723.461 139.015 723.165 139.2 722.819 139.346 C 722.474 139.487 722.064 139.557 721.589 139.557 C 720.985 139.557 720.438 139.437 719.945 139.197 C 719.459 138.951 719.072 138.614 718.785 138.186 C 718.504 137.752 718.363 137.26 718.363 136.709 C 718.363 136.211 718.457 135.769 718.645 135.382 C 718.832 134.996 719.107 134.67 719.471 134.407 C 719.84 134.137 720.3 133.935 720.851 133.8 C 721.401 133.66 722.04 133.589 722.767 133.589 L 724.234 133.589 Z" fill="white"/>
    <path d="M 573.443 157.801 L 575.74 150.27 L 577.756 150.27 L 574.365 160.012 C 574.287 160.221 574.186 160.447 574.061 160.692 C 573.936 160.937 573.772 161.169 573.568 161.387 C 573.371 161.611 573.123 161.791 572.826 161.926 C 572.529 162.067 572.17 162.137 571.748 162.137 C 571.581 162.137 571.42 162.122 571.264 162.09 C 571.113 162.064 570.969 162.036 570.834 162.005 L 570.826 160.567 C 570.878 160.572 570.941 160.577 571.014 160.583 C 571.092 160.588 571.154 160.59 571.201 160.59 C 571.514 160.59 571.774 160.551 571.983 160.473 C 572.191 160.4 572.36 160.281 572.49 160.114 C 572.626 159.947 572.74 159.723 572.834 159.442 L 573.443 157.801 Z M 572.147 150.27 L 574.154 156.598 L 574.49 158.583 L 573.186 158.919 L 570.115 150.27 L 572.147 150.27 Z M 584.186 150.27 L 584.186 151.77 L 580.061 151.77 L 580.061 150.27 L 584.186 150.27 Z M 585.662 150.27 L 585.662 158.723 L 583.779 158.723 L 583.779 150.27 L 585.662 150.27 Z M 579.6 150.27 L 581.459 150.27 L 581.233 154.45 C 581.201 155.07 581.139 155.617 581.045 156.09 C 580.956 156.559 580.837 156.963 580.686 157.301 C 580.535 157.635 580.35 157.906 580.131 158.114 C 579.912 158.322 579.657 158.476 579.365 158.575 C 579.074 158.674 578.746 158.723 578.381 158.723 L 577.795 158.723 L 577.787 157.176 L 578.084 157.153 C 578.277 157.137 578.443 157.088 578.584 157.005 C 578.725 156.916 578.844 156.791 578.943 156.63 C 579.048 156.468 579.131 156.26 579.193 156.005 C 579.261 155.749 579.313 155.447 579.35 155.098 C 579.391 154.749 579.423 154.343 579.443 153.88 L 579.6 150.27 Z M 587.74 157.786 C 587.74 157.494 587.839 157.249 588.037 157.051 C 588.235 156.848 588.503 156.747 588.842 156.747 C 589.186 156.747 589.454 156.848 589.647 157.051 C 589.844 157.249 589.943 157.494 589.943 157.786 C 589.943 158.077 589.844 158.322 589.647 158.52 C 589.454 158.718 589.186 158.817 588.842 158.817 C 588.503 158.817 588.235 158.718 588.037 158.52 C 587.839 158.322 587.74 158.077 587.74 157.786 Z M 600.553 153.583 L 597.654 153.583 L 597.639 152.153 L 600.17 152.153 C 600.597 152.153 600.959 152.09 601.256 151.965 C 601.558 151.835 601.787 151.65 601.943 151.411 C 602.1 151.166 602.178 150.872 602.178 150.528 C 602.178 150.148 602.105 149.838 601.959 149.598 C 601.813 149.359 601.589 149.184 601.287 149.075 C 600.99 148.965 600.61 148.911 600.147 148.911 L 598.248 148.911 L 598.248 158.723 L 596.287 158.723 L 596.287 147.348 L 600.147 147.348 C 600.772 147.348 601.329 147.408 601.818 147.528 C 602.313 147.648 602.733 147.835 603.076 148.09 C 603.425 148.34 603.688 148.658 603.865 149.044 C 604.048 149.429 604.139 149.887 604.139 150.419 C 604.139 150.887 604.027 151.317 603.803 151.708 C 603.579 152.093 603.248 152.408 602.811 152.653 C 602.373 152.898 601.829 153.044 601.178 153.09 L 600.553 153.583 Z M 600.467 158.723 L 597.037 158.723 L 597.92 157.169 L 600.467 157.169 C 600.91 157.169 601.279 157.096 601.576 156.95 C 601.873 156.799 602.094 156.593 602.24 156.333 C 602.391 156.067 602.467 155.757 602.467 155.403 C 602.467 155.033 602.402 154.713 602.272 154.442 C 602.141 154.166 601.936 153.955 601.654 153.809 C 601.373 153.658 601.006 153.583 600.553 153.583 L 598.35 153.583 L 598.365 152.153 L 601.233 152.153 L 601.678 152.692 C 602.303 152.713 602.816 152.851 603.217 153.106 C 603.623 153.361 603.925 153.692 604.123 154.098 C 604.321 154.505 604.42 154.942 604.42 155.411 C 604.42 156.135 604.261 156.742 603.943 157.231 C 603.631 157.721 603.18 158.093 602.592 158.348 C 602.003 158.598 601.295 158.723 600.467 158.723 Z M 610.975 157.028 L 610.975 152.997 C 610.975 152.695 610.92 152.434 610.811 152.215 C 610.701 151.997 610.535 151.827 610.311 151.708 C 610.092 151.588 609.816 151.528 609.483 151.528 C 609.175 151.528 608.91 151.58 608.686 151.684 C 608.462 151.788 608.287 151.929 608.162 152.106 C 608.037 152.283 607.975 152.484 607.975 152.708 L 606.1 152.708 C 606.1 152.374 606.18 152.051 606.342 151.739 C 606.503 151.426 606.738 151.148 607.045 150.903 C 607.352 150.658 607.719 150.465 608.147 150.325 C 608.574 150.184 609.053 150.114 609.584 150.114 C 610.219 150.114 610.782 150.221 611.272 150.434 C 611.766 150.648 612.154 150.971 612.436 151.403 C 612.722 151.83 612.865 152.367 612.865 153.012 L 612.865 156.77 C 612.865 157.156 612.891 157.502 612.943 157.809 C 613.001 158.111 613.081 158.374 613.186 158.598 L 613.186 158.723 L 611.256 158.723 C 611.167 158.52 611.097 158.262 611.045 157.95 C 610.998 157.632 610.975 157.325 610.975 157.028 Z M 611.248 153.583 L 611.264 154.747 L 609.912 154.747 C 609.563 154.747 609.256 154.781 608.99 154.848 C 608.725 154.911 608.503 155.005 608.326 155.13 C 608.149 155.255 608.016 155.406 607.928 155.583 C 607.839 155.76 607.795 155.96 607.795 156.184 C 607.795 156.408 607.847 156.614 607.951 156.801 C 608.055 156.984 608.206 157.127 608.404 157.231 C 608.608 157.335 608.852 157.387 609.139 157.387 C 609.524 157.387 609.86 157.309 610.147 157.153 C 610.438 156.992 610.667 156.796 610.834 156.567 C 611.001 156.333 611.089 156.111 611.1 155.903 L 611.709 156.739 C 611.647 156.952 611.54 157.182 611.389 157.426 C 611.238 157.671 611.04 157.906 610.795 158.13 C 610.555 158.348 610.266 158.528 609.928 158.669 C 609.594 158.809 609.209 158.88 608.772 158.88 C 608.219 158.88 607.727 158.77 607.295 158.551 C 606.863 158.327 606.524 158.028 606.279 157.653 C 606.035 157.273 605.912 156.843 605.912 156.364 C 605.912 155.916 605.996 155.52 606.162 155.176 C 606.334 154.827 606.584 154.536 606.912 154.301 C 607.246 154.067 607.652 153.89 608.131 153.77 C 608.61 153.645 609.157 153.583 609.772 153.583 L 611.248 153.583 Z M 618.287 157.38 C 618.594 157.38 618.871 157.32 619.115 157.2 C 619.365 157.075 619.566 156.903 619.717 156.684 C 619.873 156.465 619.959 156.213 619.975 155.926 L 621.748 155.926 C 621.738 156.473 621.576 156.971 621.264 157.419 C 620.951 157.867 620.537 158.223 620.022 158.489 C 619.506 158.749 618.936 158.88 618.311 158.88 C 617.665 158.88 617.102 158.77 616.623 158.551 C 616.144 158.327 615.746 158.02 615.428 157.63 C 615.11 157.239 614.871 156.788 614.709 156.278 C 614.553 155.768 614.475 155.221 614.475 154.637 L 614.475 154.364 C 614.475 153.781 614.553 153.234 614.709 152.723 C 614.871 152.208 615.11 151.755 615.428 151.364 C 615.746 150.973 616.144 150.669 616.623 150.45 C 617.102 150.226 617.662 150.114 618.303 150.114 C 618.98 150.114 619.574 150.249 620.084 150.52 C 620.594 150.786 620.996 151.158 621.287 151.637 C 621.584 152.111 621.738 152.663 621.748 153.294 L 619.975 153.294 C 619.959 152.981 619.881 152.7 619.74 152.45 C 619.605 152.195 619.412 151.992 619.162 151.84 C 618.917 151.689 618.623 151.614 618.279 151.614 C 617.899 151.614 617.584 151.692 617.334 151.848 C 617.084 151.999 616.889 152.208 616.748 152.473 C 616.608 152.734 616.506 153.028 616.443 153.356 C 616.386 153.679 616.358 154.015 616.358 154.364 L 616.358 154.637 C 616.358 154.986 616.386 155.325 616.443 155.653 C 616.501 155.981 616.6 156.275 616.74 156.536 C 616.886 156.791 617.084 156.997 617.334 157.153 C 617.584 157.304 617.902 157.38 618.287 157.38 Z M 625.139 155.973 L 628.459 150.27 L 630.342 150.27 L 630.342 158.723 L 628.459 158.723 L 628.459 153.012 L 625.139 158.723 L 623.256 158.723 L 623.256 150.27 L 625.139 150.27 L 625.139 155.973 Z M 638.014 150.27 L 638.014 151.77 L 633.889 151.77 L 633.889 150.27 L 638.014 150.27 Z M 639.49 150.27 L 639.49 158.723 L 637.607 158.723 L 637.607 150.27 L 639.49 150.27 Z M 633.428 150.27 L 635.287 150.27 L 635.061 154.45 C 635.029 155.07 634.967 155.617 634.873 156.09 C 634.785 156.559 634.665 156.963 634.514 157.301 C 634.363 157.635 634.178 157.906 633.959 158.114 C 633.74 158.322 633.485 158.476 633.193 158.575 C 632.902 158.674 632.574 158.723 632.209 158.723 L 631.623 158.723 L 631.615 157.176 L 631.912 157.153 C 632.105 157.137 632.272 157.088 632.412 157.005 C 632.553 156.916 632.673 156.791 632.772 156.63 C 632.876 156.468 632.959 156.26 633.022 156.005 C 633.089 155.749 633.141 155.447 633.178 155.098 C 633.219 154.749 633.251 154.343 633.272 153.88 L 633.428 150.27 Z M 653.123 147.348 L 653.123 148.911 L 647.67 148.911 L 647.67 147.348 L 653.123 147.348 Z M 654.623 147.348 L 654.623 158.723 L 652.662 158.723 L 652.662 147.348 L 654.623 147.348 Z M 647.279 147.348 L 649.225 147.348 L 648.951 152.997 C 648.915 153.825 648.844 154.554 648.74 155.184 C 648.636 155.814 648.495 156.354 648.318 156.801 C 648.141 157.249 647.917 157.617 647.647 157.903 C 647.376 158.184 647.05 158.393 646.67 158.528 C 646.295 158.658 645.855 158.723 645.35 158.723 L 644.85 158.723 L 644.85 157.169 L 645.154 157.145 C 645.43 157.124 645.667 157.059 645.865 156.95 C 646.068 156.835 646.24 156.669 646.381 156.45 C 646.522 156.226 646.639 155.937 646.732 155.583 C 646.826 155.229 646.899 154.796 646.951 154.286 C 647.009 153.775 647.05 153.179 647.076 152.497 L 647.279 147.348 Z M 660.514 158.88 C 659.889 158.88 659.324 158.778 658.818 158.575 C 658.318 158.367 657.891 158.077 657.537 157.708 C 657.188 157.338 656.92 156.903 656.732 156.403 C 656.545 155.903 656.451 155.364 656.451 154.786 L 656.451 154.473 C 656.451 153.812 656.548 153.213 656.74 152.676 C 656.933 152.14 657.201 151.682 657.545 151.301 C 657.889 150.916 658.295 150.622 658.764 150.419 C 659.232 150.215 659.74 150.114 660.287 150.114 C 660.891 150.114 661.42 150.215 661.873 150.419 C 662.326 150.622 662.701 150.908 662.998 151.278 C 663.3 151.643 663.524 152.077 663.67 152.583 C 663.821 153.088 663.897 153.645 663.897 154.255 L 663.897 155.059 L 657.365 155.059 L 657.365 153.708 L 662.037 153.708 L 662.037 153.559 C 662.027 153.221 661.959 152.903 661.834 152.606 C 661.714 152.309 661.529 152.07 661.279 151.887 C 661.029 151.705 660.696 151.614 660.279 151.614 C 659.967 151.614 659.688 151.682 659.443 151.817 C 659.204 151.947 659.003 152.137 658.842 152.387 C 658.68 152.637 658.555 152.939 658.467 153.294 C 658.384 153.643 658.342 154.036 658.342 154.473 L 658.342 154.786 C 658.342 155.156 658.391 155.499 658.49 155.817 C 658.594 156.13 658.745 156.403 658.943 156.637 C 659.141 156.872 659.381 157.057 659.662 157.192 C 659.943 157.322 660.264 157.387 660.623 157.387 C 661.076 157.387 661.48 157.296 661.834 157.114 C 662.188 156.932 662.495 156.674 662.756 156.34 L 663.748 157.301 C 663.566 157.567 663.329 157.822 663.037 158.067 C 662.745 158.307 662.389 158.502 661.967 158.653 C 661.55 158.804 661.066 158.88 660.514 158.88 Z M 669.475 155.106 L 666.772 155.106 L 666.756 153.778 L 668.975 153.778 C 669.339 153.778 669.639 153.742 669.873 153.669 C 670.113 153.596 670.29 153.486 670.404 153.34 C 670.519 153.189 670.576 153.007 670.576 152.794 C 670.576 152.617 670.542 152.463 670.475 152.333 C 670.407 152.197 670.303 152.088 670.162 152.005 C 670.027 151.916 669.855 151.854 669.647 151.817 C 669.443 151.775 669.206 151.755 668.936 151.755 L 667.397 151.755 L 667.397 158.723 L 665.514 158.723 L 665.514 150.27 L 668.936 150.27 C 669.477 150.27 669.964 150.317 670.397 150.411 C 670.834 150.505 671.206 150.648 671.514 150.84 C 671.821 151.033 672.055 151.278 672.217 151.575 C 672.384 151.867 672.467 152.21 672.467 152.606 C 672.467 152.867 672.41 153.111 672.295 153.34 C 672.186 153.57 672.022 153.773 671.803 153.95 C 671.584 154.127 671.316 154.273 670.998 154.387 C 670.68 154.497 670.316 154.564 669.904 154.59 L 669.475 155.106 Z M 669.475 158.723 L 666.225 158.723 L 666.975 157.239 L 669.475 157.239 C 669.808 157.239 670.084 157.197 670.303 157.114 C 670.522 157.031 670.683 156.911 670.787 156.755 C 670.897 156.593 670.951 156.403 670.951 156.184 C 670.951 155.96 670.899 155.768 670.795 155.606 C 670.691 155.445 670.529 155.322 670.311 155.239 C 670.097 155.15 669.818 155.106 669.475 155.106 L 667.326 155.106 L 667.342 153.778 L 669.897 153.778 L 670.436 154.294 C 670.972 154.33 671.417 154.445 671.772 154.637 C 672.126 154.83 672.391 155.072 672.568 155.364 C 672.745 155.656 672.834 155.973 672.834 156.317 C 672.834 156.713 672.759 157.062 672.607 157.364 C 672.462 157.666 672.243 157.919 671.951 158.122 C 671.665 158.32 671.313 158.471 670.897 158.575 C 670.48 158.674 670.006 158.723 669.475 158.723 Z M 677.912 157.38 C 678.219 157.38 678.495 157.32 678.74 157.2 C 678.99 157.075 679.191 156.903 679.342 156.684 C 679.498 156.465 679.584 156.213 679.6 155.926 L 681.373 155.926 C 681.363 156.473 681.201 156.971 680.889 157.419 C 680.576 157.867 680.162 158.223 679.647 158.489 C 679.131 158.749 678.561 158.88 677.936 158.88 C 677.29 158.88 676.727 158.77 676.248 158.551 C 675.769 158.327 675.37 158.02 675.053 157.63 C 674.735 157.239 674.495 156.788 674.334 156.278 C 674.178 155.768 674.1 155.221 674.1 154.637 L 674.1 154.364 C 674.1 153.781 674.178 153.234 674.334 152.723 C 674.495 152.208 674.735 151.755 675.053 151.364 C 675.37 150.973 675.769 150.669 676.248 150.45 C 676.727 150.226 677.287 150.114 677.928 150.114 C 678.605 150.114 679.199 150.249 679.709 150.52 C 680.219 150.786 680.62 151.158 680.912 151.637 C 681.209 152.111 681.363 152.663 681.373 153.294 L 679.6 153.294 C 679.584 152.981 679.506 152.7 679.365 152.45 C 679.23 152.195 679.037 151.992 678.787 151.84 C 678.542 151.689 678.248 151.614 677.904 151.614 C 677.524 151.614 677.209 151.692 676.959 151.848 C 676.709 151.999 676.514 152.208 676.373 152.473 C 676.232 152.734 676.131 153.028 676.068 153.356 C 676.011 153.679 675.982 154.015 675.982 154.364 L 675.982 154.637 C 675.982 154.986 676.011 155.325 676.068 155.653 C 676.126 155.981 676.225 156.275 676.365 156.536 C 676.511 156.791 676.709 156.997 676.959 157.153 C 677.209 157.304 677.527 157.38 677.912 157.38 Z M 684.85 150.27 L 684.85 158.723 L 682.967 158.723 L 682.967 150.27 L 684.85 150.27 Z M 690.365 150.27 L 686.561 155.356 L 684.412 155.356 L 684.162 153.653 L 685.732 153.653 L 688.014 150.27 L 690.365 150.27 Z M 688.162 158.723 L 685.615 155.036 L 687.1 153.965 L 690.639 158.723 L 688.162 158.723 Z M 693.607 155.973 L 696.928 150.27 L 698.811 150.27 L 698.811 158.723 L 696.928 158.723 L 696.928 153.012 L 693.607 158.723 L 691.725 158.723 L 691.725 150.27 L 693.607 150.27 L 693.607 155.973 Z M 718.959 154.356 L 718.959 155.473 L 714.232 155.473 L 714.232 154.356 L 718.959 154.356 Z M 713.912 150.622 L 713.912 149.973 C 713.912 149.437 714.022 148.963 714.24 148.551 C 714.464 148.135 714.777 147.809 715.178 147.575 C 715.579 147.34 716.053 147.223 716.6 147.223 C 717.157 147.223 717.634 147.34 718.029 147.575 C 718.43 147.809 718.74 148.135 718.959 148.551 C 719.178 148.963 719.287 149.437 719.287 149.973 L 719.287 150.622 C 719.287 151.158 719.178 151.632 718.959 152.044 C 718.745 152.455 718.438 152.778 718.037 153.012 C 717.641 153.247 717.167 153.364 716.615 153.364 C 716.063 153.364 715.584 153.247 715.178 153.012 C 714.777 152.778 714.464 152.455 714.24 152.044 C 714.022 151.632 713.912 151.158 713.912 150.622 Z M 715.225 149.973 L 715.225 150.622 C 715.225 150.939 715.274 151.221 715.373 151.465 C 715.472 151.71 715.626 151.903 715.834 152.044 C 716.042 152.184 716.303 152.255 716.615 152.255 C 716.923 152.255 717.178 152.184 717.381 152.044 C 717.584 151.903 717.735 151.71 717.834 151.465 C 717.933 151.221 717.982 150.939 717.982 150.622 L 717.982 149.973 C 717.982 149.661 717.93 149.382 717.826 149.137 C 717.727 148.893 717.576 148.7 717.373 148.559 C 717.17 148.413 716.912 148.34 716.6 148.34 C 716.292 148.34 716.035 148.413 715.826 148.559 C 715.623 148.7 715.472 148.893 715.373 149.137 C 715.274 149.382 715.225 149.661 715.225 149.973 Z M 712.818 147.348 L 712.818 158.723 L 710.748 158.723 L 706.834 150.575 L 706.834 158.723 L 704.943 158.723 L 704.943 147.348 L 707.014 147.348 L 710.936 155.512 L 710.936 147.348 L 712.818 147.348 Z M 726.147 147.309 L 726.147 158.723 L 724.264 158.723 L 724.264 149.544 L 721.475 150.489 L 721.475 148.934 L 725.92 147.309 L 726.147 147.309 Z M 737.725 157.223 L 737.725 158.723 L 730.1 158.723 L 730.1 157.434 L 733.803 153.395 C 734.209 152.937 734.529 152.541 734.764 152.208 C 734.998 151.874 735.162 151.575 735.256 151.309 C 735.355 151.038 735.404 150.775 735.404 150.52 C 735.404 150.161 735.337 149.846 735.201 149.575 C 735.071 149.299 734.878 149.083 734.623 148.926 C 734.368 148.765 734.058 148.684 733.693 148.684 C 733.272 148.684 732.917 148.775 732.631 148.958 C 732.344 149.14 732.128 149.393 731.982 149.715 C 731.837 150.033 731.764 150.398 731.764 150.809 L 729.881 150.809 C 729.881 150.148 730.032 149.544 730.334 148.997 C 730.636 148.445 731.074 148.007 731.647 147.684 C 732.219 147.356 732.91 147.192 733.717 147.192 C 734.477 147.192 735.123 147.32 735.654 147.575 C 736.186 147.83 736.589 148.192 736.865 148.661 C 737.147 149.13 737.287 149.684 737.287 150.325 C 737.287 150.679 737.23 151.031 737.115 151.38 C 737.001 151.729 736.837 152.077 736.623 152.426 C 736.415 152.77 736.167 153.117 735.881 153.465 C 735.594 153.809 735.279 154.158 734.936 154.512 L 732.475 157.223 L 737.725 157.223 Z M 741.404 152.184 L 742.529 152.184 C 742.967 152.184 743.329 152.109 743.615 151.958 C 743.907 151.807 744.123 151.598 744.264 151.333 C 744.404 151.067 744.475 150.762 744.475 150.419 C 744.475 150.059 744.41 149.752 744.279 149.497 C 744.154 149.236 743.962 149.036 743.701 148.895 C 743.446 148.755 743.12 148.684 742.725 148.684 C 742.391 148.684 742.089 148.752 741.818 148.887 C 741.553 149.018 741.342 149.205 741.186 149.45 C 741.029 149.689 740.951 149.976 740.951 150.309 L 739.061 150.309 C 739.061 149.705 739.219 149.169 739.537 148.7 C 739.855 148.231 740.287 147.864 740.834 147.598 C 741.386 147.327 742.006 147.192 742.693 147.192 C 743.428 147.192 744.068 147.314 744.615 147.559 C 745.167 147.799 745.597 148.158 745.904 148.637 C 746.212 149.117 746.365 149.71 746.365 150.419 C 746.365 150.742 746.29 151.07 746.139 151.403 C 745.988 151.736 745.764 152.041 745.467 152.317 C 745.17 152.588 744.8 152.809 744.357 152.981 C 743.915 153.148 743.402 153.231 742.818 153.231 L 741.404 153.231 L 741.404 152.184 Z M 741.404 153.653 L 741.404 152.622 L 742.818 152.622 C 743.485 152.622 744.053 152.7 744.522 152.856 C 744.995 153.012 745.381 153.229 745.678 153.505 C 745.975 153.775 746.191 154.085 746.326 154.434 C 746.467 154.783 746.537 155.153 746.537 155.544 C 746.537 156.075 746.441 156.549 746.248 156.965 C 746.061 157.377 745.792 157.726 745.443 158.012 C 745.094 158.299 744.686 158.515 744.217 158.661 C 743.753 158.807 743.248 158.88 742.701 158.88 C 742.212 158.88 741.743 158.812 741.295 158.676 C 740.847 158.541 740.446 158.34 740.092 158.075 C 739.738 157.804 739.456 157.468 739.248 157.067 C 739.045 156.661 738.943 156.192 738.943 155.661 L 740.826 155.661 C 740.826 155.999 740.904 156.299 741.061 156.559 C 741.222 156.814 741.446 157.015 741.732 157.161 C 742.024 157.307 742.357 157.38 742.732 157.38 C 743.128 157.38 743.469 157.309 743.756 157.169 C 744.042 157.028 744.261 156.82 744.412 156.544 C 744.568 156.268 744.647 155.934 744.647 155.544 C 744.647 155.101 744.561 154.742 744.389 154.465 C 744.217 154.189 743.972 153.986 743.654 153.856 C 743.337 153.721 742.962 153.653 742.529 153.653 L 741.404 153.653 Z" fill="#EDEDED"/>
    <path fill-rule="evenodd" clip-rule="evenodd" d="M 555.054 141.282 C 554.467 141.282 553.989 140.804 553.989 140.217 C 553.989 139.63 554.467 139.152 555.054 139.152 C 555.641 139.152 556.119 139.63 556.119 140.217 C 556.119 140.804 555.641 141.282 555.054 141.282 Z M 555.054 137.022 C 553.289 137.022 551.858 138.452 551.858 140.217 C 551.858 141.982 553.289 143.413 555.054 143.413 C 556.819 143.413 558.249 141.982 558.249 140.217 C 558.249 138.452 556.819 137.022 555.054 137.022 Z M 555.054 150.193 C 555.054 150.193 549.728 142.736 549.728 139.541 C 549.728 136.604 552.117 134.215 555.054 134.215 C 557.99 134.215 560.38 136.604 560.38 139.541 C 560.38 142.736 555.054 150.193 555.054 150.193 Z M 555.054 132.085 C 550.936 132.085 547.598 135.423 547.598 139.541 C 547.598 143.659 555.054 153.388 555.054 153.388 C 555.054 153.388 562.51 143.659 562.51 139.541 C 562.51 135.423 559.172 132.085 555.054 132.085 Z" fill="white"/>
    <g filter="url(#filter0_d_240_2024)" transform="matrix(1, 0, 0, 1, 527.304085, 92.893022)">
      <path d="M326.283 49.6593C326.283 65.6346 313.332 78.5851 297.357 78.5851C281.381 78.5851 268.431 65.6346 268.431 49.6593C268.431 33.684 281.381 20.7335 297.357 20.7335C313.332 20.7335 326.283 33.684 326.283 49.6593Z" fill="#008AEE"/>
      <path d="M298.166 85.4493C297.74 85.9448 296.973 85.9448 296.548 85.4493L289.671 77.4438C289.077 76.7522 289.568 75.6822 290.48 75.6822H304.234C305.145 75.6822 305.637 76.7522 305.043 77.4438L298.166 85.4493Z" fill="#008AEE"/>
    </g>
    <path fill-rule="evenodd" clip-rule="evenodd" d="M 820.92 125.291 C 822.127 125.03 823.377 124.892 824.661 124.892 C 826.089 124.892 827.478 125.063 828.808 125.383 L 828.808 127.787 C 830.087 128.146 831.299 128.666 832.418 129.327 L 834.107 127.636 C 836.352 129.063 838.252 130.985 839.655 133.248 L 837.962 134.944 C 838.599 136.058 839.101 137.258 839.443 138.525 L 841.839 138.525 C 842.14 139.818 842.301 141.167 842.301 142.552 C 842.301 143.882 842.153 145.176 841.875 146.421 L 839.489 146.421 C 839.155 147.708 838.655 148.928 838.019 150.06 L 839.715 151.759 C 838.327 154.032 836.439 155.965 834.203 157.407 L 832.517 155.72 C 831.369 156.407 830.125 156.947 828.808 157.317 L 828.808 159.721 C 827.478 160.042 826.089 160.213 824.661 160.213 C 823.377 160.213 822.127 160.074 820.92 159.813 L 820.92 157.428 C 820.268 157.264 819.634 157.057 819.017 156.811 L 821.761 154.065 C 822.69 154.298 823.661 154.424 824.661 154.424 C 831.209 154.424 836.519 149.109 836.519 142.552 C 836.519 135.995 831.209 130.68 824.661 130.68 C 818.111 130.68 812.802 135.995 812.802 142.552 C 812.802 143.618 812.946 144.65 813.207 145.632 L 810.481 148.363 C 810.224 147.736 810.005 147.088 809.833 146.421 L 807.447 146.421 C 807.169 145.176 807.021 143.882 807.021 142.552 C 807.021 141.167 807.181 139.818 807.482 138.525 L 809.877 138.525 C 810.248 137.16 810.799 135.871 811.51 134.686 L 809.822 132.998 C 811.262 130.761 813.193 128.87 815.464 127.479 L 817.16 129.178 C 818.328 128.521 819.589 128.01 820.92 127.676 L 820.92 125.291 Z" fill="white"/>
    <path fill-rule="evenodd" clip-rule="evenodd" d="M 825.032 135.105 C 825.746 135.105 826.461 135.211 827.15 135.423 L 822.617 139.96 L 823.622 143.714 L 827.371 144.719 L 831.904 140.182 C 832.08 140.757 832.183 141.35 832.213 141.946 L 832.222 142.304 C 832.222 144.043 831.596 145.782 830.344 147.153 L 830.117 147.391 C 828.232 149.278 825.561 149.897 823.159 149.25 L 822.894 149.173 L 813.761 158.307 C 811.976 157.197 810.443 155.72 809.265 153.982 L 809.018 153.605 L 818.169 144.443 C 817.43 142.06 817.954 139.368 819.746 137.424 L 819.95 137.211 C 821.275 135.885 822.989 135.185 824.725 135.111 L 825.032 135.105 Z" fill="white"/>
  </g>
</svg>