<?xml version="1.0" encoding="utf-8"?>
<svg viewBox="0 0 1179 687" fill="none" xmlns="http://www.w3.org/2000/svg">
  <defs>
    <filter id="filter0_d_240_2037" x="0.849609" y="0.811432" width="97.8516" height="105.087" filterUnits="userSpaceOnUse" color-interpolation-filters="sRGB">
      <feFlood flood-opacity="0" result="BackgroundImageFix"/>
      <feColorMatrix in="SourceAlpha" type="matrix" values="0 0 0 0 0 0 0 0 0 0 0 0 0 0 0 0 0 0 127 0" result="hardAlpha"/>
      <feOffset/>
      <feGaussianBlur stdDeviation="10"/>
      <feColorMatrix type="matrix" values="0 0 0 0 0 0 0 0 0 0 0 0 0 0 0 0 0 0 0.3 0"/>
      <feBlend mode="normal" in2="BackgroundImageFix" result="effect1_dropShadow_240_2037"/>
      <feBlend mode="normal" in="SourceGraphic" in2="effect1_dropShadow_240_2037" result="shape"/>
    </filter>
    <linearGradient id="paint0_linear_240_1967" x1="345.754" y1="49.506" x2="49.2439" y2="49.5059" gradientUnits="userSpaceOnUse" gradientTransform="matrix(1, 0, 0, 1, 143.303208, 219.958417)">
      <stop stop-color="#008AEE"/>
      <stop offset="1" stop-color="#006DBB"/>
    </linearGradient>
    <filter id="filter0_d_240_1967" x="0.24646" y="0.922073" width="97.8516" height="105.087" filterUnits="userSpaceOnUse" color-interpolation-filters="sRGB">
      <feFlood flood-opacity="0" result="BackgroundImageFix"/>
      <feColorMatrix in="SourceAlpha" type="matrix" values="0 0 0 0 0 0 0 0 0 0 0 0 0 0 0 0 0 0 127 0" result="hardAlpha"/>
      <feOffset/>
      <feGaussianBlur stdDeviation="10"/>
      <feColorMatrix type="matrix" values="0 0 0 0 0 0 0 0 0 0 0 0 0 0 0 0 0 0 0.3 0"/>
      <feBlend mode="normal" in2="BackgroundImageFix" result="effect1_dropShadow_240_1967"/>
      <feBlend mode="normal" in="SourceGraphic" in2="effect1_dropShadow_240_1967" result="shape"/>
    </filter>
    <linearGradient id="paint0_linear_240_2024" x1="0.847047" y1="49.3174" x2="297.357" y2="49.3174" gradientUnits="userSpaceOnUse" gradientTransform="matrix(1, 0, 0, 1, 754.942706, 116.323185)">
      <stop stop-color="#008AEE"/>
      <stop offset="1" stop-color="#006DBB"/>
    </linearGradient>
    <filter id="filter0_d_240_2024" x="248.431" y="0.73349" width="97.8516" height="105.087" filterUnits="userSpaceOnUse" color-interpolation-filters="sRGB">
      <feFlood flood-opacity="0" result="BackgroundImageFix"/>
      <feColorMatrix in="SourceAlpha" type="matrix" values="0 0 0 0 0 0 0 0 0 0 0 0 0 0 0 0 0 0 127 0" result="hardAlpha"/>
      <feOffset/>
      <feGaussianBlur stdDeviation="10"/>
      <feColorMatrix type="matrix" values="0 0 0 0 0 0 0 0 0 0 0 0 0 0 0 0 0 0 0.3 0"/>
      <feBlend mode="normal" in2="BackgroundImageFix" result="effect1_dropShadow_240_2024"/>
      <feBlend mode="normal" in="SourceGraphic" in2="effect1_dropShadow_240_2024" result="shape"/>
    </filter>
  </defs>
  <g filter="url(#filter0_d_240_2037)" transform="matrix(1, 0, 0, 1, 145.40457369990008, 218.4447359210958)">
    <path d="M78.7012 49.7372C78.7012 65.7125 65.7507 78.663 49.7754 78.663C33.8001 78.663 20.8496 65.7125 20.8496 49.7372C20.8496 33.762 33.8001 20.8114 49.7754 20.8114C65.7507 20.8114 78.7012 33.762 78.7012 49.7372Z" fill="#008AEE"/>
    <path d="M50.5845 85.5273C50.1588 86.0227 49.3919 86.0227 48.9663 85.5273L42.0894 77.5218C41.4953 76.8301 41.9867 75.7602 42.8985 75.7602H56.6523C57.5641 75.7602 58.0555 76.8301 57.4613 77.5218L50.5845 85.5273Z" fill="#008AEE"/>
  </g>
  <path fill-rule="evenodd" clip-rule="evenodd" d="M 191.44 250.921 C 192.646 250.66 193.896 250.522 195.18 250.522 C 196.609 250.522 197.998 250.693 199.327 251.013 L 199.327 253.417 C 200.606 253.776 201.818 254.296 202.937 254.957 L 204.627 253.265 C 206.871 254.693 208.772 256.615 210.175 258.878 L 208.481 260.574 C 209.118 261.688 209.62 262.888 209.962 264.155 L 212.358 264.155 C 212.66 265.448 212.82 266.797 212.82 268.182 C 212.82 269.511 212.672 270.806 212.395 272.051 L 210.009 272.051 C 209.674 273.338 209.175 274.558 208.538 275.69 L 210.235 277.389 C 208.847 279.662 206.959 281.595 204.723 283.037 L 203.037 281.35 C 201.889 282.037 200.644 282.577 199.327 282.947 L 199.327 285.351 C 197.998 285.672 196.609 285.843 195.18 285.843 C 193.896 285.843 192.646 285.704 191.44 285.443 L 191.44 283.058 C 190.787 282.894 190.153 282.687 189.537 282.441 L 192.28 279.695 C 193.209 279.928 194.18 280.054 195.18 280.054 C 201.729 280.054 207.038 274.739 207.038 268.182 C 207.038 261.625 201.729 256.31 195.18 256.31 C 188.63 256.31 183.322 261.625 183.322 268.182 C 183.322 269.248 183.465 270.28 183.727 271.262 L 181 273.993 C 180.743 273.366 180.525 272.718 180.352 272.051 L 177.966 272.051 C 177.688 270.806 177.54 269.511 177.54 268.182 C 177.54 266.797 177.7 265.448 178.001 264.155 L 180.396 264.155 C 180.767 262.79 181.319 261.501 182.029 260.315 L 180.342 258.628 C 181.782 256.391 183.712 254.5 185.984 253.109 L 187.68 254.808 C 188.848 254.151 190.109 253.64 191.44 253.306 L 191.44 250.921 Z" fill="white" transform="matrix(1, 0, 0, 1, 0, 2.1316282072803006e-14)"/>
  <path fill-rule="evenodd" clip-rule="evenodd" d="M 195.551 260.735 C 196.266 260.735 196.981 260.841 197.67 261.053 L 193.137 265.59 L 194.141 269.344 L 197.891 270.349 L 202.423 265.812 C 202.6 266.387 202.703 266.98 202.732 267.576 L 202.741 267.934 C 202.741 269.673 202.116 271.412 200.864 272.783 L 200.636 273.021 C 198.751 274.908 196.08 275.527 193.679 274.88 L 193.413 274.803 L 184.28 283.937 C 182.496 282.827 180.963 281.35 179.785 279.612 L 179.538 279.235 L 188.689 270.073 C 187.949 267.69 188.474 264.998 190.265 263.054 L 190.469 262.841 C 191.794 261.515 193.509 260.815 195.245 260.741 L 195.551 260.735 Z" fill="white" transform="matrix(1, 0, 0, 1, 0, 2.1316282072803006e-14)"/>
  <g filter="url(#filter0_d_240_2037)" transform="matrix(1, 0, 0, 1, 1001.3590847456318, 115.26590137579889)">
    <path d="M78.7012 49.7372C78.7012 65.7125 65.7507 78.663 49.7754 78.663C33.8001 78.663 20.8496 65.7125 20.8496 49.7372C20.8496 33.762 33.8001 20.8114 49.7754 20.8114C65.7507 20.8114 78.7012 33.762 78.7012 49.7372Z" fill="#008AEE"/>
    <path d="M50.5845 85.5273C50.1588 86.0227 49.3919 86.0227 48.9663 85.5273L42.0894 77.5218C41.4953 76.8301 41.9867 75.7602 42.8985 75.7602H56.6523C57.5641 75.7602 58.0555 76.8301 57.4613 77.5218L50.5845 85.5273Z" fill="#008AEE"/>
  </g>
  <path fill-rule="evenodd" clip-rule="evenodd" d="M 1047.394 147.742 C 1048.6 147.481 1049.85 147.343 1051.134 147.343 C 1052.563 147.343 1053.952 147.514 1055.281 147.834 L 1055.281 150.238 C 1056.56 150.597 1057.772 151.117 1058.891 151.778 L 1060.581 150.086 C 1062.825 151.514 1064.726 153.436 1066.129 155.699 L 1064.435 157.395 C 1065.072 158.509 1065.574 159.709 1065.916 160.976 L 1068.312 160.976 C 1068.614 162.269 1068.774 163.618 1068.774 165.003 C 1068.774 166.332 1068.626 167.627 1068.349 168.872 L 1065.963 168.872 C 1065.628 170.159 1065.129 171.379 1064.492 172.511 L 1066.189 174.21 C 1064.801 176.483 1062.913 178.416 1060.677 179.858 L 1058.991 178.171 C 1057.843 178.858 1056.598 179.398 1055.281 179.768 L 1055.281 182.172 C 1053.952 182.493 1052.563 182.664 1051.134 182.664 C 1049.85 182.664 1048.6 182.525 1047.394 182.264 L 1047.394 179.879 C 1046.741 179.715 1046.107 179.508 1045.491 179.262 L 1048.234 176.516 C 1049.163 176.749 1050.134 176.875 1051.134 176.875 C 1057.683 176.875 1062.992 171.56 1062.992 165.003 C 1062.992 158.446 1057.683 153.131 1051.134 153.131 C 1044.584 153.131 1039.276 158.446 1039.276 165.003 C 1039.276 166.069 1039.419 167.101 1039.681 168.083 L 1036.954 170.814 C 1036.697 170.187 1036.479 169.539 1036.306 168.872 L 1033.92 168.872 C 1033.642 167.627 1033.494 166.332 1033.494 165.003 C 1033.494 163.618 1033.654 162.269 1033.955 160.976 L 1036.35 160.976 C 1036.721 159.611 1037.273 158.322 1037.983 157.136 L 1036.296 155.449 C 1037.736 153.212 1039.666 151.321 1041.938 149.93 L 1043.634 151.629 C 1044.802 150.972 1046.063 150.461 1047.394 150.127 L 1047.394 147.742 Z" fill="white" transform="matrix(1, 0, 0, 1, 0, 2.1316282072803006e-14)"/>
  <path fill-rule="evenodd" clip-rule="evenodd" d="M 1051.505 157.556 C 1052.22 157.556 1052.935 157.662 1053.624 157.874 L 1049.091 162.411 L 1050.095 166.165 L 1053.845 167.17 L 1058.377 162.633 C 1058.554 163.208 1058.657 163.801 1058.686 164.397 L 1058.695 164.755 C 1058.695 166.494 1058.07 168.233 1056.818 169.604 L 1056.59 169.842 C 1054.705 171.729 1052.034 172.348 1049.633 171.701 L 1049.367 171.624 L 1040.234 180.758 C 1038.45 179.648 1036.917 178.171 1035.739 176.433 L 1035.492 176.056 L 1044.643 166.894 C 1043.903 164.511 1044.428 161.819 1046.219 159.875 L 1046.423 159.662 C 1047.748 158.336 1049.463 157.636 1051.199 157.562 L 1051.505 157.556 Z" fill="white" transform="matrix(1, 0, 0, 1, 0, 2.1316282072803006e-14)"/>
  <path d="M 192.547 240.891 L 460.484 240.891 C 476.264 240.891 489.057 253.684 489.057 269.464 C 489.057 285.245 476.264 298.037 460.484 298.037 L 192.547 298.037 L 192.547 240.891 Z" fill="url(#paint0_linear_240_1967)" transform="matrix(1, 0, 0, 1, 0, 7.105427357601002e-15)"/>
  <path d="M 236.765 253.838 L 238.997 253.838 L 242.284 263.234 L 245.571 253.838 L 247.803 253.838 L 243.181 266.635 L 241.388 266.635 L 236.765 253.838 Z M 235.56 253.838 L 237.784 253.838 L 238.188 262.997 L 238.188 266.635 L 235.56 266.635 L 235.56 253.838 Z M 246.784 253.838 L 249.016 253.838 L 249.016 266.635 L 246.379 266.635 L 246.379 262.997 L 246.784 253.838 Z M 259.914 264.579 L 259.914 266.635 L 253.103 266.635 L 253.103 264.579 L 259.914 264.579 Z M 253.964 253.838 L 253.964 266.635 L 251.328 266.635 L 251.328 253.838 L 253.964 253.838 Z M 259.027 259.05 L 259.027 261.054 L 253.103 261.054 L 253.103 259.05 L 259.027 259.05 Z M 259.906 253.838 L 259.906 255.904 L 253.103 255.904 L 253.103 253.838 L 259.906 253.838 Z M 271.595 259.947 L 271.595 265.018 C 271.396 265.258 271.088 265.519 270.672 265.8 C 270.256 266.076 269.72 266.313 269.064 266.512 C 268.408 266.712 267.614 266.811 266.682 266.811 C 265.856 266.811 265.103 266.676 264.423 266.407 C 263.744 266.131 263.158 265.73 262.665 265.203 C 262.179 264.675 261.804 264.031 261.54 263.269 C 261.277 262.502 261.145 261.626 261.145 260.641 L 261.145 259.841 C 261.145 258.857 261.271 257.981 261.523 257.213 C 261.781 256.446 262.147 255.798 262.621 255.271 C 263.096 254.744 263.662 254.342 264.318 254.067 C 264.974 253.792 265.704 253.654 266.506 253.654 C 267.62 253.654 268.534 253.836 269.248 254.199 C 269.963 254.556 270.508 255.054 270.883 255.693 C 271.264 256.326 271.498 257.052 271.586 257.873 L 269.029 257.873 C 268.964 257.439 268.841 257.061 268.66 256.739 C 268.478 256.417 268.217 256.165 267.877 255.983 C 267.543 255.801 267.11 255.711 266.577 255.711 C 266.137 255.711 265.745 255.801 265.399 255.983 C 265.059 256.159 264.772 256.42 264.537 256.765 C 264.303 257.111 264.124 257.539 264.001 258.048 C 263.878 258.558 263.817 259.15 263.817 259.824 L 263.817 260.641 C 263.817 261.309 263.881 261.901 264.01 262.417 C 264.139 262.926 264.329 263.357 264.581 263.709 C 264.839 264.054 265.156 264.315 265.531 264.491 C 265.906 264.667 266.342 264.754 266.84 264.754 C 267.256 264.754 267.602 264.719 267.877 264.649 C 268.159 264.579 268.384 264.494 268.554 264.394 C 268.73 264.289 268.865 264.189 268.958 264.095 L 268.958 261.828 L 266.55 261.828 L 266.55 259.947 L 271.595 259.947 Z M 278.925 256.027 L 275.445 266.635 L 272.641 266.635 L 277.396 253.838 L 279.18 253.838 L 278.925 256.027 Z M 281.817 266.635 L 278.328 256.027 L 278.046 253.838 L 279.848 253.838 L 284.629 266.635 L 281.817 266.635 Z M 281.659 261.872 L 281.659 263.937 L 274.9 263.937 L 274.9 261.872 L 281.659 261.872 Z M 290.799 262.074 L 287.538 262.074 L 287.538 260.017 L 290.799 260.017 C 291.303 260.017 291.713 259.935 292.03 259.771 C 292.346 259.601 292.578 259.367 292.724 259.068 C 292.871 258.769 292.944 258.432 292.944 258.057 C 292.944 257.676 292.871 257.322 292.724 256.994 C 292.578 256.666 292.346 256.402 292.03 256.203 C 291.713 256.004 291.303 255.904 290.799 255.904 L 288.453 255.904 L 288.453 266.635 L 285.816 266.635 L 285.816 253.838 L 290.799 253.838 C 291.801 253.838 292.66 254.02 293.374 254.383 C 294.095 254.741 294.646 255.236 295.027 255.869 C 295.408 256.502 295.598 257.225 295.598 258.04 C 295.598 258.866 295.408 259.581 295.027 260.184 C 294.646 260.788 294.095 261.254 293.374 261.582 C 292.66 261.91 291.801 262.074 290.799 262.074 Z M 301.162 256.027 L 297.681 266.635 L 294.877 266.635 L 299.632 253.838 L 301.416 253.838 L 301.162 256.027 Z M 304.053 266.635 L 300.564 256.027 L 300.283 253.838 L 302.084 253.838 L 306.866 266.635 L 304.053 266.635 Z M 303.895 261.872 L 303.895 263.937 L 297.136 263.937 L 297.136 261.872 L 303.895 261.872 Z M 308.052 253.838 L 312.825 253.838 C 313.803 253.838 314.644 253.985 315.347 254.278 C 316.056 254.571 316.601 255.004 316.982 255.579 C 317.363 256.153 317.553 256.859 317.553 257.697 C 317.553 258.382 317.436 258.971 317.202 259.463 C 316.973 259.95 316.648 260.357 316.226 260.685 C 315.81 261.007 315.321 261.265 314.758 261.459 L 313.923 261.898 L 309.775 261.898 L 309.757 259.841 L 312.842 259.841 C 313.305 259.841 313.689 259.759 313.994 259.595 C 314.298 259.431 314.527 259.203 314.679 258.91 C 314.837 258.617 314.916 258.277 314.916 257.89 C 314.916 257.48 314.84 257.126 314.688 256.827 C 314.536 256.528 314.304 256.299 313.994 256.141 C 313.683 255.983 313.293 255.904 312.825 255.904 L 310.689 255.904 L 310.689 266.635 L 308.052 266.635 L 308.052 253.838 Z M 315.206 266.635 L 312.288 260.931 L 315.075 260.914 L 318.028 266.512 L 318.028 266.635 L 315.206 266.635 Z M 324.778 253.838 L 324.778 266.635 L 322.15 266.635 L 322.15 253.838 L 324.778 253.838 Z M 328.715 253.838 L 328.715 255.904 L 318.274 255.904 L 318.274 253.838 L 328.715 253.838 Z M 336.74 263.287 C 336.74 263.058 336.704 262.853 336.634 262.671 C 336.57 262.484 336.447 262.314 336.265 262.162 C 336.083 262.004 335.829 261.848 335.5 261.696 C 335.172 261.544 334.747 261.385 334.226 261.221 C 333.646 261.034 333.095 260.823 332.574 260.588 C 332.058 260.354 331.601 260.082 331.203 259.771 C 330.81 259.455 330.499 259.088 330.271 258.672 C 330.048 258.256 329.937 257.773 329.937 257.222 C 329.937 256.689 330.054 256.206 330.288 255.772 C 330.523 255.333 330.851 254.958 331.273 254.647 C 331.695 254.331 332.193 254.087 332.767 253.918 C 333.347 253.748 333.983 253.663 334.674 253.663 C 335.618 253.663 336.441 253.833 337.144 254.172 C 337.847 254.512 338.392 254.978 338.779 255.57 C 339.171 256.162 339.368 256.838 339.368 257.6 L 336.748 257.6 C 336.748 257.225 336.669 256.897 336.511 256.616 C 336.359 256.329 336.124 256.103 335.808 255.939 C 335.497 255.775 335.105 255.693 334.63 255.693 C 334.173 255.693 333.792 255.763 333.488 255.904 C 333.183 256.039 332.954 256.223 332.802 256.458 C 332.65 256.686 332.574 256.944 332.574 257.231 C 332.574 257.448 332.626 257.644 332.732 257.82 C 332.843 257.996 333.007 258.16 333.224 258.312 C 333.441 258.464 333.707 258.608 334.024 258.743 C 334.34 258.878 334.706 259.009 335.122 259.138 C 335.82 259.349 336.432 259.587 336.959 259.85 C 337.493 260.114 337.938 260.41 338.295 260.738 C 338.653 261.066 338.922 261.438 339.104 261.854 C 339.286 262.27 339.376 262.742 339.376 263.269 C 339.376 263.826 339.268 264.324 339.051 264.763 C 338.834 265.203 338.521 265.575 338.111 265.879 C 337.701 266.184 337.211 266.416 336.643 266.574 C 336.075 266.732 335.439 266.811 334.736 266.811 C 334.103 266.811 333.479 266.729 332.864 266.565 C 332.248 266.395 331.689 266.14 331.185 265.8 C 330.687 265.461 330.288 265.027 329.99 264.5 C 329.691 263.972 329.541 263.348 329.541 262.628 L 332.187 262.628 C 332.187 263.026 332.248 263.363 332.371 263.638 C 332.495 263.914 332.667 264.136 332.89 264.306 C 333.119 264.476 333.388 264.599 333.699 264.675 C 334.015 264.752 334.361 264.79 334.736 264.79 C 335.193 264.79 335.568 264.725 335.861 264.596 C 336.16 264.467 336.379 264.289 336.52 264.06 C 336.666 263.832 336.74 263.574 336.74 263.287 Z M 352.314 263.287 C 352.314 263.058 352.279 262.853 352.208 262.671 C 352.144 262.484 352.021 262.314 351.839 262.162 C 351.658 262.004 351.403 261.848 351.075 261.696 C 350.746 261.544 350.322 261.385 349.8 261.221 C 349.22 261.034 348.669 260.823 348.148 260.588 C 347.632 260.354 347.175 260.082 346.777 259.771 C 346.384 259.455 346.074 259.088 345.845 258.672 C 345.622 258.256 345.511 257.773 345.511 257.222 C 345.511 256.689 345.628 256.206 345.863 255.772 C 346.097 255.333 346.425 254.958 346.847 254.647 C 347.269 254.331 347.767 254.087 348.341 253.918 C 348.921 253.748 349.557 253.663 350.248 253.663 C 351.192 253.663 352.015 253.833 352.718 254.172 C 353.421 254.512 353.966 254.978 354.353 255.57 C 354.746 256.162 354.942 256.838 354.942 257.6 L 352.323 257.6 C 352.323 257.225 352.244 256.897 352.085 256.616 C 351.933 256.329 351.699 256.103 351.382 255.939 C 351.072 255.775 350.679 255.693 350.204 255.693 C 349.747 255.693 349.367 255.763 349.062 255.904 C 348.757 256.039 348.529 256.223 348.376 256.458 C 348.224 256.686 348.148 256.944 348.148 257.231 C 348.148 257.448 348.201 257.644 348.306 257.82 C 348.417 257.996 348.581 258.16 348.798 258.312 C 349.015 258.464 349.282 258.608 349.598 258.743 C 349.914 258.878 350.281 259.009 350.697 259.138 C 351.394 259.349 352.006 259.587 352.534 259.85 C 353.067 260.114 353.512 260.41 353.87 260.738 C 354.227 261.066 354.496 261.438 354.678 261.854 C 354.86 262.27 354.951 262.742 354.951 263.269 C 354.951 263.826 354.842 264.324 354.625 264.763 C 354.409 265.203 354.095 265.575 353.685 265.879 C 353.275 266.184 352.786 266.416 352.217 266.574 C 351.649 266.732 351.013 266.811 350.31 266.811 C 349.677 266.811 349.053 266.729 348.438 266.565 C 347.823 266.395 347.263 266.14 346.759 265.8 C 346.261 265.461 345.863 265.027 345.564 264.5 C 345.265 263.972 345.116 263.348 345.116 262.628 L 347.761 262.628 C 347.761 263.026 347.823 263.363 347.946 263.638 C 348.069 263.914 348.242 264.136 348.464 264.306 C 348.693 264.476 348.962 264.599 349.273 264.675 C 349.589 264.752 349.935 264.79 350.31 264.79 C 350.767 264.79 351.142 264.725 351.435 264.596 C 351.734 264.467 351.954 264.289 352.094 264.06 C 352.241 263.832 352.314 263.574 352.314 263.287 Z M 356.181 261.977 L 356.181 261.793 C 356.181 261.095 356.281 260.454 356.48 259.868 C 356.679 259.276 356.969 258.763 357.35 258.33 C 357.731 257.896 358.2 257.559 358.756 257.319 C 359.313 257.073 359.952 256.95 360.672 256.95 C 361.393 256.95 362.035 257.073 362.597 257.319 C 363.16 257.559 363.631 257.896 364.012 258.33 C 364.399 258.763 364.692 259.276 364.891 259.868 C 365.09 260.454 365.19 261.095 365.19 261.793 L 365.19 261.977 C 365.19 262.669 365.09 263.31 364.891 263.902 C 364.692 264.488 364.399 265.001 364.012 265.44 C 363.631 265.874 363.162 266.211 362.606 266.451 C 362.049 266.691 361.411 266.811 360.69 266.811 C 359.969 266.811 359.328 266.691 358.765 266.451 C 358.208 266.211 357.737 265.874 357.35 265.44 C 356.969 265.001 356.679 264.488 356.48 263.902 C 356.281 263.31 356.181 262.669 356.181 261.977 Z M 358.712 261.793 L 358.712 261.977 C 358.712 262.376 358.747 262.748 358.818 263.093 C 358.888 263.439 358.999 263.744 359.152 264.007 C 359.31 264.265 359.515 264.467 359.767 264.614 C 360.019 264.76 360.327 264.834 360.69 264.834 C 361.041 264.834 361.343 264.76 361.595 264.614 C 361.847 264.467 362.049 264.265 362.202 264.007 C 362.354 263.744 362.465 263.439 362.536 263.093 C 362.612 262.748 362.65 262.376 362.65 261.977 L 362.65 261.793 C 362.65 261.406 362.612 261.043 362.536 260.703 C 362.465 260.357 362.351 260.052 362.193 259.789 C 362.04 259.519 361.838 259.308 361.586 259.156 C 361.334 259.004 361.03 258.927 360.672 258.927 C 360.315 258.927 360.01 259.004 359.758 259.156 C 359.512 259.308 359.31 259.519 359.152 259.789 C 358.999 260.052 358.888 260.357 358.818 260.703 C 358.747 261.043 358.712 261.406 358.712 261.793 Z M 369.91 266.635 L 367.37 266.635 L 367.37 256.695 C 367.37 255.886 367.534 255.204 367.862 254.647 C 368.196 254.09 368.67 253.669 369.286 253.381 C 369.907 253.094 370.657 252.951 371.536 252.951 C 372.034 252.951 372.517 253.001 372.986 253.1 C 373.454 253.194 373.938 253.317 374.436 253.469 L 374.067 255.5 C 373.745 255.4 373.399 255.306 373.03 255.218 C 372.661 255.13 372.215 255.087 371.694 255.087 C 371.108 255.087 370.662 255.224 370.358 255.5 C 370.059 255.769 369.91 256.168 369.91 256.695 L 369.91 266.635 Z M 371.799 257.126 L 371.799 258.919 L 365.954 258.919 L 365.954 257.126 L 371.799 257.126 Z M 375.614 257.126 L 375.614 266.635 L 373.074 266.635 L 373.074 257.126 L 375.614 257.126 Z M 382.865 264.491 L 382.865 260.254 C 382.865 259.95 382.815 259.689 382.715 259.472 C 382.616 259.25 382.46 259.077 382.249 258.954 C 382.044 258.831 381.778 258.769 381.45 258.769 C 381.168 258.769 380.925 258.819 380.72 258.919 C 380.515 259.012 380.357 259.15 380.246 259.332 C 380.134 259.507 380.079 259.715 380.079 259.956 L 377.547 259.956 C 377.547 259.551 377.641 259.168 377.829 258.804 C 378.016 258.441 378.288 258.122 378.646 257.846 C 379.003 257.565 379.428 257.345 379.92 257.187 C 380.418 257.029 380.975 256.95 381.59 256.95 C 382.329 256.95 382.985 257.073 383.559 257.319 C 384.133 257.565 384.584 257.934 384.912 258.426 C 385.246 258.919 385.413 259.534 385.413 260.272 L 385.413 264.341 C 385.413 264.863 385.446 265.291 385.51 265.625 C 385.575 265.953 385.668 266.24 385.791 266.486 L 385.791 266.635 L 383.234 266.635 C 383.111 266.378 383.017 266.055 382.953 265.669 C 382.894 265.276 382.865 264.883 382.865 264.491 Z M 383.199 260.843 L 383.216 262.276 L 381.801 262.276 C 381.467 262.276 381.177 262.314 380.931 262.39 C 380.685 262.466 380.483 262.575 380.325 262.715 C 380.166 262.85 380.049 263.008 379.973 263.19 C 379.903 263.372 379.868 263.571 379.868 263.788 C 379.868 264.004 379.917 264.201 380.017 264.377 C 380.117 264.546 380.26 264.681 380.448 264.781 C 380.635 264.875 380.855 264.921 381.107 264.921 C 381.488 264.921 381.819 264.845 382.1 264.693 C 382.381 264.541 382.598 264.353 382.75 264.13 C 382.909 263.908 382.991 263.697 382.996 263.498 L 383.664 264.57 C 383.571 264.81 383.442 265.059 383.278 265.317 C 383.12 265.575 382.917 265.818 382.671 266.046 C 382.425 266.269 382.129 266.454 381.784 266.6 C 381.438 266.741 381.028 266.811 380.553 266.811 C 379.95 266.811 379.402 266.691 378.91 266.451 C 378.423 266.205 378.037 265.868 377.749 265.44 C 377.468 265.006 377.328 264.514 377.328 263.963 C 377.328 263.465 377.421 263.023 377.609 262.636 C 377.796 262.25 378.072 261.924 378.435 261.661 C 378.804 261.391 379.264 261.189 379.815 261.054 C 380.366 260.914 381.004 260.843 381.731 260.843 L 383.199 260.843 Z" fill="white" transform="matrix(1, 0, 0, 1, 0, 7.105427357601002e-15)"/>
  <path d="M 237.84 285.055 L 240.137 277.524 L 242.152 277.524 L 238.762 287.266 C 238.683 287.475 238.582 287.701 238.457 287.946 C 238.332 288.191 238.168 288.423 237.965 288.641 C 237.767 288.865 237.519 289.045 237.223 289.18 C 236.926 289.321 236.566 289.391 236.144 289.391 C 235.978 289.391 235.816 289.376 235.66 289.344 C 235.509 289.318 235.366 289.29 235.23 289.259 L 235.223 287.821 C 235.275 287.826 235.337 287.831 235.41 287.837 C 235.488 287.842 235.551 287.844 235.598 287.844 C 235.91 287.844 236.17 287.805 236.379 287.727 C 236.587 287.654 236.756 287.535 236.887 287.368 C 237.022 287.201 237.137 286.977 237.23 286.696 L 237.84 285.055 Z M 236.543 277.524 L 238.551 283.852 L 238.887 285.837 L 237.582 286.173 L 234.512 277.524 L 236.543 277.524 Z M 248.581 277.524 L 248.581 279.024 L 244.456 279.024 L 244.456 277.524 L 248.581 277.524 Z M 250.058 277.524 L 250.058 285.977 L 248.175 285.977 L 248.175 277.524 L 250.058 277.524 Z M 243.996 277.524 L 245.855 277.524 L 245.628 281.704 C 245.597 282.324 245.535 282.871 245.441 283.344 C 245.352 283.813 245.232 284.217 245.081 284.555 C 244.93 284.889 244.746 285.16 244.527 285.368 C 244.308 285.576 244.053 285.73 243.761 285.829 C 243.469 285.928 243.142 285.977 242.777 285.977 L 242.191 285.977 L 242.183 284.43 L 242.48 284.407 C 242.673 284.391 242.84 284.342 242.98 284.259 C 243.121 284.17 243.241 284.045 243.339 283.884 C 243.443 283.722 243.527 283.514 243.589 283.259 C 243.657 283.003 243.709 282.701 243.746 282.352 C 243.787 282.003 243.818 281.597 243.839 281.134 L 243.996 277.524 Z M 252.136 285.04 C 252.136 284.748 252.235 284.503 252.433 284.305 C 252.631 284.102 252.899 284.001 253.238 284.001 C 253.581 284.001 253.85 284.102 254.042 284.305 C 254.24 284.503 254.339 284.748 254.339 285.04 C 254.339 285.331 254.24 285.576 254.042 285.774 C 253.85 285.972 253.581 286.071 253.238 286.071 C 252.899 286.071 252.631 285.972 252.433 285.774 C 252.235 285.576 252.136 285.331 252.136 285.04 Z M 264.949 280.837 L 262.05 280.837 L 262.035 279.407 L 264.566 279.407 C 264.993 279.407 265.355 279.344 265.652 279.219 C 265.954 279.089 266.183 278.904 266.339 278.665 C 266.496 278.42 266.574 278.126 266.574 277.782 C 266.574 277.402 266.501 277.092 266.355 276.852 C 266.209 276.613 265.985 276.438 265.683 276.329 C 265.386 276.219 265.006 276.165 264.542 276.165 L 262.644 276.165 L 262.644 285.977 L 260.683 285.977 L 260.683 274.602 L 264.542 274.602 C 265.167 274.602 265.725 274.662 266.214 274.782 C 266.709 274.902 267.128 275.089 267.472 275.344 C 267.821 275.594 268.084 275.912 268.261 276.298 C 268.443 276.683 268.535 277.141 268.535 277.673 C 268.535 278.141 268.423 278.571 268.199 278.962 C 267.975 279.347 267.644 279.662 267.206 279.907 C 266.769 280.152 266.225 280.298 265.574 280.344 L 264.949 280.837 Z M 264.863 285.977 L 261.433 285.977 L 262.316 284.423 L 264.863 284.423 C 265.305 284.423 265.675 284.35 265.972 284.204 C 266.269 284.053 266.49 283.847 266.636 283.587 C 266.787 283.321 266.863 283.011 266.863 282.657 C 266.863 282.287 266.798 281.967 266.667 281.696 C 266.537 281.42 266.331 281.209 266.05 281.063 C 265.769 280.912 265.402 280.837 264.949 280.837 L 262.746 280.837 L 262.761 279.407 L 265.628 279.407 L 266.074 279.946 C 266.699 279.967 267.212 280.105 267.613 280.36 C 268.019 280.615 268.321 280.946 268.519 281.352 C 268.717 281.759 268.816 282.196 268.816 282.665 C 268.816 283.389 268.657 283.996 268.339 284.485 C 268.027 284.975 267.576 285.347 266.988 285.602 C 266.399 285.852 265.691 285.977 264.863 285.977 Z M 275.371 284.282 L 275.371 280.251 C 275.371 279.949 275.316 279.688 275.206 279.469 C 275.097 279.251 274.93 279.081 274.706 278.962 C 274.488 278.842 274.212 278.782 273.878 278.782 C 273.571 278.782 273.305 278.834 273.081 278.938 C 272.857 279.042 272.683 279.183 272.558 279.36 C 272.433 279.537 272.371 279.738 272.371 279.962 L 270.496 279.962 C 270.496 279.628 270.576 279.305 270.738 278.993 C 270.899 278.68 271.134 278.402 271.441 278.157 C 271.748 277.912 272.115 277.719 272.542 277.579 C 272.969 277.438 273.449 277.368 273.98 277.368 C 274.615 277.368 275.178 277.475 275.667 277.688 C 276.162 277.902 276.55 278.225 276.831 278.657 C 277.118 279.084 277.261 279.621 277.261 280.266 L 277.261 284.024 C 277.261 284.41 277.287 284.756 277.339 285.063 C 277.397 285.365 277.477 285.628 277.581 285.852 L 277.581 285.977 L 275.652 285.977 C 275.563 285.774 275.493 285.516 275.441 285.204 C 275.394 284.886 275.371 284.579 275.371 284.282 Z M 275.644 280.837 L 275.66 282.001 L 274.308 282.001 C 273.959 282.001 273.652 282.035 273.386 282.102 C 273.121 282.165 272.899 282.259 272.722 282.384 C 272.545 282.509 272.412 282.66 272.324 282.837 C 272.235 283.014 272.191 283.214 272.191 283.438 C 272.191 283.662 272.243 283.868 272.347 284.055 C 272.451 284.238 272.602 284.381 272.8 284.485 C 273.003 284.589 273.248 284.641 273.535 284.641 C 273.92 284.641 274.256 284.563 274.542 284.407 C 274.834 284.246 275.063 284.05 275.23 283.821 C 275.397 283.587 275.485 283.365 275.496 283.157 L 276.105 283.993 C 276.042 284.206 275.936 284.436 275.785 284.68 C 275.634 284.925 275.436 285.16 275.191 285.384 C 274.951 285.602 274.662 285.782 274.324 285.923 C 273.99 286.063 273.605 286.134 273.167 286.134 C 272.615 286.134 272.123 286.024 271.691 285.805 C 271.259 285.581 270.92 285.282 270.675 284.907 C 270.43 284.527 270.308 284.097 270.308 283.618 C 270.308 283.17 270.391 282.774 270.558 282.43 C 270.73 282.081 270.98 281.79 271.308 281.555 C 271.641 281.321 272.048 281.144 272.527 281.024 C 273.006 280.899 273.553 280.837 274.167 280.837 L 275.644 280.837 Z M 282.683 284.634 C 282.99 284.634 283.266 284.574 283.511 284.454 C 283.761 284.329 283.962 284.157 284.113 283.938 C 284.269 283.719 284.355 283.467 284.371 283.18 L 286.144 283.18 C 286.134 283.727 285.972 284.225 285.66 284.673 C 285.347 285.121 284.933 285.477 284.417 285.743 C 283.902 286.003 283.331 286.134 282.706 286.134 C 282.061 286.134 281.498 286.024 281.019 285.805 C 280.54 285.581 280.141 285.274 279.824 284.884 C 279.506 284.493 279.266 284.042 279.105 283.532 C 278.949 283.022 278.871 282.475 278.871 281.891 L 278.871 281.618 C 278.871 281.035 278.949 280.488 279.105 279.977 C 279.266 279.462 279.506 279.009 279.824 278.618 C 280.141 278.227 280.54 277.923 281.019 277.704 C 281.498 277.48 282.058 277.368 282.699 277.368 C 283.376 277.368 283.969 277.503 284.48 277.774 C 284.99 278.04 285.391 278.412 285.683 278.891 C 285.98 279.365 286.134 279.917 286.144 280.548 L 284.371 280.548 C 284.355 280.235 284.277 279.954 284.136 279.704 C 284.001 279.449 283.808 279.246 283.558 279.094 C 283.313 278.943 283.019 278.868 282.675 278.868 C 282.295 278.868 281.98 278.946 281.73 279.102 C 281.48 279.253 281.285 279.462 281.144 279.727 C 281.003 279.988 280.902 280.282 280.839 280.61 C 280.782 280.933 280.753 281.269 280.753 281.618 L 280.753 281.891 C 280.753 282.24 280.782 282.579 280.839 282.907 C 280.897 283.235 280.996 283.529 281.136 283.79 C 281.282 284.045 281.48 284.251 281.73 284.407 C 281.98 284.558 282.298 284.634 282.683 284.634 Z M 289.535 283.227 L 292.855 277.524 L 294.738 277.524 L 294.738 285.977 L 292.855 285.977 L 292.855 280.266 L 289.535 285.977 L 287.652 285.977 L 287.652 277.524 L 289.535 277.524 L 289.535 283.227 Z M 302.41 277.524 L 302.41 279.024 L 298.285 279.024 L 298.285 277.524 L 302.41 277.524 Z M 303.886 277.524 L 303.886 285.977 L 302.003 285.977 L 302.003 277.524 L 303.886 277.524 Z M 297.824 277.524 L 299.683 277.524 L 299.456 281.704 C 299.425 282.324 299.363 282.871 299.269 283.344 C 299.18 283.813 299.061 284.217 298.91 284.555 C 298.759 284.889 298.574 285.16 298.355 285.368 C 298.136 285.576 297.881 285.73 297.589 285.829 C 297.298 285.928 296.969 285.977 296.605 285.977 L 296.019 285.977 L 296.011 284.43 L 296.308 284.407 C 296.501 284.391 296.667 284.342 296.808 284.259 C 296.949 284.17 297.068 284.045 297.167 283.884 C 297.272 283.722 297.355 283.514 297.417 283.259 C 297.485 283.003 297.537 282.701 297.574 282.352 C 297.615 282.003 297.647 281.597 297.667 281.134 L 297.824 277.524 Z M 317.519 274.602 L 317.519 276.165 L 312.066 276.165 L 312.066 274.602 L 317.519 274.602 Z M 319.019 274.602 L 319.019 285.977 L 317.058 285.977 L 317.058 274.602 L 319.019 274.602 Z M 311.675 274.602 L 313.621 274.602 L 313.347 280.251 C 313.311 281.079 313.24 281.808 313.136 282.438 C 313.032 283.068 312.891 283.608 312.714 284.055 C 312.537 284.503 312.313 284.871 312.042 285.157 C 311.772 285.438 311.446 285.647 311.066 285.782 C 310.691 285.912 310.251 285.977 309.746 285.977 L 309.246 285.977 L 309.246 284.423 L 309.55 284.399 C 309.826 284.378 310.063 284.313 310.261 284.204 C 310.464 284.089 310.636 283.923 310.777 283.704 C 310.917 283.48 311.035 283.191 311.128 282.837 C 311.222 282.483 311.295 282.05 311.347 281.54 C 311.404 281.029 311.446 280.433 311.472 279.751 L 311.675 274.602 Z M 324.91 286.134 C 324.285 286.134 323.719 286.032 323.214 285.829 C 322.714 285.621 322.287 285.331 321.933 284.962 C 321.584 284.592 321.316 284.157 321.128 283.657 C 320.941 283.157 320.847 282.618 320.847 282.04 L 320.847 281.727 C 320.847 281.066 320.943 280.467 321.136 279.93 C 321.329 279.394 321.597 278.936 321.941 278.555 C 322.285 278.17 322.691 277.876 323.16 277.673 C 323.628 277.469 324.136 277.368 324.683 277.368 C 325.287 277.368 325.816 277.469 326.269 277.673 C 326.722 277.876 327.097 278.162 327.394 278.532 C 327.696 278.897 327.92 279.331 328.066 279.837 C 328.217 280.342 328.292 280.899 328.292 281.509 L 328.292 282.313 L 321.761 282.313 L 321.761 280.962 L 326.433 280.962 L 326.433 280.813 C 326.423 280.475 326.355 280.157 326.23 279.86 C 326.11 279.563 325.925 279.324 325.675 279.141 C 325.425 278.959 325.092 278.868 324.675 278.868 C 324.363 278.868 324.084 278.936 323.839 279.071 C 323.6 279.201 323.399 279.391 323.238 279.641 C 323.076 279.891 322.951 280.193 322.863 280.548 C 322.779 280.897 322.738 281.29 322.738 281.727 L 322.738 282.04 C 322.738 282.41 322.787 282.753 322.886 283.071 C 322.99 283.384 323.141 283.657 323.339 283.891 C 323.537 284.126 323.777 284.311 324.058 284.446 C 324.339 284.576 324.66 284.641 325.019 284.641 C 325.472 284.641 325.876 284.55 326.23 284.368 C 326.584 284.186 326.891 283.928 327.152 283.594 L 328.144 284.555 C 327.962 284.821 327.725 285.076 327.433 285.321 C 327.141 285.561 326.785 285.756 326.363 285.907 C 325.946 286.058 325.462 286.134 324.91 286.134 Z M 333.871 282.36 L 331.167 282.36 L 331.152 281.032 L 333.371 281.032 C 333.735 281.032 334.035 280.996 334.269 280.923 C 334.509 280.85 334.686 280.74 334.8 280.594 C 334.915 280.443 334.972 280.261 334.972 280.048 C 334.972 279.871 334.938 279.717 334.871 279.587 C 334.803 279.451 334.699 279.342 334.558 279.259 C 334.423 279.17 334.251 279.108 334.042 279.071 C 333.839 279.029 333.602 279.009 333.331 279.009 L 331.792 279.009 L 331.792 285.977 L 329.91 285.977 L 329.91 277.524 L 333.331 277.524 C 333.873 277.524 334.36 277.571 334.792 277.665 C 335.23 277.759 335.602 277.902 335.91 278.094 C 336.217 278.287 336.451 278.532 336.613 278.829 C 336.779 279.121 336.863 279.464 336.863 279.86 C 336.863 280.121 336.805 280.365 336.691 280.594 C 336.581 280.824 336.417 281.027 336.199 281.204 C 335.98 281.381 335.712 281.527 335.394 281.641 C 335.076 281.751 334.712 281.818 334.3 281.844 L 333.871 282.36 Z M 333.871 285.977 L 330.621 285.977 L 331.371 284.493 L 333.871 284.493 C 334.204 284.493 334.48 284.451 334.699 284.368 C 334.917 284.285 335.079 284.165 335.183 284.009 C 335.292 283.847 335.347 283.657 335.347 283.438 C 335.347 283.214 335.295 283.022 335.191 282.86 C 335.087 282.699 334.925 282.576 334.706 282.493 C 334.493 282.404 334.214 282.36 333.871 282.36 L 331.722 282.36 L 331.738 281.032 L 334.292 281.032 L 334.831 281.548 C 335.368 281.584 335.813 281.699 336.167 281.891 C 336.522 282.084 336.787 282.326 336.964 282.618 C 337.141 282.91 337.23 283.227 337.23 283.571 C 337.23 283.967 337.154 284.316 337.003 284.618 C 336.857 284.92 336.639 285.173 336.347 285.376 C 336.061 285.574 335.709 285.725 335.292 285.829 C 334.876 285.928 334.402 285.977 333.871 285.977 Z M 342.308 284.634 C 342.615 284.634 342.891 284.574 343.136 284.454 C 343.386 284.329 343.587 284.157 343.738 283.938 C 343.894 283.719 343.98 283.467 343.996 283.18 L 345.769 283.18 C 345.759 283.727 345.597 284.225 345.285 284.673 C 344.972 285.121 344.558 285.477 344.042 285.743 C 343.527 286.003 342.956 286.134 342.331 286.134 C 341.686 286.134 341.123 286.024 340.644 285.805 C 340.165 285.581 339.766 285.274 339.449 284.884 C 339.131 284.493 338.891 284.042 338.73 283.532 C 338.574 283.022 338.496 282.475 338.496 281.891 L 338.496 281.618 C 338.496 281.035 338.574 280.488 338.73 279.977 C 338.891 279.462 339.131 279.009 339.449 278.618 C 339.766 278.227 340.165 277.923 340.644 277.704 C 341.123 277.48 341.683 277.368 342.324 277.368 C 343.001 277.368 343.594 277.503 344.105 277.774 C 344.615 278.04 345.016 278.412 345.308 278.891 C 345.605 279.365 345.759 279.917 345.769 280.548 L 343.996 280.548 C 343.98 280.235 343.902 279.954 343.761 279.704 C 343.626 279.449 343.433 279.246 343.183 279.094 C 342.938 278.943 342.644 278.868 342.3 278.868 C 341.92 278.868 341.605 278.946 341.355 279.102 C 341.105 279.253 340.91 279.462 340.769 279.727 C 340.628 279.988 340.527 280.282 340.464 280.61 C 340.407 280.933 340.378 281.269 340.378 281.618 L 340.378 281.891 C 340.378 282.24 340.407 282.579 340.464 282.907 C 340.522 283.235 340.621 283.529 340.761 283.79 C 340.907 284.045 341.105 284.251 341.355 284.407 C 341.605 284.558 341.923 284.634 342.308 284.634 Z M 349.246 277.524 L 349.246 285.977 L 347.363 285.977 L 347.363 277.524 L 349.246 277.524 Z M 354.761 277.524 L 350.956 282.61 L 348.808 282.61 L 348.558 280.907 L 350.128 280.907 L 352.41 277.524 L 354.761 277.524 Z M 352.558 285.977 L 350.011 282.29 L 351.496 281.219 L 355.035 285.977 L 352.558 285.977 Z M 358.003 283.227 L 361.324 277.524 L 363.206 277.524 L 363.206 285.977 L 361.324 285.977 L 361.324 280.266 L 358.003 285.977 L 356.121 285.977 L 356.121 277.524 L 358.003 277.524 L 358.003 283.227 Z M 383.355 281.61 L 383.355 282.727 L 378.628 282.727 L 378.628 281.61 L 383.355 281.61 Z M 378.308 277.876 L 378.308 277.227 C 378.308 276.691 378.417 276.217 378.636 275.805 C 378.86 275.389 379.173 275.063 379.574 274.829 C 379.975 274.594 380.449 274.477 380.996 274.477 C 381.553 274.477 382.029 274.594 382.425 274.829 C 382.826 275.063 383.136 275.389 383.355 275.805 C 383.574 276.217 383.683 276.691 383.683 277.227 L 383.683 277.876 C 383.683 278.412 383.574 278.886 383.355 279.298 C 383.141 279.709 382.834 280.032 382.433 280.266 C 382.037 280.501 381.563 280.618 381.011 280.618 C 380.459 280.618 379.98 280.501 379.574 280.266 C 379.173 280.032 378.86 279.709 378.636 279.298 C 378.417 278.886 378.308 278.412 378.308 277.876 Z M 379.621 277.227 L 379.621 277.876 C 379.621 278.193 379.67 278.475 379.769 278.719 C 379.868 278.964 380.022 279.157 380.23 279.298 C 380.438 279.438 380.699 279.509 381.011 279.509 C 381.318 279.509 381.574 279.438 381.777 279.298 C 381.98 279.157 382.131 278.964 382.23 278.719 C 382.329 278.475 382.378 278.193 382.378 277.876 L 382.378 277.227 C 382.378 276.915 382.326 276.636 382.222 276.391 C 382.123 276.147 381.972 275.954 381.769 275.813 C 381.566 275.667 381.308 275.594 380.996 275.594 C 380.688 275.594 380.43 275.667 380.222 275.813 C 380.019 275.954 379.868 276.147 379.769 276.391 C 379.67 276.636 379.621 276.915 379.621 277.227 Z M 377.214 274.602 L 377.214 285.977 L 375.144 285.977 L 371.23 277.829 L 371.23 285.977 L 369.339 285.977 L 369.339 274.602 L 371.41 274.602 L 375.331 282.766 L 375.331 274.602 L 377.214 274.602 Z M 390.542 274.563 L 390.542 285.977 L 388.66 285.977 L 388.66 276.798 L 385.871 277.743 L 385.871 276.188 L 390.316 274.563 L 390.542 274.563 Z M 402.121 284.477 L 402.121 285.977 L 394.496 285.977 L 394.496 284.688 L 398.199 280.649 C 398.605 280.191 398.925 279.795 399.16 279.462 C 399.394 279.128 399.558 278.829 399.652 278.563 C 399.751 278.292 399.8 278.029 399.8 277.774 C 399.8 277.415 399.732 277.1 399.597 276.829 C 399.467 276.553 399.274 276.337 399.019 276.18 C 398.764 276.019 398.454 275.938 398.089 275.938 C 397.667 275.938 397.313 276.029 397.027 276.212 C 396.74 276.394 396.524 276.647 396.378 276.969 C 396.232 277.287 396.16 277.652 396.16 278.063 L 394.277 278.063 C 394.277 277.402 394.428 276.798 394.73 276.251 C 395.032 275.699 395.469 275.261 396.042 274.938 C 396.615 274.61 397.305 274.446 398.113 274.446 C 398.873 274.446 399.519 274.574 400.05 274.829 C 400.581 275.084 400.985 275.446 401.261 275.915 C 401.542 276.384 401.683 276.938 401.683 277.579 C 401.683 277.933 401.626 278.285 401.511 278.634 C 401.397 278.983 401.232 279.331 401.019 279.68 C 400.811 280.024 400.563 280.371 400.277 280.719 C 399.99 281.063 399.675 281.412 399.331 281.766 L 396.871 284.477 L 402.121 284.477 Z M 405.8 279.438 L 406.925 279.438 C 407.363 279.438 407.725 279.363 408.011 279.212 C 408.303 279.061 408.519 278.852 408.66 278.587 C 408.8 278.321 408.871 278.016 408.871 277.673 C 408.871 277.313 408.805 277.006 408.675 276.751 C 408.55 276.49 408.357 276.29 408.097 276.149 C 407.842 276.009 407.516 275.938 407.121 275.938 C 406.787 275.938 406.485 276.006 406.214 276.141 C 405.949 276.272 405.738 276.459 405.581 276.704 C 405.425 276.943 405.347 277.23 405.347 277.563 L 403.456 277.563 C 403.456 276.959 403.615 276.423 403.933 275.954 C 404.251 275.485 404.683 275.118 405.23 274.852 C 405.782 274.581 406.402 274.446 407.089 274.446 C 407.824 274.446 408.464 274.568 409.011 274.813 C 409.563 275.053 409.993 275.412 410.3 275.891 C 410.607 276.371 410.761 276.964 410.761 277.673 C 410.761 277.996 410.686 278.324 410.535 278.657 C 410.384 278.99 410.16 279.295 409.863 279.571 C 409.566 279.842 409.196 280.063 408.753 280.235 C 408.311 280.402 407.798 280.485 407.214 280.485 L 405.8 280.485 L 405.8 279.438 Z M 405.8 280.907 L 405.8 279.876 L 407.214 279.876 C 407.881 279.876 408.449 279.954 408.917 280.11 C 409.391 280.266 409.777 280.483 410.074 280.759 C 410.371 281.029 410.587 281.339 410.722 281.688 C 410.863 282.037 410.933 282.407 410.933 282.798 C 410.933 283.329 410.837 283.803 410.644 284.219 C 410.456 284.631 410.188 284.98 409.839 285.266 C 409.49 285.553 409.081 285.769 408.613 285.915 C 408.149 286.061 407.644 286.134 407.097 286.134 C 406.607 286.134 406.139 286.066 405.691 285.93 C 405.243 285.795 404.842 285.594 404.488 285.329 C 404.134 285.058 403.852 284.722 403.644 284.321 C 403.441 283.915 403.339 283.446 403.339 282.915 L 405.222 282.915 C 405.222 283.253 405.3 283.553 405.456 283.813 C 405.618 284.068 405.842 284.269 406.128 284.415 C 406.42 284.561 406.753 284.634 407.128 284.634 C 407.524 284.634 407.865 284.563 408.152 284.423 C 408.438 284.282 408.657 284.074 408.808 283.798 C 408.964 283.522 409.042 283.188 409.042 282.798 C 409.042 282.355 408.956 281.996 408.785 281.719 C 408.613 281.443 408.368 281.24 408.05 281.11 C 407.732 280.975 407.357 280.907 406.925 280.907 L 405.8 280.907 Z" fill="#EDEDED" transform="matrix(1, 0, 0, 1, 0, 7.105427357601002e-15)"/>
  <path fill-rule="evenodd" clip-rule="evenodd" d="M 462.154 268.536 C 461.567 268.536 461.089 268.058 461.089 267.471 C 461.089 266.884 461.567 266.406 462.154 266.406 C 462.741 266.406 463.219 266.884 463.219 267.471 C 463.219 268.058 462.741 268.536 462.154 268.536 Z M 462.154 264.276 C 460.389 264.276 458.958 265.706 458.958 267.471 C 458.958 269.236 460.389 270.667 462.154 270.667 C 463.919 270.667 465.349 269.236 465.349 267.471 C 465.349 265.706 463.919 264.276 462.154 264.276 Z M 462.154 277.447 C 462.154 277.447 456.828 269.99 456.828 266.795 C 456.828 263.858 459.217 261.469 462.154 261.469 C 465.09 261.469 467.48 263.858 467.48 266.795 C 467.48 269.99 462.154 277.447 462.154 277.447 Z M 462.154 259.339 C 458.036 259.339 454.698 262.677 454.698 266.795 C 454.698 270.913 462.154 280.642 462.154 280.642 C 462.154 280.642 469.61 270.913 469.61 266.795 C 469.61 262.677 466.272 259.339 462.154 259.339 Z" fill="white" transform="matrix(1, 0, 0, 1, 0, 7.105427357601002e-15)"/>
  <g filter="url(#filter0_d_240_1967)" transform="matrix(1, 0, 0, 1, 143.3032095328452, 219.95842307744056)">
    <path d="M78.0981 49.8479C78.0981 65.8232 65.1476 78.7737 49.1723 78.7737C33.197 78.7737 20.2465 65.8232 20.2465 49.8479C20.2465 33.8726 33.197 20.9221 49.1723 20.9221C65.1476 20.9221 78.0981 33.8726 78.0981 49.8479Z" fill="#008AEE"/>
    <path d="M49.9813 85.6379C49.5557 86.1334 48.7888 86.1334 48.3632 85.6379L41.4863 77.6324C40.8921 76.9408 41.3835 75.8708 42.2953 75.8708H56.0491C56.9609 75.8708 57.4523 76.9408 56.8582 77.6324L49.9813 85.6379Z" fill="#008AEE"/>
  </g>
  <path fill-rule="evenodd" clip-rule="evenodd" d="M 188.735 252.545 C 189.942 252.284 191.192 252.146 192.476 252.146 C 193.904 252.146 195.293 252.317 196.623 252.637 L 196.623 255.041 C 197.902 255.4 199.114 255.92 200.233 256.581 L 201.923 254.889 C 204.167 256.317 206.067 258.239 207.47 260.502 L 205.777 262.198 C 206.414 263.312 206.916 264.512 207.258 265.779 L 209.654 265.779 C 209.955 267.072 210.116 268.421 210.116 269.806 C 210.116 271.136 209.968 272.43 209.69 273.675 L 207.304 273.675 C 206.97 274.962 206.47 276.182 205.834 277.314 L 207.53 279.013 C 206.142 281.286 204.254 283.219 202.019 284.661 L 200.333 282.974 C 199.184 283.661 197.94 284.201 196.623 284.571 L 196.623 286.975 C 195.293 287.296 193.904 287.467 192.476 287.467 C 191.192 287.467 189.942 287.328 188.735 287.067 L 188.735 284.682 C 188.083 284.518 187.449 284.311 186.832 284.065 L 189.576 281.319 C 190.505 281.552 191.476 281.678 192.476 281.678 C 199.024 281.678 204.334 276.363 204.334 269.806 C 204.334 263.249 199.024 257.934 192.476 257.934 C 185.926 257.934 180.617 263.249 180.617 269.806 C 180.617 270.872 180.761 271.904 181.022 272.886 L 178.296 275.617 C 178.039 274.99 177.82 274.342 177.648 273.675 L 175.262 273.675 C 174.984 272.43 174.836 271.136 174.836 269.806 C 174.836 268.421 174.996 267.072 175.297 265.779 L 177.692 265.779 C 178.063 264.414 178.614 263.125 179.325 261.94 L 177.637 260.252 C 179.078 258.015 181.008 256.124 183.279 254.733 L 184.975 256.432 C 186.143 255.775 187.405 255.264 188.735 254.93 L 188.735 252.545 Z" fill="white" transform="matrix(1, 0, 0, 1, 0, 7.105427357601002e-15)"/>
  <path fill-rule="evenodd" clip-rule="evenodd" d="M 192.847 262.359 C 193.561 262.359 194.276 262.465 194.965 262.677 L 190.432 267.214 L 191.437 270.968 L 195.186 271.973 L 199.719 267.436 C 199.895 268.011 199.998 268.604 200.028 269.2 L 200.037 269.558 C 200.037 271.297 199.411 273.036 198.159 274.407 L 197.932 274.645 C 196.047 276.532 193.376 277.151 190.975 276.504 L 190.709 276.427 L 181.576 285.561 C 179.792 284.451 178.258 282.974 177.08 281.236 L 176.833 280.859 L 185.984 271.697 C 185.245 269.314 185.77 266.622 187.561 264.678 L 187.765 264.465 C 189.09 263.139 190.804 262.439 192.54 262.365 L 192.847 262.359 Z" fill="white" transform="matrix(1, 0, 0, 1, 0, 7.105427357601002e-15)"/>
  <path d="M 1052.3 137.068 L 784.363 137.068 C 768.583 137.068 755.79 149.86 755.79 165.641 C 755.79 181.421 768.583 194.214 784.363 194.214 L 1052.3 194.214 L 1052.3 137.068 Z" fill="url(#paint0_linear_240_2024)" transform="matrix(1, 0, 0, 1, 0, 7.105427357601002e-15)"/>
  <path d="M 800.007 150.015 L 802.24 150.015 L 805.527 159.41 L 808.814 150.015 L 811.046 150.015 L 806.423 162.812 L 804.63 162.812 L 800.007 150.015 Z M 798.803 150.015 L 801.027 150.015 L 801.431 159.173 L 801.431 162.812 L 798.803 162.812 L 798.803 150.015 Z M 810.027 150.015 L 812.259 150.015 L 812.259 162.812 L 809.622 162.812 L 809.622 159.173 L 810.027 150.015 Z M 823.158 160.755 L 823.158 162.812 L 816.346 162.812 L 816.346 160.755 L 823.158 160.755 Z M 817.207 150.015 L 817.207 162.812 L 814.571 162.812 L 814.571 150.015 L 817.207 150.015 Z M 822.27 155.227 L 822.27 157.231 L 816.346 157.231 L 816.346 155.227 L 822.27 155.227 Z M 823.149 150.015 L 823.149 152.08 L 816.346 152.08 L 816.346 150.015 L 823.149 150.015 Z M 834.838 156.123 L 834.838 161.195 C 834.639 161.435 834.331 161.696 833.915 161.977 C 833.499 162.252 832.963 162.49 832.307 162.689 C 831.651 162.888 830.857 162.988 829.925 162.988 C 829.099 162.988 828.346 162.853 827.666 162.583 C 826.987 162.308 826.401 161.907 825.909 161.379 C 825.422 160.852 825.047 160.207 824.784 159.446 C 824.52 158.678 824.388 157.802 824.388 156.818 L 824.388 156.018 C 824.388 155.034 824.514 154.158 824.766 153.39 C 825.024 152.622 825.39 151.975 825.865 151.448 C 826.339 150.92 826.905 150.519 827.561 150.244 C 828.217 149.968 828.947 149.83 829.749 149.83 C 830.863 149.83 831.777 150.012 832.492 150.375 C 833.206 150.733 833.751 151.231 834.126 151.869 C 834.507 152.502 834.742 153.229 834.829 154.049 L 832.272 154.049 C 832.207 153.616 832.084 153.238 831.903 152.915 C 831.721 152.593 831.46 152.341 831.12 152.16 C 830.786 151.978 830.353 151.887 829.82 151.887 C 829.38 151.887 828.988 151.978 828.642 152.16 C 828.302 152.335 828.015 152.596 827.781 152.942 C 827.546 153.287 827.368 153.715 827.244 154.225 C 827.121 154.735 827.06 155.327 827.06 156 L 827.06 156.818 C 827.06 157.486 827.124 158.077 827.253 158.593 C 827.382 159.103 827.573 159.534 827.825 159.885 C 828.082 160.231 828.399 160.492 828.774 160.667 C 829.149 160.843 829.585 160.931 830.083 160.931 C 830.499 160.931 830.845 160.896 831.12 160.826 C 831.402 160.755 831.627 160.67 831.797 160.571 C 831.973 160.465 832.108 160.366 832.201 160.272 L 832.201 158.004 L 829.793 158.004 L 829.793 156.123 L 834.838 156.123 Z M 842.168 152.203 L 838.688 162.812 L 835.884 162.812 L 840.639 150.015 L 842.423 150.015 L 842.168 152.203 Z M 845.06 162.812 L 841.571 152.203 L 841.289 150.015 L 843.091 150.015 L 847.872 162.812 L 845.06 162.812 Z M 844.902 158.048 L 844.902 160.114 L 838.143 160.114 L 838.143 158.048 L 844.902 158.048 Z M 854.042 158.25 L 850.782 158.25 L 850.782 156.194 L 854.042 156.194 C 854.546 156.194 854.956 156.112 855.273 155.948 C 855.589 155.778 855.821 155.543 855.967 155.244 C 856.114 154.946 856.187 154.609 856.187 154.234 C 856.187 153.853 856.114 153.498 855.967 153.17 C 855.821 152.842 855.589 152.578 855.273 152.379 C 854.956 152.18 854.546 152.08 854.042 152.08 L 851.696 152.08 L 851.696 162.812 L 849.059 162.812 L 849.059 150.015 L 854.042 150.015 C 855.044 150.015 855.903 150.197 856.618 150.56 C 857.338 150.917 857.889 151.412 858.27 152.045 C 858.651 152.678 858.841 153.402 858.841 154.216 C 858.841 155.042 858.651 155.757 858.27 156.361 C 857.889 156.964 857.338 157.43 856.618 157.758 C 855.903 158.086 855.044 158.25 854.042 158.25 Z M 864.405 152.203 L 860.924 162.812 L 858.12 162.812 L 862.875 150.015 L 864.66 150.015 L 864.405 152.203 Z M 867.296 162.812 L 863.807 152.203 L 863.526 150.015 L 865.328 150.015 L 870.109 162.812 L 867.296 162.812 Z M 867.138 158.048 L 867.138 160.114 L 860.379 160.114 L 860.379 158.048 L 867.138 158.048 Z M 871.295 150.015 L 876.068 150.015 C 877.046 150.015 877.887 150.161 878.59 150.454 C 879.299 150.747 879.844 151.181 880.225 151.755 C 880.606 152.329 880.796 153.035 880.796 153.873 C 880.796 154.559 880.679 155.148 880.445 155.64 C 880.216 156.126 879.891 156.534 879.469 156.862 C 879.053 157.184 878.564 157.442 878.001 157.635 L 877.166 158.075 L 873.018 158.075 L 873 156.018 L 876.085 156.018 C 876.548 156.018 876.932 155.936 877.237 155.772 C 877.541 155.608 877.77 155.379 877.922 155.086 C 878.08 154.793 878.16 154.453 878.16 154.067 C 878.16 153.657 878.083 153.302 877.931 153.003 C 877.779 152.704 877.547 152.476 877.237 152.318 C 876.926 152.16 876.537 152.08 876.068 152.08 L 873.932 152.08 L 873.932 162.812 L 871.295 162.812 L 871.295 150.015 Z M 878.45 162.812 L 875.532 157.108 L 878.318 157.09 L 881.271 162.689 L 881.271 162.812 L 878.45 162.812 Z M 888.021 150.015 L 888.021 162.812 L 885.393 162.812 L 885.393 150.015 L 888.021 150.015 Z M 891.958 150.015 L 891.958 152.08 L 881.517 152.08 L 881.517 150.015 L 891.958 150.015 Z M 899.983 159.463 C 899.983 159.235 899.948 159.03 899.877 158.848 C 899.813 158.66 899.69 158.491 899.508 158.338 C 899.327 158.18 899.072 158.025 898.744 157.872 C 898.415 157.72 897.991 157.562 897.469 157.398 C 896.889 157.21 896.338 156.999 895.817 156.765 C 895.301 156.531 894.844 156.258 894.446 155.948 C 894.053 155.631 893.743 155.265 893.514 154.849 C 893.291 154.433 893.18 153.95 893.18 153.399 C 893.18 152.866 893.297 152.382 893.532 151.949 C 893.766 151.509 894.094 151.134 894.516 150.824 C 894.938 150.507 895.436 150.264 896.01 150.094 C 896.59 149.924 897.226 149.839 897.917 149.839 C 898.861 149.839 899.684 150.009 900.387 150.349 C 901.09 150.689 901.635 151.155 902.022 151.746 C 902.414 152.338 902.611 153.015 902.611 153.777 L 899.992 153.777 C 899.992 153.402 899.912 153.074 899.754 152.792 C 899.602 152.505 899.368 152.28 899.051 152.116 C 898.741 151.952 898.348 151.869 897.873 151.869 C 897.416 151.869 897.036 151.94 896.731 152.08 C 896.426 152.215 896.198 152.4 896.045 152.634 C 895.893 152.863 895.817 153.12 895.817 153.408 C 895.817 153.624 895.87 153.821 895.975 153.996 C 896.086 154.172 896.25 154.336 896.467 154.489 C 896.684 154.641 896.951 154.785 897.267 154.919 C 897.583 155.054 897.95 155.186 898.366 155.315 C 899.063 155.526 899.675 155.763 900.203 156.027 C 900.736 156.29 901.181 156.586 901.538 156.914 C 901.896 157.243 902.165 157.615 902.347 158.031 C 902.529 158.447 902.62 158.918 902.62 159.446 C 902.62 160.002 902.511 160.5 902.294 160.94 C 902.078 161.379 901.764 161.751 901.354 162.056 C 900.944 162.361 900.454 162.592 899.886 162.75 C 899.318 162.909 898.682 162.988 897.979 162.988 C 897.346 162.988 896.722 162.906 896.107 162.742 C 895.492 162.572 894.932 162.317 894.428 161.977 C 893.93 161.637 893.532 161.203 893.233 160.676 C 892.934 160.149 892.785 159.525 892.785 158.804 L 895.43 158.804 C 895.43 159.202 895.492 159.539 895.615 159.815 C 895.738 160.09 895.911 160.313 896.133 160.483 C 896.362 160.653 896.631 160.776 896.942 160.852 C 897.258 160.928 897.604 160.966 897.979 160.966 C 898.436 160.966 898.811 160.902 899.104 160.773 C 899.403 160.644 899.622 160.465 899.763 160.237 C 899.91 160.008 899.983 159.75 899.983 159.463 Z M 913.509 160.14 L 916.524 150.015 L 919.459 150.015 L 915.003 162.812 L 913.07 162.812 L 913.509 160.14 Z M 910.732 150.015 L 913.738 160.14 L 914.195 162.812 L 912.244 162.812 L 907.814 150.015 L 910.732 150.015 Z M 925.225 160.667 L 925.225 156.431 C 925.225 156.126 925.175 155.866 925.076 155.649 C 924.976 155.426 924.821 155.253 924.61 155.13 C 924.405 155.007 924.138 154.946 923.81 154.946 C 923.529 154.946 923.286 154.995 923.08 155.095 C 922.875 155.189 922.717 155.327 922.606 155.508 C 922.495 155.684 922.439 155.892 922.439 156.132 L 919.908 156.132 C 919.908 155.728 920.001 155.344 920.189 154.981 C 920.376 154.618 920.649 154.298 921.006 154.023 C 921.364 153.742 921.788 153.522 922.281 153.364 C 922.779 153.205 923.335 153.126 923.951 153.126 C 924.689 153.126 925.345 153.249 925.919 153.495 C 926.494 153.742 926.945 154.111 927.273 154.603 C 927.607 155.095 927.774 155.71 927.774 156.449 L 927.774 160.518 C 927.774 161.039 927.806 161.467 927.87 161.801 C 927.935 162.129 928.029 162.416 928.152 162.662 L 928.152 162.812 L 925.594 162.812 C 925.471 162.554 925.377 162.232 925.313 161.845 C 925.254 161.452 925.225 161.06 925.225 160.667 Z M 925.559 157.02 L 925.577 158.452 L 924.162 158.452 C 923.828 158.452 923.537 158.491 923.291 158.567 C 923.045 158.643 922.843 158.751 922.685 158.892 C 922.527 159.027 922.41 159.185 922.333 159.367 C 922.263 159.548 922.228 159.747 922.228 159.964 C 922.228 160.181 922.278 160.377 922.377 160.553 C 922.477 160.723 922.62 160.858 922.808 160.957 C 922.995 161.051 923.215 161.098 923.467 161.098 C 923.848 161.098 924.179 161.022 924.46 160.869 C 924.742 160.717 924.958 160.53 925.111 160.307 C 925.269 160.084 925.351 159.873 925.357 159.674 L 926.025 160.746 C 925.931 160.987 925.802 161.236 925.638 161.494 C 925.48 161.751 925.278 161.994 925.032 162.223 C 924.786 162.446 924.49 162.63 924.144 162.777 C 923.798 162.917 923.388 162.988 922.913 162.988 C 922.31 162.988 921.762 162.868 921.27 162.627 C 920.784 162.381 920.397 162.044 920.11 161.617 C 919.828 161.183 919.688 160.691 919.688 160.14 C 919.688 159.642 919.782 159.2 919.969 158.813 C 920.157 158.426 920.432 158.101 920.795 157.837 C 921.164 157.568 921.624 157.366 922.175 157.231 C 922.726 157.09 923.365 157.02 924.091 157.02 L 925.559 157.02 Z M 932.256 155.376 L 932.256 162.812 L 929.725 162.812 L 929.725 153.302 L 932.107 153.302 L 932.256 155.376 Z M 935.121 153.241 L 935.078 155.587 C 934.954 155.57 934.805 155.555 934.629 155.543 C 934.459 155.526 934.304 155.517 934.163 155.517 C 933.806 155.517 933.495 155.564 933.232 155.658 C 932.974 155.745 932.757 155.877 932.581 156.053 C 932.412 156.229 932.283 156.443 932.195 156.695 C 932.113 156.947 932.066 157.234 932.054 157.556 L 931.544 157.398 C 931.544 156.783 931.606 156.217 931.729 155.702 C 931.852 155.18 932.031 154.726 932.265 154.339 C 932.505 153.952 932.798 153.654 933.144 153.443 C 933.49 153.232 933.885 153.126 934.33 153.126 C 934.471 153.126 934.615 153.138 934.761 153.161 C 934.908 153.179 935.028 153.205 935.121 153.241 Z M 938.795 155.332 L 938.795 162.812 L 936.264 162.812 L 936.264 153.302 L 938.637 153.302 L 938.795 155.332 Z M 938.426 157.723 L 937.741 157.723 C 937.741 157.02 937.831 156.387 938.013 155.825 C 938.195 155.256 938.45 154.773 938.778 154.374 C 939.106 153.97 939.495 153.662 939.947 153.452 C 940.404 153.235 940.913 153.126 941.476 153.126 C 941.921 153.126 942.328 153.191 942.698 153.32 C 943.067 153.449 943.383 153.654 943.647 153.935 C 943.916 154.216 944.121 154.588 944.262 155.051 C 944.409 155.514 944.482 156.079 944.482 156.747 L 944.482 162.812 L 941.933 162.812 L 941.933 156.739 C 941.933 156.317 941.874 155.989 941.757 155.754 C 941.64 155.52 941.467 155.356 941.239 155.262 C 941.016 155.162 940.741 155.113 940.412 155.113 C 940.073 155.113 939.777 155.18 939.525 155.315 C 939.279 155.45 939.074 155.637 938.91 155.877 C 938.751 156.112 938.631 156.387 938.549 156.703 C 938.467 157.02 938.426 157.36 938.426 157.723 Z M 951.539 160.667 L 951.539 156.431 C 951.539 156.126 951.49 155.866 951.39 155.649 C 951.29 155.426 951.135 155.253 950.924 155.13 C 950.719 155.007 950.453 154.946 950.124 154.946 C 949.843 154.946 949.6 154.995 949.395 155.095 C 949.19 155.189 949.032 155.327 948.92 155.508 C 948.809 155.684 948.753 155.892 948.753 156.132 L 946.222 156.132 C 946.222 155.728 946.316 155.344 946.503 154.981 C 946.691 154.618 946.963 154.298 947.321 154.023 C 947.678 153.742 948.103 153.522 948.595 153.364 C 949.093 153.205 949.65 153.126 950.265 153.126 C 951.003 153.126 951.66 153.249 952.234 153.495 C 952.808 153.742 953.259 154.111 953.587 154.603 C 953.921 155.095 954.088 155.71 954.088 156.449 L 954.088 160.518 C 954.088 161.039 954.12 161.467 954.185 161.801 C 954.249 162.129 954.343 162.416 954.466 162.662 L 954.466 162.812 L 951.909 162.812 C 951.786 162.554 951.692 162.232 951.627 161.845 C 951.569 161.452 951.539 161.06 951.539 160.667 Z M 951.873 157.02 L 951.891 158.452 L 950.476 158.452 C 950.142 158.452 949.852 158.491 949.606 158.567 C 949.36 158.643 949.158 158.751 948.999 158.892 C 948.841 159.027 948.724 159.185 948.648 159.367 C 948.578 159.548 948.542 159.747 948.542 159.964 C 948.542 160.181 948.592 160.377 948.692 160.553 C 948.791 160.723 948.935 160.858 949.122 160.957 C 949.31 161.051 949.53 161.098 949.782 161.098 C 950.162 161.098 950.494 161.022 950.775 160.869 C 951.056 160.717 951.273 160.53 951.425 160.307 C 951.583 160.084 951.665 159.873 951.671 159.674 L 952.339 160.746 C 952.245 160.987 952.117 161.236 951.953 161.494 C 951.794 161.751 951.592 161.994 951.346 162.223 C 951.1 162.446 950.804 162.63 950.458 162.777 C 950.113 162.917 949.703 162.988 949.228 162.988 C 948.624 162.988 948.077 162.868 947.584 162.627 C 947.098 162.381 946.711 162.044 946.424 161.617 C 946.143 161.183 946.002 160.691 946.002 160.14 C 946.002 159.642 946.096 159.2 946.284 158.813 C 946.471 158.426 946.746 158.101 947.11 157.837 C 947.479 157.568 947.939 157.366 948.49 157.231 C 949.04 157.09 949.679 157.02 950.406 157.02 L 951.873 157.02 Z" fill="white" transform="matrix(1, 0, 0, 1, 0, 7.105427357601002e-15)"/>
  <path d="M 801.082 181.232 L 803.379 173.701 L 805.395 173.701 L 802.004 183.443 C 801.926 183.651 801.825 183.878 801.7 184.123 C 801.575 184.367 801.41 184.599 801.207 184.818 C 801.009 185.042 800.762 185.222 800.465 185.357 C 800.168 185.498 799.809 185.568 799.387 185.568 C 799.22 185.568 799.059 185.552 798.903 185.521 C 798.752 185.495 798.608 185.466 798.473 185.435 L 798.465 183.998 C 798.517 184.003 798.58 184.008 798.653 184.013 C 798.731 184.018 798.793 184.021 798.84 184.021 C 799.153 184.021 799.413 183.982 799.621 183.904 C 799.83 183.831 799.999 183.711 800.129 183.544 C 800.265 183.378 800.379 183.154 800.473 182.873 L 801.082 181.232 Z M 799.785 173.701 L 801.793 180.029 L 802.129 182.013 L 800.825 182.349 L 797.754 173.701 L 799.785 173.701 Z M 811.825 173.701 L 811.825 175.201 L 807.7 175.201 L 807.7 173.701 L 811.825 173.701 Z M 813.301 173.701 L 813.301 182.154 L 811.418 182.154 L 811.418 173.701 L 813.301 173.701 Z M 807.239 173.701 L 809.098 173.701 L 808.871 177.88 C 808.84 178.5 808.778 179.047 808.684 179.521 C 808.595 179.99 808.476 180.393 808.325 180.732 C 808.174 181.065 807.989 181.336 807.77 181.544 C 807.551 181.753 807.296 181.906 807.004 182.005 C 806.713 182.104 806.384 182.154 806.02 182.154 L 805.434 182.154 L 805.426 180.607 L 805.723 180.583 C 805.916 180.568 806.082 180.518 806.223 180.435 C 806.364 180.347 806.483 180.222 806.582 180.06 C 806.687 179.899 806.77 179.69 806.832 179.435 C 806.9 179.18 806.952 178.878 806.989 178.529 C 807.03 178.18 807.062 177.774 807.082 177.31 L 807.239 173.701 Z M 815.379 181.216 C 815.379 180.925 815.478 180.68 815.676 180.482 C 815.874 180.279 816.142 180.177 816.481 180.177 C 816.825 180.177 817.093 180.279 817.285 180.482 C 817.483 180.68 817.582 180.925 817.582 181.216 C 817.582 181.508 817.483 181.753 817.285 181.951 C 817.093 182.149 816.825 182.248 816.481 182.248 C 816.142 182.248 815.874 182.149 815.676 181.951 C 815.478 181.753 815.379 181.508 815.379 181.216 Z M 828.192 177.013 L 825.293 177.013 L 825.278 175.583 L 827.809 175.583 C 828.236 175.583 828.598 175.521 828.895 175.396 C 829.197 175.266 829.426 175.081 829.582 174.841 C 829.739 174.597 829.817 174.302 829.817 173.958 C 829.817 173.578 829.744 173.268 829.598 173.029 C 829.452 172.789 829.228 172.615 828.926 172.505 C 828.629 172.396 828.249 172.341 827.785 172.341 L 825.887 172.341 L 825.887 182.154 L 823.926 182.154 L 823.926 170.779 L 827.785 170.779 C 828.41 170.779 828.968 170.839 829.457 170.958 C 829.952 171.078 830.371 171.266 830.715 171.521 C 831.064 171.771 831.327 172.089 831.504 172.474 C 831.687 172.86 831.778 173.318 831.778 173.849 C 831.778 174.318 831.666 174.748 831.442 175.138 C 831.218 175.524 830.887 175.839 830.45 176.083 C 830.012 176.328 829.468 176.474 828.817 176.521 L 828.192 177.013 Z M 828.106 182.154 L 824.676 182.154 L 825.559 180.599 L 828.106 180.599 C 828.549 180.599 828.918 180.526 829.215 180.38 C 829.512 180.229 829.733 180.024 829.879 179.763 C 830.03 179.498 830.106 179.188 830.106 178.833 C 830.106 178.464 830.041 178.143 829.91 177.873 C 829.78 177.597 829.575 177.386 829.293 177.24 C 829.012 177.089 828.645 177.013 828.192 177.013 L 825.989 177.013 L 826.004 175.583 L 828.871 175.583 L 829.317 176.123 C 829.942 176.143 830.455 176.281 830.856 176.537 C 831.262 176.792 831.564 177.123 831.762 177.529 C 831.96 177.935 832.059 178.373 832.059 178.841 C 832.059 179.565 831.9 180.172 831.582 180.662 C 831.27 181.151 830.819 181.524 830.231 181.779 C 829.642 182.029 828.934 182.154 828.106 182.154 Z M 838.614 180.458 L 838.614 176.427 C 838.614 176.125 838.559 175.865 838.45 175.646 C 838.34 175.427 838.174 175.258 837.95 175.138 C 837.731 175.018 837.455 174.958 837.121 174.958 C 836.814 174.958 836.549 175.011 836.325 175.115 C 836.101 175.219 835.926 175.36 835.801 175.537 C 835.676 175.714 835.614 175.914 835.614 176.138 L 833.739 176.138 C 833.739 175.805 833.819 175.482 833.981 175.169 C 834.142 174.857 834.377 174.578 834.684 174.333 C 834.991 174.089 835.358 173.896 835.785 173.755 C 836.213 173.615 836.692 173.544 837.223 173.544 C 837.858 173.544 838.421 173.651 838.91 173.865 C 839.405 174.078 839.793 174.401 840.075 174.833 C 840.361 175.261 840.504 175.797 840.504 176.443 L 840.504 180.201 C 840.504 180.586 840.53 180.932 840.582 181.24 C 840.64 181.542 840.72 181.805 840.825 182.029 L 840.825 182.154 L 838.895 182.154 C 838.806 181.951 838.736 181.693 838.684 181.38 C 838.637 181.063 838.614 180.755 838.614 180.458 Z M 838.887 177.013 L 838.903 178.177 L 837.551 178.177 C 837.202 178.177 836.895 178.211 836.629 178.279 C 836.364 178.341 836.142 178.435 835.965 178.56 C 835.788 178.685 835.655 178.836 835.567 179.013 C 835.478 179.19 835.434 179.391 835.434 179.615 C 835.434 179.839 835.486 180.044 835.59 180.232 C 835.694 180.414 835.845 180.557 836.043 180.662 C 836.246 180.766 836.491 180.818 836.778 180.818 C 837.163 180.818 837.499 180.74 837.785 180.583 C 838.077 180.422 838.306 180.227 838.473 179.998 C 838.64 179.763 838.728 179.542 838.739 179.333 L 839.348 180.169 C 839.285 180.383 839.179 180.612 839.028 180.857 C 838.877 181.102 838.679 181.336 838.434 181.56 C 838.194 181.779 837.905 181.958 837.567 182.099 C 837.233 182.24 836.848 182.31 836.41 182.31 C 835.858 182.31 835.366 182.201 834.934 181.982 C 834.502 181.758 834.163 181.458 833.918 181.083 C 833.674 180.703 833.551 180.274 833.551 179.794 C 833.551 179.347 833.634 178.951 833.801 178.607 C 833.973 178.258 834.223 177.966 834.551 177.732 C 834.884 177.498 835.291 177.32 835.77 177.201 C 836.249 177.076 836.796 177.013 837.41 177.013 L 838.887 177.013 Z M 845.926 180.81 C 846.233 180.81 846.509 180.75 846.754 180.63 C 847.004 180.505 847.205 180.333 847.356 180.115 C 847.512 179.896 847.598 179.643 847.614 179.357 L 849.387 179.357 C 849.377 179.904 849.215 180.401 848.903 180.849 C 848.59 181.297 848.176 181.654 847.66 181.919 C 847.145 182.18 846.575 182.31 845.95 182.31 C 845.304 182.31 844.741 182.201 844.262 181.982 C 843.783 181.758 843.384 181.451 843.067 181.06 C 842.749 180.669 842.509 180.219 842.348 179.708 C 842.192 179.198 842.114 178.651 842.114 178.068 L 842.114 177.794 C 842.114 177.211 842.192 176.664 842.348 176.154 C 842.509 175.638 842.749 175.185 843.067 174.794 C 843.384 174.404 843.783 174.099 844.262 173.88 C 844.741 173.656 845.301 173.544 845.942 173.544 C 846.619 173.544 847.213 173.68 847.723 173.951 C 848.233 174.216 848.634 174.589 848.926 175.068 C 849.223 175.542 849.377 176.094 849.387 176.724 L 847.614 176.724 C 847.598 176.412 847.52 176.13 847.379 175.88 C 847.244 175.625 847.051 175.422 846.801 175.271 C 846.556 175.12 846.262 175.044 845.918 175.044 C 845.538 175.044 845.223 175.123 844.973 175.279 C 844.723 175.43 844.528 175.638 844.387 175.904 C 844.246 176.164 844.145 176.458 844.082 176.787 C 844.025 177.11 843.996 177.445 843.996 177.794 L 843.996 178.068 C 843.996 178.417 844.025 178.755 844.082 179.083 C 844.14 179.412 844.239 179.706 844.379 179.966 C 844.525 180.222 844.723 180.427 844.973 180.583 C 845.223 180.735 845.541 180.81 845.926 180.81 Z M 852.778 179.404 L 856.098 173.701 L 857.981 173.701 L 857.981 182.154 L 856.098 182.154 L 856.098 176.443 L 852.778 182.154 L 850.895 182.154 L 850.895 173.701 L 852.778 173.701 L 852.778 179.404 Z M 865.653 173.701 L 865.653 175.201 L 861.528 175.201 L 861.528 173.701 L 865.653 173.701 Z M 867.129 173.701 L 867.129 182.154 L 865.246 182.154 L 865.246 173.701 L 867.129 173.701 Z M 861.067 173.701 L 862.926 173.701 L 862.7 177.88 C 862.668 178.5 862.606 179.047 862.512 179.521 C 862.424 179.99 862.304 180.393 862.153 180.732 C 862.002 181.065 861.817 181.336 861.598 181.544 C 861.379 181.753 861.124 181.906 860.832 182.005 C 860.541 182.104 860.213 182.154 859.848 182.154 L 859.262 182.154 L 859.254 180.607 L 859.551 180.583 C 859.744 180.568 859.911 180.518 860.051 180.435 C 860.192 180.347 860.312 180.222 860.411 180.06 C 860.515 179.899 860.598 179.69 860.661 179.435 C 860.728 179.18 860.78 178.878 860.817 178.529 C 860.858 178.18 860.89 177.774 860.911 177.31 L 861.067 173.701 Z M 880.762 170.779 L 880.762 172.341 L 875.309 172.341 L 875.309 170.779 L 880.762 170.779 Z M 882.262 170.779 L 882.262 182.154 L 880.301 182.154 L 880.301 170.779 L 882.262 170.779 Z M 874.918 170.779 L 876.864 170.779 L 876.59 176.427 C 876.554 177.255 876.483 177.985 876.379 178.615 C 876.275 179.245 876.134 179.784 875.957 180.232 C 875.78 180.68 875.556 181.047 875.286 181.333 C 875.015 181.615 874.689 181.823 874.309 181.958 C 873.934 182.089 873.494 182.154 872.989 182.154 L 872.489 182.154 L 872.489 180.599 L 872.793 180.576 C 873.069 180.555 873.306 180.49 873.504 180.38 C 873.707 180.266 873.879 180.099 874.02 179.88 C 874.161 179.656 874.278 179.367 874.371 179.013 C 874.465 178.659 874.538 178.227 874.59 177.716 C 874.648 177.206 874.689 176.61 874.715 175.927 L 874.918 170.779 Z M 888.153 182.31 C 887.528 182.31 886.963 182.208 886.457 182.005 C 885.957 181.797 885.53 181.508 885.176 181.138 C 884.827 180.768 884.559 180.333 884.371 179.833 C 884.184 179.333 884.09 178.794 884.09 178.216 L 884.09 177.904 C 884.09 177.242 884.187 176.643 884.379 176.107 C 884.572 175.57 884.84 175.112 885.184 174.732 C 885.528 174.347 885.934 174.052 886.403 173.849 C 886.871 173.646 887.379 173.544 887.926 173.544 C 888.53 173.544 889.059 173.646 889.512 173.849 C 889.965 174.052 890.34 174.339 890.637 174.708 C 890.939 175.073 891.163 175.508 891.309 176.013 C 891.46 176.518 891.536 177.076 891.536 177.685 L 891.536 178.49 L 885.004 178.49 L 885.004 177.138 L 889.676 177.138 L 889.676 176.99 C 889.666 176.651 889.598 176.333 889.473 176.037 C 889.353 175.74 889.168 175.5 888.918 175.318 C 888.668 175.136 888.335 175.044 887.918 175.044 C 887.606 175.044 887.327 175.112 887.082 175.248 C 886.843 175.378 886.642 175.568 886.481 175.818 C 886.319 176.068 886.194 176.37 886.106 176.724 C 886.023 177.073 885.981 177.466 885.981 177.904 L 885.981 178.216 C 885.981 178.586 886.03 178.93 886.129 179.248 C 886.233 179.56 886.384 179.833 886.582 180.068 C 886.78 180.302 887.02 180.487 887.301 180.623 C 887.582 180.753 887.903 180.818 888.262 180.818 C 888.715 180.818 889.119 180.727 889.473 180.544 C 889.827 180.362 890.134 180.104 890.395 179.771 L 891.387 180.732 C 891.205 180.998 890.968 181.253 890.676 181.498 C 890.384 181.737 890.028 181.932 889.606 182.083 C 889.189 182.235 888.705 182.31 888.153 182.31 Z M 897.114 178.537 L 894.411 178.537 L 894.395 177.208 L 896.614 177.208 C 896.978 177.208 897.278 177.172 897.512 177.099 C 897.752 177.026 897.929 176.917 898.043 176.771 C 898.158 176.62 898.215 176.438 898.215 176.224 C 898.215 176.047 898.181 175.893 898.114 175.763 C 898.046 175.628 897.942 175.518 897.801 175.435 C 897.666 175.347 897.494 175.284 897.286 175.248 C 897.082 175.206 896.845 175.185 896.575 175.185 L 895.036 175.185 L 895.036 182.154 L 893.153 182.154 L 893.153 173.701 L 896.575 173.701 C 897.116 173.701 897.603 173.748 898.036 173.841 C 898.473 173.935 898.845 174.078 899.153 174.271 C 899.46 174.464 899.694 174.708 899.856 175.005 C 900.023 175.297 900.106 175.641 900.106 176.037 C 900.106 176.297 900.049 176.542 899.934 176.771 C 899.825 177 899.661 177.203 899.442 177.38 C 899.223 177.557 898.955 177.703 898.637 177.818 C 898.319 177.927 897.955 177.995 897.543 178.021 L 897.114 178.537 Z M 897.114 182.154 L 893.864 182.154 L 894.614 180.669 L 897.114 180.669 C 897.447 180.669 897.723 180.628 897.942 180.544 C 898.161 180.461 898.322 180.341 898.426 180.185 C 898.536 180.024 898.59 179.833 898.59 179.615 C 898.59 179.391 898.538 179.198 898.434 179.037 C 898.33 178.875 898.168 178.753 897.95 178.669 C 897.736 178.581 897.457 178.537 897.114 178.537 L 894.965 178.537 L 894.981 177.208 L 897.536 177.208 L 898.075 177.724 C 898.611 177.761 899.056 177.875 899.411 178.068 C 899.765 178.261 900.03 178.503 900.207 178.794 C 900.384 179.086 900.473 179.404 900.473 179.748 C 900.473 180.143 900.398 180.492 900.246 180.794 C 900.101 181.097 899.882 181.349 899.59 181.552 C 899.304 181.75 898.952 181.901 898.536 182.005 C 898.119 182.104 897.645 182.154 897.114 182.154 Z M 905.551 180.81 C 905.858 180.81 906.134 180.75 906.379 180.63 C 906.629 180.505 906.83 180.333 906.981 180.115 C 907.137 179.896 907.223 179.643 907.239 179.357 L 909.012 179.357 C 909.002 179.904 908.84 180.401 908.528 180.849 C 908.215 181.297 907.801 181.654 907.286 181.919 C 906.77 182.18 906.2 182.31 905.575 182.31 C 904.929 182.31 904.366 182.201 903.887 181.982 C 903.408 181.758 903.009 181.451 902.692 181.06 C 902.374 180.669 902.134 180.219 901.973 179.708 C 901.817 179.198 901.739 178.651 901.739 178.068 L 901.739 177.794 C 901.739 177.211 901.817 176.664 901.973 176.154 C 902.134 175.638 902.374 175.185 902.692 174.794 C 903.009 174.404 903.408 174.099 903.887 173.88 C 904.366 173.656 904.926 173.544 905.567 173.544 C 906.244 173.544 906.838 173.68 907.348 173.951 C 907.858 174.216 908.259 174.589 908.551 175.068 C 908.848 175.542 909.002 176.094 909.012 176.724 L 907.239 176.724 C 907.223 176.412 907.145 176.13 907.004 175.88 C 906.869 175.625 906.676 175.422 906.426 175.271 C 906.181 175.12 905.887 175.044 905.543 175.044 C 905.163 175.044 904.848 175.123 904.598 175.279 C 904.348 175.43 904.153 175.638 904.012 175.904 C 903.871 176.164 903.77 176.458 903.707 176.787 C 903.65 177.11 903.621 177.445 903.621 177.794 L 903.621 178.068 C 903.621 178.417 903.65 178.755 903.707 179.083 C 903.765 179.412 903.864 179.706 904.004 179.966 C 904.15 180.222 904.348 180.427 904.598 180.583 C 904.848 180.735 905.166 180.81 905.551 180.81 Z M 912.489 173.701 L 912.489 182.154 L 910.606 182.154 L 910.606 173.701 L 912.489 173.701 Z M 918.004 173.701 L 914.2 178.787 L 912.051 178.787 L 911.801 177.083 L 913.371 177.083 L 915.653 173.701 L 918.004 173.701 Z M 915.801 182.154 L 913.254 178.466 L 914.739 177.396 L 918.278 182.154 L 915.801 182.154 Z M 921.246 179.404 L 924.567 173.701 L 926.45 173.701 L 926.45 182.154 L 924.567 182.154 L 924.567 176.443 L 921.246 182.154 L 919.364 182.154 L 919.364 173.701 L 921.246 173.701 L 921.246 179.404 Z M 946.598 177.787 L 946.598 178.904 L 941.871 178.904 L 941.871 177.787 L 946.598 177.787 Z M 941.551 174.052 L 941.551 173.404 C 941.551 172.867 941.661 172.393 941.879 171.982 C 942.103 171.565 942.416 171.24 942.817 171.005 C 943.218 170.771 943.692 170.654 944.239 170.654 C 944.796 170.654 945.273 170.771 945.668 171.005 C 946.069 171.24 946.379 171.565 946.598 171.982 C 946.817 172.393 946.926 172.867 946.926 173.404 L 946.926 174.052 C 946.926 174.589 946.817 175.063 946.598 175.474 C 946.384 175.886 946.077 176.208 945.676 176.443 C 945.28 176.677 944.806 176.794 944.254 176.794 C 943.702 176.794 943.223 176.677 942.817 176.443 C 942.416 176.208 942.103 175.886 941.879 175.474 C 941.661 175.063 941.551 174.589 941.551 174.052 Z M 942.864 173.404 L 942.864 174.052 C 942.864 174.37 942.913 174.651 943.012 174.896 C 943.111 175.141 943.265 175.333 943.473 175.474 C 943.681 175.615 943.942 175.685 944.254 175.685 C 944.562 175.685 944.817 175.615 945.02 175.474 C 945.223 175.333 945.374 175.141 945.473 174.896 C 945.572 174.651 945.621 174.37 945.621 174.052 L 945.621 173.404 C 945.621 173.091 945.569 172.813 945.465 172.568 C 945.366 172.323 945.215 172.13 945.012 171.99 C 944.809 171.844 944.551 171.771 944.239 171.771 C 943.931 171.771 943.674 171.844 943.465 171.99 C 943.262 172.13 943.111 172.323 943.012 172.568 C 942.913 172.813 942.864 173.091 942.864 173.404 Z M 940.457 170.779 L 940.457 182.154 L 938.387 182.154 L 934.473 174.005 L 934.473 182.154 L 932.582 182.154 L 932.582 170.779 L 934.653 170.779 L 938.575 178.943 L 938.575 170.779 L 940.457 170.779 Z M 953.786 170.74 L 953.786 182.154 L 951.903 182.154 L 951.903 172.974 L 949.114 173.919 L 949.114 172.365 L 953.559 170.74 L 953.786 170.74 Z M 965.364 180.654 L 965.364 182.154 L 957.739 182.154 L 957.739 180.865 L 961.442 176.826 C 961.848 176.367 962.168 175.972 962.403 175.638 C 962.637 175.305 962.801 175.005 962.895 174.74 C 962.994 174.469 963.043 174.206 963.043 173.951 C 963.043 173.591 962.976 173.276 962.84 173.005 C 962.71 172.729 962.517 172.513 962.262 172.357 C 962.007 172.195 961.697 172.115 961.332 172.115 C 960.911 172.115 960.556 172.206 960.27 172.388 C 959.983 172.57 959.767 172.823 959.621 173.146 C 959.476 173.464 959.403 173.828 959.403 174.24 L 957.52 174.24 C 957.52 173.578 957.671 172.974 957.973 172.427 C 958.275 171.875 958.713 171.438 959.286 171.115 C 959.858 170.787 960.549 170.623 961.356 170.623 C 962.116 170.623 962.762 170.75 963.293 171.005 C 963.825 171.261 964.228 171.623 964.504 172.091 C 964.786 172.56 964.926 173.115 964.926 173.755 C 964.926 174.11 964.869 174.461 964.754 174.81 C 964.64 175.159 964.476 175.508 964.262 175.857 C 964.054 176.201 963.806 176.547 963.52 176.896 C 963.233 177.24 962.918 177.589 962.575 177.943 L 960.114 180.654 L 965.364 180.654 Z M 969.043 175.615 L 970.168 175.615 C 970.606 175.615 970.968 175.539 971.254 175.388 C 971.546 175.237 971.762 175.029 971.903 174.763 C 972.043 174.498 972.114 174.193 972.114 173.849 C 972.114 173.49 972.049 173.182 971.918 172.927 C 971.793 172.667 971.601 172.466 971.34 172.326 C 971.085 172.185 970.759 172.115 970.364 172.115 C 970.03 172.115 969.728 172.182 969.457 172.318 C 969.192 172.448 968.981 172.636 968.825 172.88 C 968.668 173.12 968.59 173.406 968.59 173.74 L 966.7 173.74 C 966.7 173.136 966.858 172.599 967.176 172.13 C 967.494 171.662 967.926 171.294 968.473 171.029 C 969.025 170.758 969.645 170.623 970.332 170.623 C 971.067 170.623 971.707 170.745 972.254 170.99 C 972.806 171.229 973.236 171.589 973.543 172.068 C 973.851 172.547 974.004 173.141 974.004 173.849 C 974.004 174.172 973.929 174.5 973.778 174.833 C 973.627 175.167 973.403 175.472 973.106 175.748 C 972.809 176.018 972.439 176.24 971.996 176.412 C 971.554 176.578 971.041 176.662 970.457 176.662 L 969.043 176.662 L 969.043 175.615 Z M 969.043 177.083 L 969.043 176.052 L 970.457 176.052 C 971.124 176.052 971.692 176.13 972.161 176.287 C 972.634 176.443 973.02 176.659 973.317 176.935 C 973.614 177.206 973.83 177.516 973.965 177.865 C 974.106 178.214 974.176 178.583 974.176 178.974 C 974.176 179.505 974.08 179.979 973.887 180.396 C 973.7 180.807 973.431 181.156 973.082 181.443 C 972.733 181.729 972.325 181.945 971.856 182.091 C 971.392 182.237 970.887 182.31 970.34 182.31 C 969.851 182.31 969.382 182.242 968.934 182.107 C 968.486 181.972 968.085 181.771 967.731 181.505 C 967.377 181.235 967.095 180.899 966.887 180.498 C 966.684 180.091 966.582 179.623 966.582 179.091 L 968.465 179.091 C 968.465 179.43 968.543 179.729 968.7 179.99 C 968.861 180.245 969.085 180.445 969.371 180.591 C 969.663 180.737 969.996 180.81 970.371 180.81 C 970.767 180.81 971.108 180.74 971.395 180.599 C 971.681 180.458 971.9 180.25 972.051 179.974 C 972.207 179.698 972.286 179.365 972.286 178.974 C 972.286 178.531 972.2 178.172 972.028 177.896 C 971.856 177.62 971.611 177.417 971.293 177.287 C 970.976 177.151 970.601 177.083 970.168 177.083 L 969.043 177.083 Z" fill="#EDEDED" transform="matrix(1, 0, 0, 1, 0, 7.105427357601002e-15)"/>
  <path fill-rule="evenodd" clip-rule="evenodd" d="M 782.693 164.713 C 782.106 164.713 781.628 164.234 781.628 163.648 C 781.628 163.061 782.106 162.582 782.693 162.582 C 783.28 162.582 783.758 163.061 783.758 163.648 C 783.758 164.234 783.28 164.713 782.693 164.713 Z M 782.693 160.452 C 780.928 160.452 779.497 161.883 779.497 163.648 C 779.497 165.413 780.928 166.843 782.693 166.843 C 784.458 166.843 785.888 165.413 785.888 163.648 C 785.888 161.883 784.458 160.452 782.693 160.452 Z M 782.693 173.623 C 782.693 173.623 777.367 166.167 777.367 162.971 C 777.367 160.035 779.756 157.646 782.693 157.646 C 785.629 157.646 788.019 160.035 788.019 162.971 C 788.019 166.167 782.693 173.623 782.693 173.623 Z M 782.693 155.515 C 778.575 155.515 775.237 158.853 775.237 162.971 C 775.237 167.089 782.693 176.819 782.693 176.819 C 782.693 176.819 790.149 167.089 790.149 162.971 C 790.149 158.853 786.811 155.515 782.693 155.515 Z" fill="white" transform="matrix(1, 0, 0, 1, 0, 7.105427357601002e-15)"/>
  <g filter="url(#filter0_d_240_2024)" transform="matrix(1, 0, 0, 1, 754.942699237804, 116.32318288569424)">
    <path d="M326.283 49.6593C326.283 65.6346 313.332 78.5851 297.357 78.5851C281.381 78.5851 268.431 65.6346 268.431 49.6593C268.431 33.684 281.381 20.7335 297.357 20.7335C313.332 20.7335 326.283 33.684 326.283 49.6593Z" fill="#008AEE"/>
    <path d="M298.166 85.4493C297.74 85.9448 296.973 85.9448 296.548 85.4493L289.671 77.4438C289.077 76.7522 289.568 75.6822 290.48 75.6822H304.234C305.145 75.6822 305.637 76.7522 305.043 77.4438L298.166 85.4493Z" fill="#008AEE"/>
  </g>
  <path fill-rule="evenodd" clip-rule="evenodd" d="M 1048.559 148.721 C 1049.766 148.46 1051.016 148.322 1052.3 148.322 C 1053.728 148.322 1055.117 148.494 1056.447 148.814 L 1056.447 151.218 C 1057.726 151.577 1058.938 152.097 1060.057 152.757 L 1061.746 151.066 C 1063.991 152.494 1065.891 154.416 1067.294 156.679 L 1065.601 158.375 C 1066.238 159.488 1066.74 160.689 1067.082 161.955 L 1069.478 161.955 C 1069.779 163.248 1069.94 164.597 1069.94 165.983 C 1069.94 167.312 1069.792 168.606 1069.514 169.852 L 1067.128 169.852 C 1066.794 171.139 1066.294 172.359 1065.658 173.49 L 1067.354 175.189 C 1065.966 177.463 1064.078 179.396 1061.842 180.838 L 1060.156 179.15 C 1059.008 179.838 1057.764 180.377 1056.447 180.748 L 1056.447 183.151 C 1055.117 183.472 1053.728 183.644 1052.3 183.644 C 1051.016 183.644 1049.766 183.505 1048.559 183.243 L 1048.559 180.859 C 1047.907 180.695 1047.273 180.487 1046.656 180.242 L 1049.4 177.496 C 1050.329 177.729 1051.3 177.854 1052.3 177.854 C 1058.848 177.854 1064.158 172.54 1064.158 165.983 C 1064.158 159.426 1058.848 154.111 1052.3 154.111 C 1045.75 154.111 1040.441 159.426 1040.441 165.983 C 1040.441 167.048 1040.585 168.081 1040.846 169.063 L 1038.12 171.794 C 1037.863 171.166 1037.644 170.518 1037.472 169.852 L 1035.086 169.852 C 1034.808 168.606 1034.66 167.312 1034.66 165.983 C 1034.66 164.597 1034.82 163.248 1035.121 161.955 L 1037.516 161.955 C 1037.887 160.591 1038.438 159.302 1039.149 158.116 L 1037.461 156.428 C 1038.901 154.191 1040.832 152.301 1043.103 150.909 L 1044.799 152.609 C 1045.967 151.951 1047.228 151.44 1048.559 151.107 L 1048.559 148.721 Z" fill="white" transform="matrix(1, 0, 0, 1, 0, 7.105427357601002e-15)"/>
  <path fill-rule="evenodd" clip-rule="evenodd" d="M 1052.671 158.535 C 1053.385 158.535 1054.1 158.641 1054.789 158.853 L 1050.256 163.391 L 1051.261 167.144 L 1055.01 168.15 L 1059.543 163.613 C 1059.719 164.188 1059.822 164.781 1059.852 165.377 L 1059.861 165.735 C 1059.861 167.473 1059.235 169.212 1057.983 170.584 L 1057.756 170.822 C 1055.871 172.708 1053.2 173.328 1050.798 172.681 L 1050.533 172.604 L 1041.4 181.737 C 1039.615 180.627 1038.082 179.151 1036.904 177.412 L 1036.657 177.036 L 1045.808 167.873 C 1045.069 165.49 1045.593 162.799 1047.385 160.854 L 1047.589 160.642 C 1048.914 159.315 1050.628 158.616 1052.364 158.542 L 1052.671 158.535 Z" fill="white" transform="matrix(1, 0, 0, 1, 0, 7.105427357601002e-15)"/>
</svg>