<?xml version="1.0" encoding="utf-8"?>
<svg viewBox="0 0 1179 687" fill="none" xmlns="http://www.w3.org/2000/svg">
  <defs>
    <filter id="filter0_d_240_2037" x="0.849609" y="0.811432" width="97.8516" height="105.087" filterUnits="userSpaceOnUse" color-interpolation-filters="sRGB">
      <feFlood flood-opacity="0" result="BackgroundImageFix"/>
      <feColorMatrix in="SourceAlpha" type="matrix" values="0 0 0 0 0 0 0 0 0 0 0 0 0 0 0 0 0 0 127 0" result="hardAlpha"/>
      <feOffset/>
      <feGaussianBlur stdDeviation="10"/>
      <feColorMatrix type="matrix" values="0 0 0 0 0 0 0 0 0 0 0 0 0 0 0 0 0 0 0.3 0"/>
      <feBlend mode="normal" in2="BackgroundImageFix" result="effect1_dropShadow_240_2037"/>
      <feBlend mode="normal" in="SourceGraphic" in2="effect1_dropShadow_240_2037" result="shape"/>
    </filter>
  </defs>
  <g filter="url(#filter0_d_240_2037)" transform="matrix(1, 0, 0, 1, 145.40457369990008, 218.4447359210958)">
    <path d="M78.7012 49.7372C78.7012 65.7125 65.7507 78.663 49.7754 78.663C33.8001 78.663 20.8496 65.7125 20.8496 49.7372C20.8496 33.762 33.8001 20.8114 49.7754 20.8114C65.7507 20.8114 78.7012 33.762 78.7012 49.7372Z" fill="#008AEE"/>
    <path d="M50.5845 85.5273C50.1588 86.0227 49.3919 86.0227 48.9663 85.5273L42.0894 77.5218C41.4953 76.8301 41.9867 75.7602 42.8985 75.7602H56.6523C57.5641 75.7602 58.0555 76.8301 57.4613 77.5218L50.5845 85.5273Z" fill="#008AEE"/>
  </g>
  <path fill-rule="evenodd" clip-rule="evenodd" d="M 191.44 250.921 C 192.646 250.66 193.896 250.522 195.18 250.522 C 196.609 250.522 197.998 250.693 199.327 251.013 L 199.327 253.417 C 200.606 253.776 201.818 254.296 202.937 254.957 L 204.627 253.265 C 206.871 254.693 208.772 256.615 210.175 258.878 L 208.481 260.574 C 209.118 261.688 209.62 262.888 209.962 264.155 L 212.358 264.155 C 212.66 265.448 212.82 266.797 212.82 268.182 C 212.82 269.511 212.672 270.806 212.395 272.051 L 210.009 272.051 C 209.674 273.338 209.175 274.558 208.538 275.69 L 210.235 277.389 C 208.847 279.662 206.959 281.595 204.723 283.037 L 203.037 281.35 C 201.889 282.037 200.644 282.577 199.327 282.947 L 199.327 285.351 C 197.998 285.672 196.609 285.843 195.18 285.843 C 193.896 285.843 192.646 285.704 191.44 285.443 L 191.44 283.058 C 190.787 282.894 190.153 282.687 189.537 282.441 L 192.28 279.695 C 193.209 279.928 194.18 280.054 195.18 280.054 C 201.729 280.054 207.038 274.739 207.038 268.182 C 207.038 261.625 201.729 256.31 195.18 256.31 C 188.63 256.31 183.322 261.625 183.322 268.182 C 183.322 269.248 183.465 270.28 183.727 271.262 L 181 273.993 C 180.743 273.366 180.525 272.718 180.352 272.051 L 177.966 272.051 C 177.688 270.806 177.54 269.511 177.54 268.182 C 177.54 266.797 177.7 265.448 178.001 264.155 L 180.396 264.155 C 180.767 262.79 181.319 261.501 182.029 260.315 L 180.342 258.628 C 181.782 256.391 183.712 254.5 185.984 253.109 L 187.68 254.808 C 188.848 254.151 190.109 253.64 191.44 253.306 L 191.44 250.921 Z" fill="white" transform="matrix(1, 0, 0, 1, 0, 7.105427357601002e-15)"/>
  <path fill-rule="evenodd" clip-rule="evenodd" d="M 195.551 260.735 C 196.266 260.735 196.981 260.841 197.67 261.053 L 193.137 265.59 L 194.141 269.344 L 197.891 270.349 L 202.423 265.812 C 202.6 266.387 202.703 266.98 202.732 267.576 L 202.741 267.934 C 202.741 269.673 202.116 271.412 200.864 272.783 L 200.636 273.021 C 198.751 274.908 196.08 275.527 193.679 274.88 L 193.413 274.803 L 184.28 283.937 C 182.496 282.827 180.963 281.35 179.785 279.612 L 179.538 279.235 L 188.689 270.073 C 187.949 267.69 188.474 264.998 190.265 263.054 L 190.469 262.841 C 191.794 261.515 193.509 260.815 195.245 260.741 L 195.551 260.735 Z" fill="white" transform="matrix(1, 0, 0, 1, 0, 7.105427357601002e-15)"/>
  <g filter="url(#filter0_d_240_2037)" transform="matrix(1, 0, 0, 1, 1001.3590847456318, 115.26590137579889)">
    <path d="M78.7012 49.7372C78.7012 65.7125 65.7507 78.663 49.7754 78.663C33.8001 78.663 20.8496 65.7125 20.8496 49.7372C20.8496 33.762 33.8001 20.8114 49.7754 20.8114C65.7507 20.8114 78.7012 33.762 78.7012 49.7372Z" fill="#008AEE"/>
    <path d="M50.5845 85.5273C50.1588 86.0227 49.3919 86.0227 48.9663 85.5273L42.0894 77.5218C41.4953 76.8301 41.9867 75.7602 42.8985 75.7602H56.6523C57.5641 75.7602 58.0555 76.8301 57.4613 77.5218L50.5845 85.5273Z" fill="#008AEE"/>
  </g>
  <path fill-rule="evenodd" clip-rule="evenodd" d="M 1047.394 147.742 C 1048.6 147.481 1049.85 147.343 1051.134 147.343 C 1052.563 147.343 1053.952 147.514 1055.281 147.834 L 1055.281 150.238 C 1056.56 150.597 1057.772 151.117 1058.891 151.778 L 1060.581 150.086 C 1062.825 151.514 1064.726 153.436 1066.129 155.699 L 1064.435 157.395 C 1065.072 158.509 1065.574 159.709 1065.916 160.976 L 1068.312 160.976 C 1068.614 162.269 1068.774 163.618 1068.774 165.003 C 1068.774 166.332 1068.626 167.627 1068.349 168.872 L 1065.963 168.872 C 1065.628 170.159 1065.129 171.379 1064.492 172.511 L 1066.189 174.21 C 1064.801 176.483 1062.913 178.416 1060.677 179.858 L 1058.991 178.171 C 1057.843 178.858 1056.598 179.398 1055.281 179.768 L 1055.281 182.172 C 1053.952 182.493 1052.563 182.664 1051.134 182.664 C 1049.85 182.664 1048.6 182.525 1047.394 182.264 L 1047.394 179.879 C 1046.741 179.715 1046.107 179.508 1045.491 179.262 L 1048.234 176.516 C 1049.163 176.749 1050.134 176.875 1051.134 176.875 C 1057.683 176.875 1062.992 171.56 1062.992 165.003 C 1062.992 158.446 1057.683 153.131 1051.134 153.131 C 1044.584 153.131 1039.276 158.446 1039.276 165.003 C 1039.276 166.069 1039.419 167.101 1039.681 168.083 L 1036.954 170.814 C 1036.697 170.187 1036.479 169.539 1036.306 168.872 L 1033.92 168.872 C 1033.642 167.627 1033.494 166.332 1033.494 165.003 C 1033.494 163.618 1033.654 162.269 1033.955 160.976 L 1036.35 160.976 C 1036.721 159.611 1037.273 158.322 1037.983 157.136 L 1036.296 155.449 C 1037.736 153.212 1039.666 151.321 1041.938 149.93 L 1043.634 151.629 C 1044.802 150.972 1046.063 150.461 1047.394 150.127 L 1047.394 147.742 Z" fill="white" transform="matrix(1, 0, 0, 1, 0, 7.105427357601002e-15)"/>
  <path fill-rule="evenodd" clip-rule="evenodd" d="M 1051.505 157.556 C 1052.22 157.556 1052.935 157.662 1053.624 157.874 L 1049.091 162.411 L 1050.095 166.165 L 1053.845 167.17 L 1058.377 162.633 C 1058.554 163.208 1058.657 163.801 1058.686 164.397 L 1058.695 164.755 C 1058.695 166.494 1058.07 168.233 1056.818 169.604 L 1056.59 169.842 C 1054.705 171.729 1052.034 172.348 1049.633 171.701 L 1049.367 171.624 L 1040.234 180.758 C 1038.45 179.648 1036.917 178.171 1035.739 176.433 L 1035.492 176.056 L 1044.643 166.894 C 1043.903 164.511 1044.428 161.819 1046.219 159.875 L 1046.423 159.662 C 1047.748 158.336 1049.463 157.636 1051.199 157.562 L 1051.505 157.556 Z" fill="white" transform="matrix(1, 0, 0, 1, 0, 7.105427357601002e-15)"/>
</svg>