<svg width="32" height="30" viewBox="0 0 32 30" fill="none" xmlns="http://www.w3.org/2000/svg">
<path id="Vector" fill-rule="evenodd" clip-rule="evenodd" d="M0.0557624 17.8375V28.1162C0.0557624 28.7763 0.591462 29.312 1.25152 29.312H3.82479C4.10797 29.312 4.38198 29.2116 4.59804 29.0285C4.81409 28.8454 4.95816 28.5916 5.00461 28.3123L5.63597 24.5289H26.3624L26.9922 28.3123C27.0386 28.5916 27.1827 28.8454 27.3988 29.0285C27.6148 29.2116 27.8888 29.312 28.172 29.312H30.7469C31.064 29.312 31.3682 29.186 31.5924 28.9617C31.8167 28.7375 31.9426 28.4333 31.9426 28.1162V17.8375C31.9427 15.9632 31.388 14.1308 30.3483 12.5713L29.1047 10.706C28.9938 10.5399 28.8988 10.3637 28.8209 10.1798H30.4057C30.6279 10.1798 30.8457 10.1179 31.0346 10.001C31.2236 9.88417 31.3763 9.71697 31.4755 9.51818L31.8741 8.72101C31.965 8.53882 32.008 8.33643 31.9988 8.13301C31.9896 7.9296 31.9286 7.73189 31.8217 7.55864C31.7147 7.38538 31.5652 7.24232 31.3874 7.14301C31.2097 7.0437 31.0095 6.99142 30.8059 6.99114H28.1162L27.622 4.52629C27.4716 3.7756 27.1082 3.0841 26.5753 2.53446C26.0423 1.98483 25.3623 1.60031 24.6166 1.42689C22.2857 0.884808 19.4127 0.61377 15.9992 0.61377C12.5841 0.61377 9.7127 0.884808 7.38177 1.42689C6.63578 1.60004 5.95546 1.98444 5.42221 2.5341C4.88895 3.08375 4.52533 3.7754 4.37484 4.52629L3.88059 6.99114H1.19412C0.990499 6.99142 0.790319 7.0437 0.612556 7.14301C0.434792 7.24232 0.285334 7.38538 0.178348 7.55864C0.0713617 7.73189 0.0103911 7.9296 0.00121496 8.13301C-0.00796122 8.33643 0.0349608 8.53882 0.125913 8.72101L0.524499 9.51818C0.62362 9.71673 0.776037 9.88377 0.964692 10.0006C1.15335 10.1175 1.3708 10.1795 1.59271 10.1798H3.17908C3.10118 10.3637 3.00616 10.5399 2.89529 10.706L1.65011 12.5713C0.610594 14.1306 0.0557624 15.9625 0.0557624 17.8375ZM25.5031 10.1862C25.6129 10.7376 25.7952 11.2721 26.0452 11.7758H5.95324C6.20355 11.2736 6.38531 10.7394 6.49532 10.1862L7.50294 5.15287C7.53269 5.00238 7.60522 4.86367 7.71183 4.75338C7.81845 4.64309 7.95462 4.5659 8.10401 4.53107C10.1735 4.05277 12.8105 3.80246 15.9992 3.80246C19.1879 3.80246 21.8249 4.05117 23.8944 4.53267C24.0439 4.5671 24.1802 4.64394 24.2871 4.75394C24.394 4.86395 24.4669 5.00246 24.4971 5.15287L25.5031 10.1862ZM5.63597 19.7459C6.27024 19.7459 6.87853 19.4939 7.32702 19.0454C7.77552 18.5969 8.02748 17.9886 8.02748 17.3544C8.02748 16.7201 7.77552 16.1118 7.32702 15.6633C6.87853 15.2148 6.27024 14.9629 5.63597 14.9629C5.0017 14.9629 4.3934 15.2148 3.94491 15.6633C3.49641 16.1118 3.24445 16.7201 3.24445 17.3544C3.24445 17.9886 3.49641 18.5969 3.94491 19.0454C4.3934 19.4939 5.0017 19.7459 5.63597 19.7459ZM28.754 17.3544C28.754 17.9886 28.502 18.5969 28.0535 19.0454C27.605 19.4939 26.9967 19.7459 26.3624 19.7459C25.7282 19.7459 25.1199 19.4939 24.6714 19.0454C24.2229 18.5969 23.9709 17.9886 23.9709 17.3544C23.9709 16.7201 24.2229 16.1118 24.6714 15.6633C25.1199 15.2148 25.7282 14.9629 26.3624 14.9629C26.9967 14.9629 27.605 15.2148 28.0535 15.6633C28.502 16.1118 28.754 16.7201 28.754 17.3544Z" fill="white"/>
</svg>
