<svg width="32" height="33" viewBox="0 0 32 33" fill="none" xmlns="http://www.w3.org/2000/svg">
<path id="game_controller-[#794]" fill-rule="evenodd" clip-rule="evenodd" d="M6.67041 18.2138H3.2V15.0138H6.67041L8.27041 16.6138L6.67041 18.2138ZM10.5408 14.3435L10.5328 14.3513L7.99519 11.8138H0V21.4138H7.99519L12.8048 16.606L10.5408 14.3435ZM28.8 18.2138H25.3296L23.7296 16.6138L25.3296 15.0138H28.8V18.2138ZM24.0048 11.8138L19.1952 16.6216L21.4592 18.8841L21.4672 18.8763L24.0048 21.4138H32V11.8138H24.0048ZM17.6 25.9481V29.4138H14.4V25.9481L16 24.3481L17.6 25.9481ZM13.7328 22.0763L13.7392 22.0841L11.2 24.6216V32.6138H20.8V24.6216L15.9936 19.8138L13.7328 22.0763ZM14.4 7.28877V3.81377H17.6V7.28877L16 8.88877L14.4 7.28877ZM18.2752 11.1591L18.2656 11.1513L20.8 8.61377V0.61377H11.2V8.61377L16.0096 13.4216L18.2752 11.1591Z" fill="white"/>
</svg>
