<svg width="32" height="33" viewBox="0 0 32 33" fill="none" xmlns="http://www.w3.org/2000/svg">
<path id="Vector" d="M31.202 13.6377L28.3484 13.2962C28.0552 12.2067 27.6271 11.1788 27.0773 10.2243L28.8481 7.96865C29.1213 7.62048 29.0897 7.08407 28.7765 6.77255L25.8346 3.82893C25.523 3.51741 24.9866 3.48576 24.6401 3.75563L22.3812 5.53313C21.43 4.98339 20.4021 4.55526 19.3143 4.26539L18.9744 1.4084C18.9228 0.971935 18.5197 0.61377 18.0799 0.61377H13.9168C13.477 0.61377 13.0739 0.971935 13.0222 1.4084L12.6791 4.26373C11.5912 4.55359 10.5617 4.98339 9.6105 5.53313L7.34989 3.75896C7.00505 3.48742 6.46697 3.51741 6.15711 3.82893L3.21349 6.77588C2.90197 7.0874 2.87032 7.62382 3.14186 7.97032L4.91603 10.2259C4.36462 11.1788 3.93982 12.2083 3.64829 13.2978L0.794628 13.6393C0.358165 13.691 0 14.0925 0 14.5356V18.697C0 19.1384 0.358165 19.5399 0.794628 19.5899L3.64996 19.9347C3.94149 21.0192 4.36795 22.0487 4.91769 23.0016L3.14519 25.2572C2.87365 25.6071 2.9053 26.1435 3.21683 26.455L6.15711 29.3986C6.46697 29.7118 7.00505 29.7434 7.34989 29.4736L9.6105 27.6944C10.5617 28.2442 11.5912 28.6739 12.6791 28.9638L13.0222 31.8191C13.0739 32.2556 13.477 32.6138 13.9168 32.6138H18.0799C18.5197 32.6138 18.9228 32.2556 18.9744 31.8191L19.3176 28.9622C20.4054 28.6723 21.435 28.2425 22.3878 27.6927L24.6468 29.4652C24.9933 29.7351 25.5297 29.7068 25.8396 29.3969L28.7832 26.4483C29.0947 26.1351 29.128 25.5987 28.8548 25.2539L27.0806 22.9983C27.632 22.0454 28.0569 21.0159 28.3484 19.9264L31.2054 19.5849C31.6435 19.5332 32 19.1334 32 18.6903V14.5289C32 14.0891 31.6418 13.691 31.202 13.6377ZM16.0008 24.6075C11.5846 24.6075 8.00292 21.0292 8.00292 16.6096C8.00292 12.1917 11.5846 8.61002 16.0008 8.61002C20.4188 8.61002 23.9988 12.19 23.9988 16.6096C24.0004 21.0292 20.4188 24.6075 16.0008 24.6075Z" fill="white"/>
</svg>
