<svg width="32" height="33" viewBox="0 0 32 33" fill="none" xmlns="http://www.w3.org/2000/svg">
<g id="Vector">
<path d="M1.89786 2.72897C1.58735 3.30665 1.43463 4.01928 1.12919 5.44454L0.103672 10.23C-0.545666 13.2601 1.93763 16.087 5.24864 16.087C7.94422 16.087 10.2012 14.1808 10.4695 11.6776L10.5878 10.5729C10.3081 13.532 12.8072 16.087 15.9996 16.087C19.2136 16.087 21.7251 13.4971 21.4053 10.5124L21.5305 11.6776C21.7987 14.1808 24.0557 16.087 26.7514 16.087C30.0623 16.087 32.5457 13.2601 31.8963 10.23L30.8708 5.44454C30.5654 4.01931 30.4125 3.30665 30.1021 2.72897C29.4478 1.51173 28.2705 0.610997 26.8632 0.250952C26.1953 0.0800781 25.4167 0.0800781 23.8593 0.0800781H8.14066C6.58327 0.0800781 5.80456 0.0800781 5.13669 0.250952C3.72943 0.610997 2.55213 1.51173 1.89786 2.72897Z" fill="white"/>
<path d="M26.7514 18.4881C28.1528 18.4881 29.455 18.1481 30.5787 17.5579V19.2884C30.5787 25.325 30.5787 28.3433 28.5693 30.2186C26.9517 31.7282 24.5407 32.0226 20.2878 32.0801V26.4916C20.2878 24.9956 20.2878 24.2476 19.9431 23.6903C19.7174 23.3254 19.3925 23.0222 19.0015 22.8116C18.4044 22.4898 17.603 22.4898 16 22.4898C14.397 22.4898 13.5955 22.4898 12.9985 22.8116C12.6074 23.0222 12.2826 23.3254 12.0568 23.6903C11.7121 24.2476 11.7121 24.9956 11.7121 26.4916V32.0801C7.45926 32.0226 5.04816 31.7282 3.43062 30.2186C1.4212 28.3433 1.4212 25.325 1.4212 19.2884V17.5579C2.54503 18.1481 3.84709 18.4881 5.24868 18.4881C7.30183 18.4881 9.18426 17.746 10.5876 16.5223C12.0066 17.7391 13.9015 18.4881 15.9996 18.4881C18.0979 18.4881 19.993 17.739 21.4121 16.5219C22.8155 17.7458 24.698 18.4881 26.7514 18.4881Z" fill="white"/>
</g>
</svg>
