<svg width="32" height="33" viewBox="0 0 32 33" fill="none" xmlns="http://www.w3.org/2000/svg">
<g id="Vector">
<path fill-rule="evenodd" clip-rule="evenodd" d="M15.998 32.6138C7.17618 32.6138 0 25.4354 0 16.6138C0 7.79212 7.17618 0.61377 15.998 0.61377C24.8218 0.61377 32 7.79212 32 16.6138C32 25.4354 24.8218 32.6138 15.998 32.6138ZM16 4.61377C9.38166 4.61377 4 9.9968 4 16.6138C4 23.2307 9.38362 28.6138 16 28.6138C22.6164 28.6138 28 23.2307 28 16.6138C28 9.9968 22.6183 4.61377 16 4.61377Z" fill="white"/>
<path fill-rule="evenodd" clip-rule="evenodd" d="M15.984 12.6138C11.352 12.6138 7.788 14.2078 6.062 17.3058C6.136 18.2518 6.37 19.1618 6.734 20.0098C9.176 18.7058 13.836 23.6698 12.37 25.8798C13.53 26.2878 14.652 26.5898 15.964 26.5898C17.254 26.5898 18.598 26.3538 19.738 25.9598C18.27 23.7498 22.788 18.8898 25.246 20.2218C25.622 19.3458 25.864 18.4098 25.934 17.4298C24.19 14.3638 20.586 12.6138 15.984 12.6138ZM16.004 18.9258C14.754 18.9258 13.75 17.9058 13.75 16.6438C13.75 15.3818 14.754 14.3618 16.004 14.3618C17.242 14.3618 18.25 15.3818 18.25 16.6438C18.25 17.9058 17.242 18.9258 16.004 18.9258Z" fill="white"/>
</g>
</svg>
