<svg width="56" height="57" viewBox="0 0 56 57" fill="none" xmlns="http://www.w3.org/2000/svg">
<g id="Vector">
<path d="M47.59 14.7586L41.06 1.71857H27.06L28.92 14.7586H47.59ZM21.46 1.71857H7.46L0.92 14.7586H19.59L21.46 1.71857ZM28.92 14.7586V29.6586H19.59V14.7586H0.92V52.0186H38.69C34.85 48.4886 32.66 43.5186 32.66 38.3186V33.3886L43.86 29.6586L47.59 30.8986V14.7686H28.92V14.7586Z" fill="#B1D5FF"/>
<path d="M33.59 51.0886H1.86V15.6886H18.66V29.6586C18.66 30.1786 19.06 30.5886 19.59 30.5886H28.92C29.44 30.5886 29.86 30.1886 29.86 29.6586V15.6886H46.66V27.2586C46.66 27.7586 47.06 28.1886 47.59 28.1886C48.11 28.1886 48.52 27.7686 48.52 27.2586V14.7586C48.52 14.7586 48.52 14.7386 48.52 14.7286C48.52 14.6286 48.49 14.5286 48.46 14.4286C48.46 14.4286 48.46 14.3986 48.44 14.3786C48.44 14.3486 48.44 14.3486 48.44 14.3286L41.89 1.30857C41.73 0.988574 41.41 0.788574 41.06 0.788574H7.46C7.1 0.788574 6.78 0.988574 6.62 1.30857L0.09 14.3386C0.09 14.3586 0.09 14.3686 0.09 14.3786C0.07 14.3786 0.06 14.4086 0.05 14.4286C0.02 14.5286 0 14.6286 0 14.7286C0 14.7286 0 14.7286 0 14.7486V52.0086C0 52.5086 0.42 52.9386 0.93 52.9386H33.59C34.11 52.9386 34.52 52.5186 34.52 52.0086C34.52 51.4886 34.12 51.0786 33.59 51.0786V51.0886ZM27.99 28.7286H20.52V15.6886H27.99V28.7286ZM46.09 13.8286H29.72L28.12 2.64857H40.49L46.09 13.8286ZM26.24 2.64857L27.84 13.8286H20.66L22.26 2.64857H26.24ZM8.02 2.64857H20.39L18.79 13.8286H2.42L8.02 2.64857Z" fill="#1E81CE"/>
<path d="M13.99 41.7686H6.52C6.02 41.7686 5.59 42.1886 5.59 42.6986C5.59 43.2286 6.01 43.6386 6.52 43.6386H13.99C14.51 43.6386 14.92 43.2386 14.92 42.7086C14.92 42.2086 14.52 41.7886 13.99 41.7886V41.7686ZM13.99 45.4886H6.52C6.02 45.4886 5.59 45.9086 5.59 46.4286C5.59 46.9286 6.01 47.3586 6.52 47.3586H13.99C14.51 47.3586 14.92 46.9386 14.92 46.4286C14.92 45.9086 14.52 45.4986 13.99 45.4986V45.4886ZM13.99 38.0486H6.52C6.02 38.0486 5.59 38.4486 5.59 38.9786C5.59 39.4786 6.01 39.8986 6.52 39.8986H13.99C14.51 39.8986 14.92 39.4786 14.92 38.9686C14.92 38.4386 14.52 38.0286 13.99 38.0286V38.0486ZM19.59 38.0486H17.72C17.22 38.0486 16.79 38.4486 16.79 38.9786C16.79 39.4786 17.21 39.8986 17.72 39.8986H19.59C20.11 39.8986 20.52 39.4786 20.52 38.9686C20.52 38.4386 20.12 38.0286 19.59 38.0286V38.0486ZM19.59 41.7686H17.72C17.22 41.7686 16.79 42.1886 16.79 42.6986C16.79 43.2286 17.21 43.6386 17.72 43.6386H19.59C20.11 43.6386 20.52 43.2386 20.52 42.7086C20.52 42.2086 20.12 41.7886 19.59 41.7886V41.7686ZM19.59 45.4886H17.72C17.22 45.4886 16.79 45.9086 16.79 46.4286C16.79 46.9286 17.21 47.3586 17.72 47.3586H19.59C20.11 47.3586 20.52 46.9386 20.52 46.4286C20.52 45.9086 20.12 45.4986 19.59 45.4986V45.4886Z" fill="#1E81CE"/>
<path d="M55.35 32.4886L44.15 28.7886C43.95 28.7186 43.75 28.7186 43.55 28.7886L32.35 32.4886C31.98 32.6286 31.72 32.9886 31.72 33.3886V38.3286C31.72 44.8686 34.99 50.9686 40.45 54.5986L43.35 56.5286C43.65 56.7286 44.05 56.7286 44.37 56.5286L47.27 54.6086C52.71 50.9886 55.99 44.8886 55.99 38.3386V33.3886C55.99 32.9886 55.73 32.6286 55.35 32.4886ZM54.12 38.3286C54.12 44.2286 51.17 49.7686 46.22 53.0486L43.86 54.6186L41.49 53.0486C36.55 49.7686 33.59 44.2486 33.59 38.3286V34.0586L43.86 30.6386L54.12 34.0586V38.3286Z" fill="#1E81CE"/>
<path d="M43.89 51.2386C44.03 51.4386 44.25 51.5886 44.49 51.6386C44.73 51.6786 44.99 51.6386 45.19 51.4986C48.54 49.2986 50.91 45.8786 51.83 41.9786C51.95 41.4786 51.63 40.9786 51.13 40.8586C50.63 40.7386 50.13 41.0586 50.03 41.5586C49.21 44.9886 47.11 47.9986 44.16 49.9586C43.96 50.0886 43.81 50.3086 43.76 50.5586C43.71 50.7886 43.76 51.0386 43.9 51.2586L43.89 51.2386ZM51.32 39.2586C51.84 39.2586 52.26 38.8386 52.26 38.3286V37.0086C52.26 36.4886 51.84 36.0686 51.32 36.0686C50.82 36.0686 50.39 36.4886 50.39 37.0086V38.3286C50.39 38.8286 50.81 39.2586 51.32 39.2586Z" fill="#1E81CE"/>
</g>
</svg>
