<svg width="56" height="57" viewBox="0 0 56 57" fill="none" xmlns="http://www.w3.org/2000/svg">
<g id="Vector">
<path d="M13.07 52.1186H55.07V46.5186H0.93V52.1186H5.6H13.07ZM5.6 52.1186H13.07V55.8586H5.6V52.1186ZM42.93 52.1186H50.4V55.8586H42.93V52.1186ZM18.67 22.2586V27.8586H13.07V22.2586H3.73V42.7886H28V22.2586H18.67ZM42.93 22.2586V27.8586H37.33V22.2586H28V42.7886H52.27V22.2586H42.93ZM30.8 1.71857V7.31857H25.2V1.71857H15.87V22.2586H40.13V1.71857H30.8Z" fill="#B1D5FF"/>
<path d="M55.07 45.5886H0.93C0.683349 45.5886 0.4468 45.6866 0.272391 45.861C0.0979819 46.0354 0 46.272 0 46.5186V52.1186C0 52.6386 0.42 53.0586 0.93 53.0586H4.67V55.8586C4.67 56.3686 5.08 56.7886 5.6 56.7886H13.07C13.58 56.7886 14 56.3686 14 55.8586V53.0586H42V55.8586C42 56.3686 42.42 56.7886 42.93 56.7886H50.4C50.92 56.7886 51.33 56.3686 51.33 55.8586V53.0586H55.07C55.58 53.0586 56 52.6386 56 52.1186V46.5186C56 46.272 55.902 46.0354 55.7276 45.861C55.5532 45.6866 55.3167 45.5886 55.07 45.5886ZM12.13 54.9186H6.53V53.0586H12.13V54.9186ZM49.47 54.9186H43.87V53.0586H49.47V54.9186ZM54.13 51.1886H1.87V47.4586H54.13V51.1886ZM3.73 43.7186H52.27C52.78 43.7186 53.2 43.3086 53.2 42.7886V22.2586C53.2013 22.1357 53.1782 22.0136 53.1321 21.8997C53.086 21.7857 53.0177 21.682 52.9312 21.5945C52.8447 21.5071 52.7417 21.4377 52.6282 21.3904C52.5147 21.343 52.393 21.3186 52.27 21.3186H41.07V1.71863C41.07 1.59565 41.0456 1.4739 40.9983 1.36041C40.9509 1.24692 40.8815 1.14395 40.7941 1.05746C40.7067 0.970967 40.603 0.902674 40.489 0.856529C40.375 0.810385 40.253 0.787306 40.13 0.788628H15.87C15.747 0.787306 15.625 0.810385 15.511 0.856529C15.397 0.902674 15.2933 0.970967 15.2059 1.05746C15.1185 1.14395 15.0491 1.24692 15.0017 1.36041C14.9544 1.4739 14.93 1.59565 14.93 1.71863V21.3186H3.73C3.60702 21.3186 3.48527 21.343 3.37178 21.3904C3.25829 21.4377 3.15532 21.5071 3.06883 21.5945C2.98234 21.682 2.91405 21.7857 2.8679 21.8997C2.82176 22.0136 2.79868 22.1357 2.8 22.2586V42.7886C2.8 43.3086 3.22 43.7186 3.73 43.7186ZM51.33 41.8586H28.93V23.1886H36.4V27.8586C36.4 28.3686 36.82 28.7886 37.33 28.7886H42.93C43.45 28.7886 43.87 28.3686 43.87 27.8586V23.1886H51.33V41.8586ZM42 26.9186H38.27V23.1886H42V26.9186ZM29.87 2.65863V6.38863H26.13V2.65863H29.87ZM16.8 2.65863H24.27V7.31863C24.27 7.83863 24.68 8.25863 25.2 8.25863H30.8C31.32 8.25863 31.73 7.83863 31.73 7.31863V2.65863H39.2V21.3186H16.8V2.65863ZM17.73 23.1886V26.9186H14V23.1886H17.73ZM4.67 23.1886H12.13V27.8586C12.13 28.3686 12.55 28.7886 13.07 28.7886H18.67C19.18 28.7886 19.6 28.3686 19.6 27.8586V23.1886H27.07V41.8586H4.67V23.1886Z" fill="#1E81CE"/>
<path d="M11.2 38.1186H7.47C7.22202 38.1186 6.9842 38.2171 6.80886 38.3924C6.63351 38.5678 6.535 38.8056 6.535 39.0536C6.535 39.3016 6.63351 39.5394 6.80886 39.7147C6.9842 39.8901 7.22202 39.9886 7.47 39.9886H11.2C11.448 39.9886 11.6858 39.8901 11.8611 39.7147C12.0365 39.5394 12.135 39.3016 12.135 39.0536C12.135 38.8056 12.0365 38.5678 11.8611 38.3924C11.6858 38.2171 11.448 38.1186 11.2 38.1186ZM11.2 35.3186H7.47C7.22202 35.3186 6.9842 35.4171 6.80886 35.5924C6.63351 35.7678 6.535 36.0056 6.535 36.2536C6.535 36.5016 6.63351 36.7394 6.80886 36.9147C6.9842 37.0901 7.22202 37.1886 7.47 37.1886H11.2C11.448 37.1886 11.6858 37.0901 11.8611 36.9147C12.0365 36.7394 12.135 36.5016 12.135 36.2536C12.135 36.0056 12.0365 35.7678 11.8611 35.5924C11.6858 35.4171 11.448 35.3186 11.2 35.3186ZM14.93 35.3186H14C13.752 35.3186 13.5142 35.4171 13.3389 35.5924C13.1635 35.7678 13.065 36.0056 13.065 36.2536C13.065 36.5016 13.1635 36.7394 13.3389 36.9147C13.5142 37.0901 13.752 37.1886 14 37.1886H14.93C15.178 37.1886 15.4158 37.0901 15.5911 36.9147C15.7665 36.7394 15.865 36.5016 15.865 36.2536C15.865 36.0056 15.7665 35.7678 15.5911 35.5924C15.4158 35.4171 15.178 35.3186 14.93 35.3186ZM14.93 38.1186H14C13.752 38.1186 13.5142 38.2171 13.3389 38.3924C13.1635 38.5678 13.065 38.8056 13.065 39.0536C13.065 39.3016 13.1635 39.5394 13.3389 39.7147C13.5142 39.8901 13.752 39.9886 14 39.9886H14.93C15.178 39.9886 15.4158 39.8901 15.5911 39.7147C15.7665 39.5394 15.865 39.3016 15.865 39.0536C15.865 38.8056 15.7665 38.5678 15.5911 38.3924C15.4158 38.2171 15.178 38.1186 14.93 38.1186ZM19.6 19.4586H23.33C23.578 19.4586 23.8158 19.3601 23.9911 19.1847C24.1665 19.0094 24.265 18.7716 24.265 18.5236C24.265 18.2756 24.1665 18.0378 23.9911 17.8624C23.8158 17.6871 23.578 17.5886 23.33 17.5886H19.6C19.352 17.5886 19.1142 17.6871 18.9389 17.8624C18.7635 18.0378 18.665 18.2756 18.665 18.5236C18.665 18.7716 18.7635 19.0094 18.9389 19.1847C19.1142 19.3601 19.352 19.4586 19.6 19.4586ZM19.6 16.6586H23.33C23.578 16.6586 23.8158 16.5601 23.9911 16.3847C24.1665 16.2094 24.265 15.9716 24.265 15.7236C24.265 15.4756 24.1665 15.2378 23.9911 15.0624C23.8158 14.8871 23.578 14.7886 23.33 14.7886H19.6C19.352 14.7886 19.1142 14.8871 18.9389 15.0624C18.7635 15.2378 18.665 15.4756 18.665 15.7236C18.665 15.9716 18.7635 16.2094 18.9389 16.3847C19.1142 16.5601 19.352 16.6586 19.6 16.6586ZM26.13 16.6586H27.07C27.318 16.6586 27.5558 16.5601 27.7311 16.3847C27.9065 16.2094 28.005 15.9716 28.005 15.7236C28.005 15.4756 27.9065 15.2378 27.7311 15.0624C27.5558 14.8871 27.318 14.7886 27.07 14.7886H26.13C25.882 14.7886 25.6442 14.8871 25.4689 15.0624C25.2935 15.2378 25.195 15.4756 25.195 15.7236C25.195 15.9716 25.2935 16.2094 25.4689 16.3847C25.6442 16.5601 25.882 16.6586 26.13 16.6586ZM26.13 19.4586H27.07C27.318 19.4586 27.5558 19.3601 27.7311 19.1847C27.9065 19.0094 28.005 18.7716 28.005 18.5236C28.005 18.2756 27.9065 18.0378 27.7311 17.8624C27.5558 17.6871 27.318 17.5886 27.07 17.5886H26.13C25.882 17.5886 25.6442 17.6871 25.4689 17.8624C25.2935 18.0378 25.195 18.2756 25.195 18.5236C25.195 18.7716 25.2935 19.0094 25.4689 19.1847C25.6442 19.3601 25.882 19.4586 26.13 19.4586ZM35.47 38.1186H31.73C31.482 38.1186 31.2442 38.2171 31.0689 38.3924C30.8935 38.5678 30.795 38.8056 30.795 39.0536C30.795 39.3016 30.8935 39.5394 31.0689 39.7147C31.2442 39.8901 31.482 39.9886 31.73 39.9886H35.47C35.718 39.9886 35.9558 39.8901 36.1311 39.7147C36.3065 39.5394 36.405 39.3016 36.405 39.0536C36.405 38.8056 36.3065 38.5678 36.1311 38.3924C35.9558 38.2171 35.718 38.1186 35.47 38.1186ZM35.47 35.3186H31.73C31.482 35.3186 31.2442 35.4171 31.0689 35.5924C30.8935 35.7678 30.795 36.0056 30.795 36.2536C30.795 36.5016 30.8935 36.7394 31.0689 36.9147C31.2442 37.0901 31.482 37.1886 31.73 37.1886H35.47C35.718 37.1886 35.9558 37.0901 36.1311 36.9147C36.3065 36.7394 36.405 36.5016 36.405 36.2536C36.405 36.0056 36.3065 35.7678 36.1311 35.5924C35.9558 35.4171 35.718 35.3186 35.47 35.3186ZM39.2 35.3186H38.27C38.022 35.3186 37.7842 35.4171 37.6089 35.5924C37.4335 35.7678 37.335 36.0056 37.335 36.2536C37.335 36.5016 37.4335 36.7394 37.6089 36.9147C37.7842 37.0901 38.022 37.1886 38.27 37.1886H39.2C39.448 37.1886 39.6858 37.0901 39.8611 36.9147C40.0365 36.7394 40.135 36.5016 40.135 36.2536C40.135 36.0056 40.0365 35.7678 39.8611 35.5924C39.6858 35.4171 39.448 35.3186 39.2 35.3186ZM39.2 38.1186H38.27C38.022 38.1186 37.7842 38.2171 37.6089 38.3924C37.4335 38.5678 37.335 38.8056 37.335 39.0536C37.335 39.3016 37.4335 39.5394 37.6089 39.7147C37.7842 39.8901 38.022 39.9886 38.27 39.9886H39.2C39.448 39.9886 39.6858 39.8901 39.8611 39.7147C40.0365 39.5394 40.135 39.3016 40.135 39.0536C40.135 38.8056 40.0365 38.5678 39.8611 38.3924C39.6858 38.2171 39.448 38.1186 39.2 38.1186Z" fill="#1E81CE"/>
</g>
</svg>
