<svg width="56" height="57" viewBox="0 0 56 57" fill="none" xmlns="http://www.w3.org/2000/svg">
<g id="Vector">
<path d="M44.8595 32.2836V24.8436H39.6295C39.4295 24.2436 39.1795 23.6436 38.8895 23.0636L42.5895 19.3636L37.3295 14.1036L33.6295 17.8036C33.0595 17.5036 32.4595 17.2636 31.8495 17.0636V11.8336H24.4095V17.0636C23.8095 17.2636 23.2095 17.5136 22.6295 17.8036L18.9295 14.1036L13.6695 19.3636L17.3695 23.0636C17.0695 23.6336 16.8295 24.2336 16.6295 24.8436H11.3995V32.2836H16.6295C16.8295 32.8836 17.0795 33.4836 17.3695 34.0636L13.6695 37.7636L18.9295 43.0236L22.6295 39.3236C23.1995 39.6236 23.7995 39.8636 24.4095 40.0636V45.2936H31.8495V40.0636C32.4495 39.8636 33.0495 39.6136 33.6295 39.3236L37.3295 43.0236L42.5895 37.7636L38.8895 34.0636C39.1895 33.4936 39.4295 32.8936 39.6295 32.2836H44.8595ZM28.1295 35.0836C24.5295 35.0836 21.6295 32.1536 21.6295 28.5636C21.6295 24.9636 24.5295 22.0636 28.1295 22.0636C31.7295 22.0636 34.6295 24.9636 34.6295 28.5636C34.6295 32.1636 31.7295 35.0636 28.1295 35.0636V35.0836Z" fill="#9BC9FF"/>
<path d="M31.8495 46.2236H24.4095C23.9095 46.2236 23.4795 45.8036 23.4795 45.2936V40.7236C23.2595 40.6236 23.0395 40.5436 22.8195 40.4436L19.5795 43.6836C19.3995 43.8536 19.1595 43.9536 18.9195 43.9536C18.6695 43.9536 18.4395 43.8536 18.2595 43.6736L12.9995 38.4136C12.6395 38.0536 12.6395 37.4636 12.9995 37.0936L16.2395 33.8636C16.1395 33.6636 16.0395 33.4336 15.9595 33.2136H11.3895C10.8895 33.2136 10.4595 32.7936 10.4595 32.2836V24.8436C10.4595 24.3436 10.8795 23.9136 11.3895 23.9136H15.9595C16.0595 23.6936 16.1395 23.4736 16.2395 23.2536L12.9995 20.0136C12.6395 19.6436 12.6395 19.0536 12.9995 18.6936L18.2595 13.4336C18.6295 13.0836 19.2095 13.0836 19.5795 13.4336L22.8095 16.6736C23.0095 16.5736 23.2395 16.4736 23.4595 16.3936V11.8236C23.4595 11.3236 23.8795 10.8936 24.3895 10.8936H31.8295C32.3295 10.8936 32.7595 11.3136 32.7595 11.8236V16.3936C32.9795 16.4936 33.1995 16.5736 33.4195 16.6736L36.6595 13.4336C36.8395 13.2636 37.0795 13.1636 37.3195 13.1636C37.5695 13.1636 37.7995 13.2636 37.9795 13.4436L43.2395 18.7036C43.5995 19.0636 43.5995 19.6536 43.2395 20.0236L39.9995 23.2536C40.0995 23.4536 40.1995 23.6836 40.2795 23.9036H44.8495C45.3495 23.9036 45.7795 24.3236 45.7795 24.8336V32.2736C45.7795 32.7736 45.3595 33.2036 44.8495 33.2036H40.2795C40.1795 33.4236 40.0995 33.6436 39.9995 33.8636L43.2395 37.1036C43.5995 37.4736 43.5995 38.0636 43.2395 38.4236L37.9795 43.6836C37.6095 44.0336 37.0295 44.0336 36.6595 43.6836L33.4295 40.4436C33.2295 40.5436 32.9995 40.6436 32.7795 40.7236V45.2936C32.7795 45.7936 32.3595 46.2236 31.8495 46.2236ZM30.9195 44.3636V40.0636C30.9195 39.6636 31.1695 39.2936 31.5595 39.1636C32.1295 38.9936 32.6795 38.7636 33.2095 38.4936C33.5595 38.3136 33.9895 38.3936 34.2695 38.6736L37.3095 41.7236L41.2595 37.7736L38.2195 34.7336C37.9395 34.4536 37.8695 34.0136 38.0495 33.6636C38.3195 33.1236 38.5495 32.5636 38.7295 32.0036C38.8595 31.6036 39.2295 31.3536 39.6295 31.3536H43.9295V25.7536H39.6295C39.2295 25.7536 38.8595 25.5036 38.7295 25.1136C38.5595 24.5436 38.3295 23.9936 38.0595 23.4636C37.8795 23.1136 37.9595 22.6836 38.2395 22.4036L41.2895 19.3636L37.3395 15.4136L34.2995 18.4536C34.0195 18.7336 33.5795 18.8036 33.2295 18.6236C32.6895 18.3536 32.1295 18.1236 31.5695 17.9436C31.1695 17.8136 30.9195 17.4436 30.9195 17.0436V12.7436H25.3195V17.0436C25.3195 17.4436 25.0695 17.8136 24.6795 17.9436C24.1095 18.1136 23.5595 18.3436 23.0295 18.6136C22.6795 18.7936 22.2495 18.7136 21.9695 18.4336L18.9295 15.3836L14.9795 19.3336L18.0195 22.3736C18.2995 22.6536 18.3695 23.0936 18.1895 23.4436C17.9195 23.9836 17.6895 24.5436 17.5095 25.1036C17.3795 25.5036 17.0095 25.7536 16.6095 25.7536H12.3095V31.3536H16.6095C17.0095 31.3536 17.3795 31.6036 17.5095 31.9936C17.6795 32.5636 17.9095 33.1136 18.1795 33.6436C18.3595 33.9936 18.2795 34.4236 17.9995 34.7136L14.9495 37.7436L18.8995 41.6936L21.9395 38.6536C22.2195 38.3736 22.6595 38.3036 23.0095 38.4836C23.5495 38.7536 24.1095 38.9836 24.6695 39.1636C25.0695 39.2936 25.3195 39.6636 25.3195 40.0636V44.3636H30.9195ZM28.1295 36.0036C24.0295 36.0036 20.6895 32.6736 20.6895 28.5636C20.6895 24.4636 24.0195 21.1236 28.1295 21.1236C32.2295 21.1236 35.5695 24.4536 35.5695 28.5636C35.5695 32.6636 32.2295 35.9936 28.1295 36.0036ZM28.1295 22.9836C25.0495 22.9836 22.5495 25.4836 22.5495 28.5636C22.5495 31.6436 25.0495 34.1436 28.1295 34.1436C31.2095 34.1436 33.7095 31.6436 33.7095 28.5636C33.7095 25.4836 31.2095 22.9936 28.1295 22.9836Z" fill="#1E81CE"/>
<path d="M6.74954 29.4936C6.24954 29.4936 5.81954 29.0736 5.81954 28.5636C5.81954 16.2636 15.8195 6.26361 28.1195 6.26361C28.6195 6.26361 29.0495 6.66361 29.0495 7.18361C29.0495 7.70361 28.6295 8.11361 28.1195 8.11361C16.8295 8.11361 7.68954 17.2636 7.67954 28.5636C7.67954 29.0636 7.27954 29.4936 6.74954 29.4936ZM28.1295 50.8636C27.6295 50.8636 27.1995 50.4636 27.1995 49.9436C27.1995 49.4236 27.6195 49.0136 28.1295 49.0136C39.4295 49.0136 48.5695 39.8536 48.5795 28.5636C48.5795 28.0636 48.9795 27.6336 49.5095 27.6336C50.0095 27.6336 50.4395 28.0536 50.4395 28.5636C50.4395 40.8636 40.4395 50.8636 28.1395 50.8636H28.1295ZM48.8995 9.96361H52.2995C52.7995 9.96361 53.2295 9.56361 53.2295 9.04361C53.2295 8.54361 52.8095 8.11361 52.2995 8.11361H46.7295C46.2095 8.11361 45.7895 8.53361 45.7895 9.04361V14.6236C45.7895 15.1236 46.2095 15.5536 46.7195 15.5536C47.2195 15.5536 47.6395 15.1236 47.6395 14.6136V11.3636C51.8395 16.0936 54.1695 22.2236 54.1395 28.5636C54.1395 38.3436 48.6695 47.2936 39.9695 51.7436C31.2695 56.1936 20.7995 55.3836 12.8695 49.6636C12.6095 49.4636 12.2495 49.4136 11.9395 49.5436C11.6395 49.6836 11.4095 49.9736 11.3795 50.3136C11.3495 50.6536 11.5095 50.9736 11.7795 51.1636C20.2795 57.3036 31.4795 58.1636 40.8095 53.3936C50.1295 48.6236 56.0295 39.0336 55.9995 28.5636C56.0295 21.6936 53.4995 15.0636 48.8995 9.96361ZM44.4695 5.96361C35.9895 -0.166392 24.7695 -1.03639 15.4395 3.73361C6.12954 8.49361 0.259541 18.0836 0.259541 28.5636C0.229541 35.4336 2.75954 42.0636 7.35954 47.1636H3.95954C3.45954 47.1636 3.03954 47.5636 3.03954 48.0836C3.03954 48.5836 3.45954 49.0136 3.96954 49.0136H9.52954C10.0495 49.0136 10.4695 48.5936 10.4695 48.0836V42.5036C10.4695 42.0036 10.0495 41.5736 9.53954 41.5736C9.03954 41.5736 8.61954 42.0036 8.61954 42.5136V45.7836C4.41954 41.0536 2.08954 34.9236 2.11954 28.5836C2.11954 18.8036 7.58954 9.85361 16.2995 5.40361C24.9995 0.953608 35.4695 1.76361 43.3995 7.50361C43.7995 7.80361 44.3995 7.70361 44.6995 7.28361C44.9995 6.88361 44.8995 6.28361 44.4795 5.98361L44.4695 5.96361ZM27.1995 14.6236H29.0595V16.4836H27.1995V14.6236ZM17.6095 19.3636L18.9295 18.0436L20.2295 19.3636L18.9295 20.6636L17.6095 19.3636ZM14.1895 27.6336H16.0495V29.4936H14.1895V27.6336ZM17.6095 37.7636L18.9095 36.4636L20.2395 37.7636L18.9395 39.0636L17.6095 37.7636ZM27.1995 40.6436H29.0595V42.5036H27.1995V40.6436ZM36.0095 37.7636L37.3095 36.4636L38.6395 37.7636L37.3395 39.0636L36.0095 37.7636ZM40.2095 27.6336H42.0695V29.4936H40.2095V27.6336ZM36.0095 19.3636L37.3295 18.0636L38.6295 19.3636L37.3295 20.6636L36.0095 19.3636Z" fill="#1E81CE"/>
</g>
</svg>
