<svg width="56" height="50" viewBox="0 0 56 50" fill="none" xmlns="http://www.w3.org/2000/svg">
<g id="Vector">
<path d="M38.2632 23.6486V12.4486C38.2632 11.4186 37.4233 10.5886 36.3935 10.5786H27.995C27.995 15.7386 23.8157 19.9186 18.6667 19.9186C13.5076 19.9186 9.32833 15.7386 9.32833 10.5786H2.7995C1.76968 10.5786 0.939832 11.4186 0.929834 12.4486V36.7186H38.2632V23.6486ZM43.8622 32.9786C42.8324 32.9786 41.9925 32.1486 41.9925 31.1186V23.6486H38.2632V42.3186H42.3824C43.1123 40.6186 44.782 39.5186 46.6517 39.5186C48.5013 39.5186 50.181 40.6186 50.9209 42.3186H55.0502V32.9786H43.8522H43.8622ZM13.9975 39.5186C15.8472 39.5186 17.5269 40.6186 18.2667 42.3186H38.2632V36.7186H0.929834V42.3186H9.72826C10.4681 40.6186 12.1478 39.5186 13.9975 39.5186ZM51.3208 44.1786C51.3208 44.8286 51.1909 45.4586 50.9209 46.0486H53.1905C54.2203 46.0486 55.0602 45.2086 55.0602 44.1786V42.3186H50.9309C51.1909 42.8986 51.3308 43.5386 51.3308 44.1786H51.3208ZM9.72826 42.3186H0.929834V44.1786C0.929834 45.2086 1.76968 46.0486 2.7995 46.0486H9.72826C9.19836 44.8486 9.19836 43.5086 9.72826 42.3186ZM42.3924 42.3186H18.2567C18.7866 43.5186 18.7866 44.8586 18.2567 46.0486H42.3924C41.8625 44.8486 41.8625 43.5086 42.3924 42.3186Z" fill="#9BC9FF"/>
<path d="M45.7218 22.7186H39.193V12.4486C39.193 10.8986 37.9432 9.64859 36.3935 9.64859H28.8948C28.3949 4.34859 23.9757 0.308594 18.6667 0.308594C13.3476 0.308594 8.91841 4.36859 8.44849 9.65859H2.7995C1.24978 9.65859 0 10.9086 0 12.4586V44.1886C0 45.7386 1.24978 46.9886 2.7995 46.9886H9.15836C10.1582 48.7286 11.9979 49.7886 13.9975 49.7886C15.9971 49.7886 17.8468 48.7286 18.8366 46.9886H41.8125C42.8124 48.7286 44.662 49.7886 46.6617 49.7886C48.6613 49.7886 50.501 48.7286 51.5008 46.9886H53.2005C54.7502 46.9886 56 45.7386 56 44.1886V32.9886C56 27.3286 51.4008 22.7286 45.7318 22.7286L45.7218 22.7186ZM54.0703 32.0486H43.8722C43.3423 32.0486 42.9223 31.6286 42.9223 31.1186V24.5786H45.7218C50.0011 24.5786 53.5904 27.7986 54.0703 32.0486ZM41.0727 24.5786V31.1186C41.0727 32.6586 42.3124 33.9186 43.8722 33.9186H54.1203V41.3786H51.4908C50.491 39.6486 48.6613 38.5786 46.6617 38.5786C44.662 38.5786 42.8124 39.6486 41.8125 41.3786H39.193V24.5786H41.0727ZM18.8366 41.3786C17.8368 39.6486 15.9971 38.5786 13.9975 38.5786C11.9979 38.5786 10.1482 39.6486 9.15836 41.3786H1.85967V37.6486H37.3233V41.3786H18.8266H18.8366ZM18.6667 2.17859C23.3058 2.17859 27.0652 5.93859 27.0652 10.5786C27.0652 15.2186 23.3058 18.9786 18.6667 18.9786C14.0275 18.9786 10.2682 15.2186 10.2682 10.5786C10.2682 5.94859 14.0275 2.17859 18.6667 2.17859ZM1.86967 12.4486C1.86967 11.9286 2.26959 11.5186 2.7995 11.5186H8.44849C8.91841 16.8186 13.3476 20.8586 18.6667 20.8586C23.9657 20.8586 28.4049 16.8086 28.8848 11.5186H36.3835C36.9034 11.5186 37.3133 11.9186 37.3133 12.4486V35.7786H1.86967V12.4486ZM2.7995 45.1186C2.27959 45.1186 1.86967 44.6986 1.86967 44.1786V43.2486H8.46849C8.36851 43.8686 8.36851 44.4986 8.46849 45.1186H2.7995ZM13.9975 47.9186C11.9379 47.9186 10.2682 46.2486 10.2682 44.1786C10.2682 42.1186 11.9379 40.4486 13.9975 40.4486C16.0571 40.4486 17.7268 42.1186 17.7268 44.1786C17.7268 46.2486 16.0571 47.9186 13.9975 47.9186ZM19.5165 45.1186C19.6165 44.4986 19.6165 43.8686 19.5165 43.2486H41.1427C41.0427 43.8686 41.0427 44.4986 41.1427 45.1186H19.5165ZM46.6617 47.9186C44.592 47.9186 42.9223 46.2486 42.9223 44.1786C42.9223 42.1186 44.592 40.4486 46.6617 40.4486C48.7213 40.4486 50.391 42.1186 50.391 44.1786C50.391 46.2486 48.7213 47.9186 46.6617 47.9186ZM54.1203 44.1786C54.1203 44.6986 53.7204 45.1186 53.1905 45.1186H52.1707C52.2707 44.4986 52.2707 43.8686 52.1707 43.2486H54.1203V44.1786Z" fill="#1E81CE"/>
<path d="M14.9273 11.5186H18.6667C19.1666 11.5186 19.5965 11.0986 19.5965 10.5786V4.97859C19.5965 4.47859 19.1766 4.04859 18.6667 4.04859C18.1468 4.04859 17.7268 4.46859 17.7268 4.97859V9.64859H14.9273C14.4274 9.64859 13.9975 10.0686 13.9975 10.5786C13.9975 11.0986 14.4174 11.5186 14.9273 11.5186Z" fill="#1E81CE"/>
</g>
</svg>
